G75*
G70*
%OFA0B0*%
%FSLAX24Y24*%
%IPPOS*%
%LPD*%
%AMOC8*
5,1,8,0,0,1.08239X$1,22.5*
%
%ADD10C,0.0010*%
%ADD11R,0.0394X0.0250*%
%ADD12R,0.0250X0.0394*%
%ADD13R,0.0256X0.0394*%
%ADD14R,0.0630X0.0394*%
%ADD15R,0.0354X0.0276*%
%ADD16C,0.0394*%
%ADD17C,0.0080*%
%ADD18C,0.0060*%
%ADD19C,0.0180*%
D10*
X000105Y005634D02*
X000112Y005905D01*
X000132Y006176D01*
X000165Y006445D01*
X000211Y006713D01*
X000271Y006977D01*
X000343Y007239D01*
X000428Y007497D01*
X000526Y007750D01*
X000636Y007998D01*
X000758Y008240D01*
X000892Y008476D01*
X001037Y008706D01*
X001193Y008928D01*
X001360Y009142D01*
X001537Y009347D01*
X001724Y009544D01*
X001921Y009731D01*
X002126Y009908D01*
X002340Y010075D01*
X002562Y010231D01*
X002792Y010376D01*
X003028Y010510D01*
X003270Y010632D01*
X003518Y010742D01*
X003771Y010840D01*
X004029Y010925D01*
X004291Y010997D01*
X004555Y011057D01*
X004823Y011103D01*
X005092Y011136D01*
X005363Y011156D01*
X005634Y011163D01*
X005905Y011156D01*
X006176Y011136D01*
X006445Y011103D01*
X006713Y011057D01*
X006977Y010997D01*
X007239Y010925D01*
X007497Y010840D01*
X007750Y010742D01*
X007998Y010632D01*
X008240Y010510D01*
X008476Y010376D01*
X008706Y010231D01*
X008928Y010075D01*
X009142Y009908D01*
X009347Y009731D01*
X009544Y009544D01*
X009731Y009347D01*
X009908Y009142D01*
X010075Y008928D01*
X010231Y008706D01*
X010376Y008476D01*
X010510Y008240D01*
X010632Y007998D01*
X010742Y007750D01*
X010840Y007497D01*
X010925Y007239D01*
X010997Y006977D01*
X011057Y006713D01*
X011103Y006445D01*
X011136Y006176D01*
X011156Y005905D01*
X011163Y005634D01*
X011156Y005363D01*
X011136Y005092D01*
X011103Y004823D01*
X011057Y004555D01*
X010997Y004291D01*
X010925Y004029D01*
X010840Y003771D01*
X010742Y003518D01*
X010632Y003270D01*
X010510Y003028D01*
X010376Y002792D01*
X010231Y002562D01*
X010075Y002340D01*
X009908Y002126D01*
X009731Y001921D01*
X009544Y001724D01*
X009347Y001537D01*
X009142Y001360D01*
X008928Y001193D01*
X008706Y001037D01*
X008476Y000892D01*
X008240Y000758D01*
X007998Y000636D01*
X007750Y000526D01*
X007497Y000428D01*
X007239Y000343D01*
X006977Y000271D01*
X006713Y000211D01*
X006445Y000165D01*
X006176Y000132D01*
X005905Y000112D01*
X005634Y000105D01*
X005363Y000112D01*
X005092Y000132D01*
X004823Y000165D01*
X004555Y000211D01*
X004291Y000271D01*
X004029Y000343D01*
X003771Y000428D01*
X003518Y000526D01*
X003270Y000636D01*
X003028Y000758D01*
X002792Y000892D01*
X002562Y001037D01*
X002340Y001193D01*
X002126Y001360D01*
X001921Y001537D01*
X001724Y001724D01*
X001537Y001921D01*
X001360Y002126D01*
X001193Y002340D01*
X001037Y002562D01*
X000892Y002792D01*
X000758Y003028D01*
X000636Y003270D01*
X000526Y003518D01*
X000428Y003771D01*
X000343Y004029D01*
X000271Y004291D01*
X000211Y004555D01*
X000165Y004823D01*
X000132Y005092D01*
X000112Y005363D01*
X000105Y005634D01*
D11*
X004110Y005443D03*
X004110Y005837D03*
X004110Y005049D03*
D12*
X006472Y004065D03*
X006866Y004065D03*
X007259Y004065D03*
X007653Y004065D03*
X008047Y004065D03*
X008440Y004065D03*
X008834Y004065D03*
X008834Y007215D03*
X008440Y007215D03*
X008047Y007215D03*
X007653Y007215D03*
X007259Y007215D03*
X006866Y007215D03*
X006472Y007215D03*
D13*
X001354Y005444D03*
X000960Y005444D03*
D14*
X001177Y007086D03*
D15*
X002593Y005450D03*
X002593Y004938D03*
D16*
X010490Y005213D03*
X010490Y005713D03*
X010490Y006213D03*
D17*
X009366Y001880D02*
X001862Y001880D01*
X001787Y001959D02*
X009440Y001959D01*
X009514Y002037D02*
X001712Y002037D01*
X001636Y002116D02*
X006750Y002116D01*
X006704Y002162D02*
X006815Y002051D01*
X006972Y002051D01*
X007084Y002162D01*
X007084Y002319D01*
X007024Y002379D01*
X007024Y003768D01*
X007032Y003768D01*
X007062Y003799D01*
X007093Y003768D01*
X007426Y003768D01*
X007456Y003799D01*
X007487Y003768D01*
X007819Y003768D01*
X007850Y003799D01*
X007880Y003768D01*
X008213Y003768D01*
X008244Y003799D01*
X008274Y003768D01*
X008607Y003768D01*
X008637Y003799D01*
X008668Y003768D01*
X009000Y003768D01*
X009059Y003827D01*
X009059Y004303D01*
X009000Y004362D01*
X008668Y004362D01*
X008637Y004332D01*
X008607Y004362D01*
X008274Y004362D01*
X008244Y004332D01*
X008213Y004362D01*
X007880Y004362D01*
X007850Y004332D01*
X007831Y004351D01*
X007831Y005579D01*
X010224Y005579D01*
X010238Y005544D01*
X010320Y005463D01*
X010238Y005381D01*
X010193Y005272D01*
X010193Y005154D01*
X010238Y005044D01*
X010321Y004961D01*
X010431Y004916D01*
X010549Y004916D01*
X010658Y004961D01*
X010741Y005044D01*
X010786Y005154D01*
X010786Y005272D01*
X010741Y005381D01*
X010659Y005463D01*
X010741Y005544D01*
X010786Y005654D01*
X010786Y005772D01*
X010741Y005881D01*
X010659Y005963D01*
X010741Y006044D01*
X010786Y006154D01*
X010786Y006272D01*
X010741Y006381D01*
X010658Y006464D01*
X010549Y006509D01*
X010431Y006509D01*
X010321Y006464D01*
X010238Y006381D01*
X010229Y006359D01*
X007209Y006359D01*
X007127Y006277D01*
X007127Y004362D01*
X007093Y004362D01*
X007062Y004332D01*
X007032Y004362D01*
X006699Y004362D01*
X006697Y004360D01*
X006683Y004374D01*
X006651Y004392D01*
X007127Y004392D01*
X007127Y004471D02*
X000438Y004471D01*
X000422Y004531D02*
X000338Y005063D01*
X002275Y005063D01*
X002275Y004967D01*
X002564Y004967D01*
X002564Y004909D01*
X002622Y004909D01*
X002622Y004967D01*
X002910Y004967D01*
X002910Y005063D01*
X004087Y005063D01*
X004087Y005027D01*
X003773Y005027D01*
X003773Y004906D01*
X003782Y004870D01*
X003801Y004838D01*
X003827Y004812D01*
X003859Y004794D01*
X003894Y004784D01*
X004087Y004784D01*
X004087Y005027D01*
X004132Y005027D01*
X004132Y004784D01*
X004325Y004784D01*
X004361Y004794D01*
X004392Y004812D01*
X004419Y004838D01*
X004437Y004870D01*
X004447Y004906D01*
X004447Y005027D01*
X004132Y005027D01*
X004132Y005063D01*
X004452Y005063D01*
X004452Y005690D01*
X004446Y005690D01*
X004447Y005693D01*
X004447Y005814D01*
X004132Y005814D01*
X004132Y005859D01*
X004447Y005859D01*
X004447Y005980D01*
X004437Y006016D01*
X004419Y006048D01*
X004392Y006074D01*
X004361Y006092D01*
X004325Y006102D01*
X004132Y006102D01*
X004132Y005859D01*
X004087Y005859D01*
X004087Y005814D01*
X003773Y005814D01*
X003773Y005693D01*
X003774Y005690D01*
X003404Y005690D01*
X003404Y007169D01*
X001632Y007169D01*
X001632Y007301D01*
X001622Y007337D01*
X001604Y007369D01*
X001578Y007395D01*
X001546Y007413D01*
X001510Y007423D01*
X001217Y007423D01*
X001217Y007169D01*
X001137Y007169D01*
X001137Y007423D01*
X000843Y007423D01*
X000808Y007413D01*
X000776Y007395D01*
X000750Y007369D01*
X000731Y007337D01*
X000722Y007301D01*
X000722Y007169D01*
X000538Y007169D01*
X000720Y007675D01*
X000953Y008159D01*
X001233Y008618D01*
X001559Y009046D01*
X001926Y009439D01*
X002331Y009793D01*
X002770Y010104D01*
X003238Y010368D01*
X003731Y010584D01*
X004243Y010749D01*
X004769Y010862D01*
X005303Y010921D01*
X005841Y010925D01*
X006376Y010874D01*
X006904Y010770D01*
X007418Y010613D01*
X007914Y010405D01*
X008386Y010147D01*
X008830Y009843D01*
X009241Y009496D01*
X009614Y009109D01*
X009946Y008686D01*
X010234Y008232D01*
X010474Y007750D01*
X010664Y007247D01*
X010803Y006728D01*
X010888Y006197D01*
X010919Y005660D01*
X010895Y005123D01*
X010817Y004590D01*
X010686Y004069D01*
X010502Y003563D01*
X010268Y003079D01*
X009987Y002621D01*
X009660Y002194D01*
X009292Y001801D01*
X008886Y001449D01*
X008447Y001139D01*
X007978Y000875D01*
X007485Y000660D01*
X006973Y000496D01*
X006447Y000385D01*
X005912Y000327D01*
X005374Y000324D01*
X004839Y000375D01*
X004312Y000481D01*
X003798Y000639D01*
X003302Y000848D01*
X002831Y001107D01*
X002388Y001412D01*
X001978Y001760D01*
X001605Y002148D01*
X001274Y002571D01*
X000987Y003026D01*
X000748Y003508D01*
X000559Y004011D01*
X000422Y004531D01*
X000419Y004549D02*
X007127Y004549D01*
X007127Y004628D02*
X000406Y004628D01*
X000394Y004706D02*
X002311Y004706D01*
X002303Y004714D02*
X002330Y004688D01*
X002361Y004669D01*
X002397Y004660D01*
X002564Y004660D01*
X002564Y004909D01*
X002275Y004909D01*
X002275Y004782D01*
X002285Y004746D01*
X002303Y004714D01*
X002275Y004785D02*
X000382Y004785D01*
X000369Y004863D02*
X002275Y004863D01*
X002275Y005020D02*
X000344Y005020D01*
X000357Y004942D02*
X002564Y004942D01*
X002622Y004942D02*
X003773Y004942D01*
X003773Y005020D02*
X002910Y005020D01*
X002910Y004909D02*
X002910Y004782D01*
X002900Y004746D01*
X002882Y004714D01*
X002856Y004688D01*
X002824Y004669D01*
X002788Y004660D01*
X002622Y004660D01*
X002622Y004909D01*
X002910Y004909D01*
X002910Y004863D02*
X003787Y004863D01*
X003893Y004785D02*
X002910Y004785D01*
X002874Y004706D02*
X007127Y004706D01*
X007127Y004785D02*
X004326Y004785D01*
X004433Y004863D02*
X007127Y004863D01*
X007127Y004942D02*
X004447Y004942D01*
X004447Y005020D02*
X007127Y005020D01*
X007127Y005099D02*
X006944Y005099D01*
X006979Y005133D02*
X006979Y005290D01*
X006929Y005340D01*
X006929Y006434D01*
X006847Y006516D01*
X006629Y006516D01*
X006629Y006918D01*
X006638Y006918D01*
X006669Y006948D01*
X006699Y006918D01*
X007032Y006918D01*
X007062Y006948D01*
X007093Y006918D01*
X007426Y006918D01*
X007456Y006948D01*
X007487Y006918D01*
X007819Y006918D01*
X007850Y006948D01*
X007880Y006918D01*
X008213Y006918D01*
X008244Y006948D01*
X008274Y006918D01*
X008607Y006918D01*
X008637Y006948D01*
X008668Y006918D01*
X009000Y006918D01*
X009059Y006976D01*
X009059Y007453D01*
X009000Y007512D01*
X008668Y007512D01*
X008637Y007481D01*
X008607Y007512D01*
X008274Y007512D01*
X008244Y007481D01*
X008213Y007512D01*
X007880Y007512D01*
X007850Y007481D01*
X007819Y007512D01*
X007487Y007512D01*
X007456Y007481D01*
X007426Y007512D01*
X007093Y007512D01*
X007062Y007481D01*
X007032Y007512D01*
X006699Y007512D01*
X006669Y007481D01*
X006638Y007512D01*
X006305Y007512D01*
X006247Y007453D01*
X006247Y006976D01*
X006305Y006918D01*
X006349Y006918D01*
X006349Y006318D01*
X006431Y006236D01*
X006649Y006236D01*
X006649Y005340D01*
X006599Y005290D01*
X006599Y005133D01*
X006710Y005022D01*
X006867Y005022D01*
X006979Y005133D01*
X006979Y005177D02*
X007127Y005177D01*
X007127Y005256D02*
X006979Y005256D01*
X006935Y005334D02*
X007127Y005334D01*
X007127Y005413D02*
X006929Y005413D01*
X006929Y005491D02*
X007127Y005491D01*
X007127Y005570D02*
X006929Y005570D01*
X006929Y005648D02*
X007127Y005648D01*
X007127Y005727D02*
X006929Y005727D01*
X006929Y005805D02*
X007127Y005805D01*
X007127Y005884D02*
X006929Y005884D01*
X006929Y005962D02*
X007127Y005962D01*
X007127Y006041D02*
X006929Y006041D01*
X006929Y006119D02*
X007127Y006119D01*
X007127Y006198D02*
X006929Y006198D01*
X006929Y006276D02*
X007127Y006276D01*
X007205Y006355D02*
X006929Y006355D01*
X006929Y006433D02*
X010290Y006433D01*
X010490Y006219D02*
X010490Y006213D01*
X010490Y006219D02*
X007267Y006219D01*
X007267Y004065D01*
X007259Y004065D01*
X007456Y004332D02*
X007426Y004362D01*
X007407Y004362D01*
X007407Y006079D01*
X010224Y006079D01*
X010238Y006044D01*
X010320Y005963D01*
X010238Y005881D01*
X010229Y005859D01*
X007633Y005859D01*
X007551Y005777D01*
X007551Y005661D01*
X007551Y004362D01*
X007487Y004362D01*
X007456Y004332D01*
X007407Y004392D02*
X007551Y004392D01*
X007551Y004471D02*
X007407Y004471D01*
X007407Y004549D02*
X007551Y004549D01*
X007551Y004628D02*
X007407Y004628D01*
X007407Y004706D02*
X007551Y004706D01*
X007551Y004785D02*
X007407Y004785D01*
X007407Y004863D02*
X007551Y004863D01*
X007551Y004942D02*
X007407Y004942D01*
X007407Y005020D02*
X007551Y005020D01*
X007551Y005099D02*
X007407Y005099D01*
X007407Y005177D02*
X007551Y005177D01*
X007551Y005256D02*
X007407Y005256D01*
X007407Y005334D02*
X007551Y005334D01*
X007551Y005413D02*
X007407Y005413D01*
X007407Y005491D02*
X007551Y005491D01*
X007551Y005570D02*
X007407Y005570D01*
X007407Y005648D02*
X007551Y005648D01*
X007551Y005727D02*
X007407Y005727D01*
X007407Y005805D02*
X007579Y005805D01*
X007691Y005719D02*
X010490Y005719D01*
X010490Y005713D01*
X010786Y005727D02*
X010915Y005727D01*
X010910Y005805D02*
X010773Y005805D01*
X010738Y005884D02*
X010906Y005884D01*
X010901Y005962D02*
X010660Y005962D01*
X010737Y006041D02*
X010897Y006041D01*
X010892Y006119D02*
X010772Y006119D01*
X010786Y006198D02*
X010888Y006198D01*
X010875Y006276D02*
X010785Y006276D01*
X010752Y006355D02*
X010862Y006355D01*
X010850Y006433D02*
X010689Y006433D01*
X010837Y006512D02*
X006851Y006512D01*
X006789Y006376D02*
X006789Y005212D01*
X006642Y005334D02*
X004452Y005334D01*
X004452Y005256D02*
X006599Y005256D01*
X006599Y005177D02*
X004452Y005177D01*
X004452Y005099D02*
X006633Y005099D01*
X006649Y005413D02*
X004452Y005413D01*
X004452Y005491D02*
X006649Y005491D01*
X006649Y005570D02*
X004452Y005570D01*
X004452Y005648D02*
X006649Y005648D01*
X006649Y005727D02*
X004447Y005727D01*
X004447Y005805D02*
X006649Y005805D01*
X006649Y005884D02*
X004447Y005884D01*
X004447Y005962D02*
X006649Y005962D01*
X006649Y006041D02*
X004423Y006041D01*
X004132Y006041D02*
X004087Y006041D01*
X004087Y006102D02*
X004087Y005859D01*
X003773Y005859D01*
X003773Y005980D01*
X003782Y006016D01*
X003801Y006048D01*
X003827Y006074D01*
X003859Y006092D01*
X003894Y006102D01*
X004087Y006102D01*
X004087Y005962D02*
X004132Y005962D01*
X004132Y005884D02*
X004087Y005884D01*
X003773Y005884D02*
X003404Y005884D01*
X003404Y005962D02*
X003773Y005962D01*
X003797Y006041D02*
X003404Y006041D01*
X003404Y006119D02*
X006649Y006119D01*
X006649Y006198D02*
X003404Y006198D01*
X003404Y006276D02*
X006390Y006276D01*
X006349Y006355D02*
X003404Y006355D01*
X003404Y006433D02*
X006349Y006433D01*
X006349Y006512D02*
X003404Y006512D01*
X003404Y006590D02*
X006349Y006590D01*
X006349Y006669D02*
X003404Y006669D01*
X003404Y006747D02*
X006349Y006747D01*
X006349Y006826D02*
X003404Y006826D01*
X003404Y006904D02*
X006349Y006904D01*
X006247Y006983D02*
X003404Y006983D01*
X003404Y007061D02*
X006247Y007061D01*
X006247Y007140D02*
X003404Y007140D01*
X003404Y005805D02*
X003773Y005805D01*
X003773Y005727D02*
X003404Y005727D01*
X004110Y005444D02*
X004110Y005443D01*
X004110Y005444D02*
X002635Y005444D01*
X001354Y005444D01*
X002564Y004863D02*
X002622Y004863D01*
X002622Y004785D02*
X002564Y004785D01*
X002564Y004706D02*
X002622Y004706D01*
X004087Y004785D02*
X004132Y004785D01*
X004132Y004863D02*
X004087Y004863D01*
X004087Y004942D02*
X004132Y004942D01*
X004132Y005020D02*
X004087Y005020D01*
X006216Y004316D02*
X006207Y004280D01*
X006207Y004088D01*
X006449Y004088D01*
X006449Y004402D01*
X006328Y004402D01*
X006293Y004392D01*
X006261Y004374D01*
X006235Y004348D01*
X006216Y004316D01*
X006216Y004314D02*
X000479Y004314D01*
X000458Y004392D02*
X006292Y004392D01*
X006207Y004235D02*
X000500Y004235D01*
X000521Y004157D02*
X006207Y004157D01*
X006207Y004043D02*
X006207Y003850D01*
X006216Y003814D01*
X006235Y003782D01*
X006261Y003756D01*
X006293Y003738D01*
X006328Y003728D01*
X006449Y003728D01*
X006449Y004043D01*
X006207Y004043D01*
X006207Y004000D02*
X000563Y004000D01*
X000541Y004078D02*
X006449Y004078D01*
X006449Y004088D02*
X006449Y004043D01*
X006494Y004043D01*
X006494Y003728D01*
X006615Y003728D01*
X006651Y003738D01*
X006683Y003756D01*
X006697Y003770D01*
X006699Y003768D01*
X006764Y003768D01*
X006764Y002379D01*
X006704Y002319D01*
X006704Y002162D01*
X006704Y002194D02*
X001569Y002194D01*
X001508Y002273D02*
X006704Y002273D01*
X006735Y002351D02*
X001446Y002351D01*
X001385Y002430D02*
X006764Y002430D01*
X006764Y002508D02*
X001324Y002508D01*
X001264Y002587D02*
X006764Y002587D01*
X006764Y002665D02*
X001215Y002665D01*
X001166Y002744D02*
X006764Y002744D01*
X006764Y002822D02*
X001116Y002822D01*
X001067Y002901D02*
X006764Y002901D01*
X006764Y002979D02*
X001017Y002979D01*
X000972Y003058D02*
X006764Y003058D01*
X006764Y003136D02*
X000933Y003136D01*
X000894Y003215D02*
X006764Y003215D01*
X006764Y003293D02*
X000855Y003293D01*
X000816Y003372D02*
X006764Y003372D01*
X006764Y003450D02*
X000777Y003450D01*
X000740Y003529D02*
X006764Y003529D01*
X006764Y003607D02*
X000711Y003607D01*
X000681Y003686D02*
X006764Y003686D01*
X006764Y003764D02*
X006691Y003764D01*
X006494Y003764D02*
X006449Y003764D01*
X006449Y003843D02*
X006494Y003843D01*
X006494Y003921D02*
X006449Y003921D01*
X006449Y004000D02*
X006494Y004000D01*
X006494Y004088D02*
X006449Y004088D01*
X006494Y004088D02*
X006494Y004402D01*
X006615Y004402D01*
X006651Y004392D01*
X006494Y004392D02*
X006449Y004392D01*
X006449Y004314D02*
X006494Y004314D01*
X006494Y004235D02*
X006449Y004235D01*
X006449Y004157D02*
X006494Y004157D01*
X006207Y003921D02*
X000593Y003921D01*
X000622Y003843D02*
X006209Y003843D01*
X006253Y003764D02*
X000652Y003764D01*
X001938Y001802D02*
X009292Y001802D01*
X009202Y001723D02*
X002021Y001723D01*
X002114Y001645D02*
X009112Y001645D01*
X009022Y001566D02*
X002206Y001566D01*
X002298Y001488D02*
X008931Y001488D01*
X008830Y001409D02*
X002392Y001409D01*
X002506Y001331D02*
X008719Y001331D01*
X008608Y001252D02*
X002620Y001252D01*
X002734Y001174D02*
X008496Y001174D01*
X008369Y001095D02*
X002852Y001095D01*
X002995Y001017D02*
X008230Y001017D01*
X008091Y000938D02*
X003139Y000938D01*
X003282Y000860D02*
X007943Y000860D01*
X007763Y000781D02*
X003461Y000781D01*
X003647Y000703D02*
X007583Y000703D01*
X007374Y000624D02*
X003846Y000624D01*
X004101Y000546D02*
X007128Y000546D01*
X006837Y000467D02*
X004380Y000467D01*
X004773Y000389D02*
X006466Y000389D01*
X007037Y002116D02*
X009587Y002116D01*
X009661Y002194D02*
X007084Y002194D01*
X007084Y002273D02*
X009721Y002273D01*
X009781Y002351D02*
X007052Y002351D01*
X007024Y002430D02*
X009841Y002430D01*
X009901Y002508D02*
X007024Y002508D01*
X007024Y002587D02*
X009961Y002587D01*
X010014Y002665D02*
X007024Y002665D01*
X007024Y002744D02*
X010062Y002744D01*
X010111Y002822D02*
X007024Y002822D01*
X007024Y002901D02*
X010159Y002901D01*
X010207Y002979D02*
X007024Y002979D01*
X007024Y003058D02*
X010255Y003058D01*
X010296Y003136D02*
X007024Y003136D01*
X007024Y003215D02*
X010334Y003215D01*
X010372Y003293D02*
X007024Y003293D01*
X007024Y003372D02*
X010410Y003372D01*
X010448Y003450D02*
X007024Y003450D01*
X007024Y003529D02*
X010485Y003529D01*
X010518Y003607D02*
X007024Y003607D01*
X007024Y003686D02*
X010547Y003686D01*
X010575Y003764D02*
X007024Y003764D01*
X006894Y004065D02*
X006866Y004065D01*
X007653Y004065D02*
X007691Y004065D01*
X007691Y005719D01*
X007831Y005570D02*
X010228Y005570D01*
X010291Y005491D02*
X007831Y005491D01*
X007831Y005413D02*
X010270Y005413D01*
X010219Y005334D02*
X007831Y005334D01*
X007831Y005256D02*
X010193Y005256D01*
X010193Y005177D02*
X007831Y005177D01*
X007831Y005099D02*
X010216Y005099D01*
X010262Y005020D02*
X007831Y005020D01*
X007831Y004942D02*
X010368Y004942D01*
X010611Y004942D02*
X010869Y004942D01*
X010880Y005020D02*
X010717Y005020D01*
X010764Y005099D02*
X010892Y005099D01*
X010897Y005177D02*
X010786Y005177D01*
X010786Y005256D02*
X010901Y005256D01*
X010904Y005334D02*
X010761Y005334D01*
X010709Y005413D02*
X010908Y005413D01*
X010911Y005491D02*
X010688Y005491D01*
X010752Y005570D02*
X010915Y005570D01*
X010918Y005648D02*
X010784Y005648D01*
X010319Y005962D02*
X007407Y005962D01*
X007407Y005884D02*
X010241Y005884D01*
X010242Y006041D02*
X007407Y006041D01*
X006789Y006376D02*
X006489Y006376D01*
X006489Y007215D01*
X006472Y007215D01*
X006247Y007218D02*
X001632Y007218D01*
X001632Y007297D02*
X006247Y007297D01*
X006247Y007375D02*
X001597Y007375D01*
X001217Y007375D02*
X001137Y007375D01*
X001137Y007297D02*
X001217Y007297D01*
X001217Y007218D02*
X001137Y007218D01*
X000756Y007375D02*
X000612Y007375D01*
X000584Y007297D02*
X000722Y007297D01*
X000722Y007218D02*
X000556Y007218D01*
X000640Y007454D02*
X006248Y007454D01*
X006629Y006904D02*
X010756Y006904D01*
X010777Y006826D02*
X006629Y006826D01*
X006629Y006747D02*
X010798Y006747D01*
X010812Y006669D02*
X006629Y006669D01*
X006629Y006590D02*
X010825Y006590D01*
X010735Y006983D02*
X009059Y006983D01*
X009059Y007061D02*
X010714Y007061D01*
X010693Y007140D02*
X009059Y007140D01*
X009059Y007218D02*
X010672Y007218D01*
X010646Y007297D02*
X009059Y007297D01*
X009059Y007375D02*
X010616Y007375D01*
X010586Y007454D02*
X009058Y007454D01*
X010130Y008396D02*
X001097Y008396D01*
X001145Y008474D02*
X010080Y008474D01*
X010030Y008553D02*
X001193Y008553D01*
X001243Y008631D02*
X009981Y008631D01*
X009927Y008710D02*
X001303Y008710D01*
X001363Y008788D02*
X009866Y008788D01*
X009804Y008867D02*
X001422Y008867D01*
X001482Y008945D02*
X009742Y008945D01*
X009681Y009024D02*
X001542Y009024D01*
X001611Y009102D02*
X009619Y009102D01*
X009545Y009181D02*
X001685Y009181D01*
X001758Y009259D02*
X009469Y009259D01*
X009393Y009338D02*
X001831Y009338D01*
X001905Y009416D02*
X009317Y009416D01*
X009242Y009495D02*
X001990Y009495D01*
X002080Y009573D02*
X009149Y009573D01*
X009056Y009652D02*
X002170Y009652D01*
X002260Y009730D02*
X008964Y009730D01*
X008871Y009809D02*
X002354Y009809D01*
X002465Y009887D02*
X008766Y009887D01*
X008651Y009966D02*
X002576Y009966D01*
X002686Y010044D02*
X008537Y010044D01*
X008422Y010123D02*
X002804Y010123D01*
X002943Y010201D02*
X008287Y010201D01*
X008143Y010280D02*
X003082Y010280D01*
X003220Y010358D02*
X007999Y010358D01*
X007838Y010437D02*
X003394Y010437D01*
X003573Y010515D02*
X007651Y010515D01*
X007465Y010594D02*
X003760Y010594D01*
X004003Y010672D02*
X007225Y010672D01*
X006968Y010751D02*
X004248Y010751D01*
X004615Y010829D02*
X006605Y010829D01*
X006022Y010908D02*
X005186Y010908D01*
X001049Y008317D02*
X010180Y008317D01*
X010229Y008239D02*
X001001Y008239D01*
X000953Y008160D02*
X010269Y008160D01*
X010309Y008082D02*
X000915Y008082D01*
X000878Y008003D02*
X010348Y008003D01*
X010387Y007925D02*
X000840Y007925D01*
X000802Y007846D02*
X010426Y007846D01*
X010465Y007768D02*
X000765Y007768D01*
X000727Y007689D02*
X010497Y007689D01*
X010527Y007611D02*
X000697Y007611D01*
X000669Y007532D02*
X010557Y007532D01*
X010857Y004863D02*
X007831Y004863D01*
X007831Y004785D02*
X010846Y004785D01*
X010834Y004706D02*
X007831Y004706D01*
X007831Y004628D02*
X010823Y004628D01*
X010807Y004549D02*
X007831Y004549D01*
X007831Y004471D02*
X010787Y004471D01*
X010767Y004392D02*
X007831Y004392D01*
X009049Y004314D02*
X010747Y004314D01*
X010728Y004235D02*
X009059Y004235D01*
X009059Y004157D02*
X010708Y004157D01*
X010688Y004078D02*
X009059Y004078D01*
X009059Y004000D02*
X010661Y004000D01*
X010632Y003921D02*
X009059Y003921D01*
X009059Y003843D02*
X010604Y003843D01*
D18*
X006894Y004001D02*
X006894Y002241D01*
X006894Y004001D02*
X006866Y004065D01*
X002635Y005429D02*
X002635Y005444D01*
X002635Y005429D02*
X002593Y005450D01*
X001177Y007086D02*
X001195Y007109D01*
X001195Y007269D01*
X001217Y007296D01*
X000960Y005444D02*
X000955Y005429D01*
X000955Y005189D01*
X000955Y005029D01*
X000934Y004985D01*
D19*
X000934Y004985D03*
X001229Y004985D03*
X001544Y004985D03*
X001859Y004985D03*
X002143Y004985D03*
X002286Y004504D03*
X002018Y004329D03*
X001467Y004198D03*
X001415Y004504D03*
X001009Y004532D03*
X000828Y004249D03*
X000658Y004539D03*
X000572Y004811D03*
X001292Y003522D03*
X001628Y002778D03*
X002270Y002075D03*
X002678Y002850D03*
X003226Y003157D03*
X003352Y002785D03*
X003810Y003055D03*
X004159Y003212D03*
X004205Y003552D03*
X004597Y003341D03*
X004530Y003055D03*
X004899Y002942D03*
X005204Y003153D03*
X004899Y003372D03*
X004824Y003642D03*
X005216Y003615D03*
X006264Y003313D03*
X006894Y002241D03*
X007956Y003204D03*
X008833Y002833D03*
X009413Y002617D03*
X009036Y002065D03*
X008262Y001454D03*
X007487Y001046D03*
X009808Y003219D03*
X008604Y005468D03*
X008888Y005961D03*
X008117Y005961D03*
X007473Y004885D03*
X006789Y005212D03*
X006198Y005667D03*
X006408Y006058D03*
X006003Y005266D03*
X005117Y005448D03*
X005183Y006784D03*
X005859Y007517D03*
X005327Y008147D03*
X005238Y008729D03*
X004724Y008788D03*
X004237Y009167D03*
X004145Y009900D03*
X003167Y009513D03*
X002311Y008922D03*
X002800Y008137D03*
X002846Y007374D03*
X002630Y007374D03*
X002410Y007374D03*
X002179Y007374D03*
X001966Y007374D03*
X001754Y007374D03*
X001456Y007567D03*
X001173Y007581D03*
X000905Y007603D03*
X001598Y008219D03*
X003096Y007374D03*
X003339Y007374D03*
X003570Y007374D03*
X003570Y007139D03*
X003570Y006912D03*
X003570Y006669D03*
X003570Y006449D03*
X003570Y006237D03*
X003570Y006036D03*
X003570Y005835D03*
X003593Y004950D03*
X003158Y004945D03*
X003163Y004010D03*
X003688Y003556D03*
X004124Y002789D03*
X004617Y002479D03*
X004492Y001861D03*
X003835Y001724D03*
X003269Y002177D03*
X003106Y001351D03*
X003839Y000913D03*
X002117Y003604D03*
X003993Y007474D03*
X006229Y008635D03*
X007333Y008091D03*
X007805Y008694D03*
X008201Y009197D03*
X008941Y008432D03*
X009353Y008030D03*
X009156Y006872D03*
X006846Y009788D03*
M02*
