G75*
G70*
%OFA0B0*%
%FSLAX24Y24*%
%IPPOS*%
%LPD*%
%AMOC8*
5,1,8,0,0,1.08239X$1,22.5*
%
%ADD10R,0.0474X0.0330*%
%ADD11R,0.0330X0.0474*%
%ADD12R,0.0336X0.0474*%
%ADD13R,0.0710X0.0474*%
%ADD14R,0.0434X0.0356*%
%ADD15C,0.0474*%
%ADD16C,0.0260*%
D10*
X004110Y005049D03*
X004110Y005443D03*
X004110Y005837D03*
D11*
X006472Y007215D03*
X006866Y007215D03*
X007259Y007215D03*
X007653Y007215D03*
X008047Y007215D03*
X008440Y007215D03*
X008834Y007215D03*
X008834Y004065D03*
X008440Y004065D03*
X008047Y004065D03*
X007653Y004065D03*
X007259Y004065D03*
X006866Y004065D03*
X006472Y004065D03*
D12*
X001354Y005444D03*
X000960Y005444D03*
D13*
X001177Y007086D03*
D14*
X002593Y005450D03*
X002593Y004938D03*
D15*
X010490Y005213D03*
X010490Y005713D03*
X010490Y006213D03*
D16*
X002270Y002075D03*
X001628Y002778D03*
X001292Y003522D03*
X001467Y004198D03*
X001415Y004504D03*
X001009Y004532D03*
X000828Y004249D03*
X000658Y004539D03*
X000572Y004811D03*
X000934Y004985D03*
X001229Y004985D03*
X001544Y004985D03*
X001859Y004985D03*
X002143Y004985D03*
X002286Y004504D03*
X002018Y004329D03*
X002117Y003604D03*
X002678Y002850D03*
X003226Y003157D03*
X003352Y002785D03*
X003810Y003055D03*
X004159Y003212D03*
X004205Y003552D03*
X004597Y003341D03*
X004530Y003055D03*
X004899Y002942D03*
X005204Y003153D03*
X004899Y003372D03*
X004824Y003642D03*
X005216Y003615D03*
X006264Y003313D03*
X006894Y002241D03*
X007956Y003204D03*
X008833Y002833D03*
X009413Y002617D03*
X009036Y002065D03*
X008262Y001454D03*
X007487Y001046D03*
X009808Y003219D03*
X008604Y005468D03*
X008888Y005961D03*
X008117Y005961D03*
X007473Y004885D03*
X006789Y005212D03*
X006198Y005667D03*
X006408Y006058D03*
X006003Y005266D03*
X005117Y005448D03*
X005183Y006784D03*
X005859Y007517D03*
X005327Y008147D03*
X005238Y008729D03*
X004724Y008788D03*
X004237Y009167D03*
X004145Y009900D03*
X003167Y009513D03*
X002311Y008922D03*
X002800Y008137D03*
X002846Y007374D03*
X002630Y007374D03*
X002410Y007374D03*
X002179Y007374D03*
X001966Y007374D03*
X001754Y007374D03*
X001456Y007567D03*
X001173Y007581D03*
X000905Y007603D03*
X001598Y008219D03*
X003096Y007374D03*
X003339Y007374D03*
X003570Y007374D03*
X003570Y007139D03*
X003570Y006912D03*
X003570Y006669D03*
X003570Y006449D03*
X003570Y006237D03*
X003570Y006036D03*
X003570Y005835D03*
X003593Y004950D03*
X003158Y004945D03*
X003163Y004010D03*
X003688Y003556D03*
X004124Y002789D03*
X004617Y002479D03*
X004492Y001861D03*
X003835Y001724D03*
X003269Y002177D03*
X003106Y001351D03*
X003839Y000913D03*
X009156Y006872D03*
X009353Y008030D03*
X008941Y008432D03*
X008201Y009197D03*
X007805Y008694D03*
X007333Y008091D03*
X006229Y008635D03*
X006846Y009788D03*
X003993Y007474D03*
M02*
