%
M48
M72
T01C0.0060
T02C0.0200
%
T01
X2270Y2075
X1628Y2778
X1292Y3522
X1467Y4198
X1415Y4504
X1009Y4532
X828Y4249
X658Y4539
X572Y4811
X934Y4985
X1229Y4985
X1544Y4985
X1859Y4985
X2143Y4985
X2286Y4504
X2018Y4329
X2117Y3604
X2678Y2850
X3226Y3157
X3352Y2785
X3810Y3055
X4159Y3212
X4205Y3552
X4597Y3341
X4530Y3055
X4899Y2942
X5204Y3153
X4899Y3372
X4824Y3642
X5216Y3615
X6264Y3313
X6894Y2241
X7956Y3204
X8833Y2833
X9413Y2617
X9036Y2065
X8262Y1454
X7487Y1046
X9808Y3219
X8604Y5468
X8888Y5961
X8117Y5961
X7473Y4885
X6789Y5212
X6198Y5667
X6408Y6058
X6003Y5266
X5117Y5448
X5183Y6784
X5859Y7517
X5327Y8147
X5238Y8729
X4724Y8788
X4237Y9167
X4145Y9900
X3167Y9513
X2311Y8922
X2800Y8137
X2846Y7374
X2630Y7374
X2410Y7374
X2179Y7374
X1966Y7374
X1754Y7374
X1456Y7567
X1173Y7581
X905Y7603
X1598Y8219
X3096Y7374
X3339Y7374
X3570Y7374
X3570Y7139
X3570Y6912
X3570Y6669
X3570Y6449
X3570Y6237
X3570Y6036
X3570Y5835
X3593Y4950
X3158Y4945
X3163Y4010
X3688Y3556
X4124Y2789
X4617Y2479
X4492Y1861
X3835Y1724
X3269Y2177
X3106Y1351
X3839Y913
X9156Y6872
X9353Y8030
X8941Y8432
X8201Y9197
X7805Y8694
X7333Y8091
X6229Y8635
X6846Y9788
X3993Y7474
T02
X10490Y6213
X10490Y5713
X10490Y5213
M30
