G75*
G70*
%OFA0B0*%
%FSLAX24Y24*%
%IPPOS*%
%LPD*%
%AMOC8*
5,1,8,0,0,1.08239X$1,22.5*
%
%ADD10R,0.1575X0.1575*%
%ADD11C,0.0394*%
%ADD12C,0.0080*%
%ADD13C,0.0180*%
%ADD14C,0.0060*%
D10*
X005656Y001276D03*
X005656Y009937D03*
D11*
X010490Y006213D03*
X010490Y005713D03*
X010490Y005213D03*
D12*
X004768Y001880D02*
X001862Y001880D01*
X001787Y001959D02*
X004768Y001959D01*
X004768Y002037D02*
X001712Y002037D01*
X001636Y002116D02*
X004779Y002116D01*
X004768Y002105D02*
X004768Y000447D01*
X004827Y000388D01*
X006459Y000388D01*
X006446Y000386D01*
X005911Y000328D01*
X005373Y000325D01*
X004838Y000376D01*
X004311Y000482D01*
X003797Y000640D01*
X003301Y000849D01*
X002830Y001108D01*
X002387Y001413D01*
X001977Y001761D01*
X001604Y002149D01*
X001273Y002572D01*
X000986Y003027D01*
X000747Y003509D01*
X000558Y004012D01*
X000421Y004532D01*
X000337Y005064D01*
X004451Y005064D01*
X004451Y005691D01*
X003403Y005691D01*
X003403Y007170D01*
X000537Y007170D01*
X000719Y007676D01*
X000952Y008160D01*
X010269Y008160D01*
X010233Y008233D02*
X010473Y007751D01*
X010663Y007248D01*
X010802Y006729D01*
X010887Y006198D01*
X010918Y005661D01*
X010894Y005124D01*
X010816Y004591D01*
X010685Y004070D01*
X010501Y003564D01*
X010267Y003080D01*
X009986Y002622D01*
X009659Y002195D01*
X009291Y001802D01*
X008885Y001450D01*
X008446Y001140D01*
X007977Y000876D01*
X007484Y000661D01*
X006972Y000497D01*
X006491Y000395D01*
X006543Y000447D01*
X006543Y001706D01*
X006887Y002051D01*
X006972Y002051D01*
X007084Y002162D01*
X007084Y002319D01*
X006972Y002431D01*
X006815Y002431D01*
X006704Y002319D01*
X006704Y002234D01*
X006543Y002074D01*
X006543Y002105D01*
X006484Y002163D01*
X004827Y002163D01*
X004768Y002105D01*
X004768Y001802D02*
X001938Y001802D01*
X002021Y001723D02*
X004768Y001723D01*
X004768Y001645D02*
X002114Y001645D01*
X002206Y001566D02*
X004768Y001566D01*
X004768Y001488D02*
X002299Y001488D01*
X002392Y001409D02*
X004768Y001409D01*
X004768Y001331D02*
X002506Y001331D01*
X002620Y001252D02*
X004768Y001252D01*
X004768Y001174D02*
X002734Y001174D01*
X002853Y001095D02*
X004768Y001095D01*
X004768Y001017D02*
X002996Y001017D01*
X003139Y000938D02*
X004768Y000938D01*
X004768Y000860D02*
X003283Y000860D01*
X003463Y000781D02*
X004768Y000781D01*
X004768Y000703D02*
X003649Y000703D01*
X003848Y000624D02*
X004768Y000624D01*
X004768Y000546D02*
X004103Y000546D01*
X004384Y000467D02*
X004768Y000467D01*
X004777Y000389D02*
X004827Y000389D01*
X006532Y002116D02*
X006585Y002116D01*
X006663Y002194D02*
X001569Y002194D01*
X001508Y002273D02*
X006704Y002273D01*
X006735Y002351D02*
X001446Y002351D01*
X001385Y002430D02*
X006814Y002430D01*
X006973Y002430D02*
X009839Y002430D01*
X009899Y002508D02*
X001323Y002508D01*
X001264Y002587D02*
X009959Y002587D01*
X010013Y002665D02*
X001215Y002665D01*
X001165Y002744D02*
X010061Y002744D01*
X010109Y002822D02*
X001116Y002822D01*
X001066Y002901D02*
X010157Y002901D01*
X010205Y002979D02*
X001017Y002979D01*
X000971Y003058D02*
X010254Y003058D01*
X010295Y003136D02*
X000932Y003136D01*
X000893Y003215D02*
X010332Y003215D01*
X010370Y003293D02*
X000854Y003293D01*
X000815Y003372D02*
X010408Y003372D01*
X010446Y003450D02*
X000776Y003450D01*
X000740Y003529D02*
X010484Y003529D01*
X010517Y003607D02*
X000710Y003607D01*
X000681Y003686D02*
X010545Y003686D01*
X010574Y003764D02*
X000651Y003764D01*
X000622Y003843D02*
X010602Y003843D01*
X010631Y003921D02*
X000592Y003921D01*
X000563Y004000D02*
X010659Y004000D01*
X010687Y004078D02*
X000541Y004078D01*
X000520Y004157D02*
X010707Y004157D01*
X010726Y004235D02*
X000499Y004235D01*
X000478Y004314D02*
X010746Y004314D01*
X010766Y004392D02*
X000458Y004392D01*
X000437Y004471D02*
X010786Y004471D01*
X010805Y004549D02*
X000418Y004549D01*
X000406Y004628D02*
X010821Y004628D01*
X010833Y004706D02*
X000393Y004706D01*
X000381Y004785D02*
X010844Y004785D01*
X010856Y004863D02*
X000368Y004863D01*
X000356Y004942D02*
X010368Y004942D01*
X010321Y004961D02*
X010431Y004916D01*
X010549Y004916D01*
X010658Y004961D01*
X010741Y005044D01*
X010786Y005154D01*
X010786Y005272D01*
X010741Y005381D01*
X010659Y005463D01*
X010741Y005544D01*
X010786Y005654D01*
X010786Y005772D01*
X010741Y005881D01*
X010659Y005963D01*
X010741Y006044D01*
X010786Y006154D01*
X010786Y006272D01*
X010741Y006381D01*
X010658Y006464D01*
X010549Y006509D01*
X010431Y006509D01*
X010321Y006464D01*
X010238Y006381D01*
X010193Y006272D01*
X010193Y006154D01*
X010238Y006044D01*
X010320Y005963D01*
X010238Y005881D01*
X010193Y005772D01*
X010193Y005654D01*
X010238Y005544D01*
X010320Y005463D01*
X010238Y005381D01*
X010226Y005352D01*
X006917Y005352D01*
X006867Y005402D01*
X006710Y005402D01*
X006599Y005290D01*
X006599Y005133D01*
X006710Y005022D01*
X006867Y005022D01*
X006917Y005072D01*
X010227Y005072D01*
X010238Y005044D01*
X010321Y004961D01*
X010262Y005020D02*
X000344Y005020D01*
X000554Y007218D02*
X010671Y007218D01*
X010692Y007140D02*
X003403Y007140D01*
X003403Y007061D02*
X010713Y007061D01*
X010734Y006983D02*
X003403Y006983D01*
X003403Y006904D02*
X010755Y006904D01*
X010776Y006826D02*
X003403Y006826D01*
X003403Y006747D02*
X010797Y006747D01*
X010811Y006669D02*
X003403Y006669D01*
X003403Y006590D02*
X010824Y006590D01*
X010836Y006512D02*
X003403Y006512D01*
X003403Y006433D02*
X010290Y006433D01*
X010227Y006355D02*
X003403Y006355D01*
X003403Y006276D02*
X010195Y006276D01*
X010193Y006198D02*
X003403Y006198D01*
X003403Y006119D02*
X010207Y006119D01*
X010242Y006041D02*
X003403Y006041D01*
X003403Y005962D02*
X010319Y005962D01*
X010241Y005884D02*
X003403Y005884D01*
X003403Y005805D02*
X010207Y005805D01*
X010193Y005727D02*
X003403Y005727D01*
X004451Y005648D02*
X010195Y005648D01*
X010228Y005570D02*
X004451Y005570D01*
X004451Y005491D02*
X010291Y005491D01*
X010270Y005413D02*
X004451Y005413D01*
X004451Y005334D02*
X006642Y005334D01*
X006599Y005256D02*
X004451Y005256D01*
X004451Y005177D02*
X006599Y005177D01*
X006633Y005099D02*
X004451Y005099D01*
X006789Y005212D02*
X010490Y005212D01*
X010490Y005213D01*
X010761Y005334D02*
X010903Y005334D01*
X010900Y005256D02*
X010786Y005256D01*
X010786Y005177D02*
X010896Y005177D01*
X010890Y005099D02*
X010764Y005099D01*
X010717Y005020D02*
X010879Y005020D01*
X010867Y004942D02*
X010611Y004942D01*
X010709Y005413D02*
X010907Y005413D01*
X010910Y005491D02*
X010688Y005491D01*
X010752Y005570D02*
X010914Y005570D01*
X010917Y005648D02*
X010784Y005648D01*
X010786Y005727D02*
X010914Y005727D01*
X010909Y005805D02*
X010773Y005805D01*
X010738Y005884D02*
X010905Y005884D01*
X010900Y005962D02*
X010660Y005962D01*
X010737Y006041D02*
X010896Y006041D01*
X010891Y006119D02*
X010772Y006119D01*
X010786Y006198D02*
X010887Y006198D01*
X010874Y006276D02*
X010785Y006276D01*
X010752Y006355D02*
X010862Y006355D01*
X010849Y006433D02*
X010689Y006433D01*
X010645Y007297D02*
X000582Y007297D01*
X000611Y007375D02*
X010615Y007375D01*
X010586Y007454D02*
X000639Y007454D01*
X000667Y007532D02*
X010556Y007532D01*
X010526Y007611D02*
X000696Y007611D01*
X000726Y007689D02*
X010497Y007689D01*
X010465Y007768D02*
X000763Y007768D01*
X000801Y007846D02*
X010426Y007846D01*
X010387Y007925D02*
X000839Y007925D01*
X000876Y008003D02*
X010347Y008003D01*
X010308Y008082D02*
X000914Y008082D01*
X000952Y008160D02*
X001232Y008619D01*
X001558Y009047D01*
X001925Y009440D01*
X002330Y009794D01*
X002769Y010105D01*
X003237Y010369D01*
X003730Y010585D01*
X004242Y010750D01*
X004768Y010863D01*
X005302Y010922D01*
X005840Y010926D01*
X006375Y010875D01*
X006430Y010865D01*
X005696Y010865D01*
X005696Y009977D01*
X006583Y009977D01*
X006583Y010743D01*
X006574Y010779D01*
X006555Y010811D01*
X006529Y010837D01*
X006507Y010849D01*
X006903Y010771D01*
X007417Y010614D01*
X007913Y010406D01*
X008385Y010148D01*
X008829Y009844D01*
X009240Y009497D01*
X009613Y009110D01*
X009945Y008687D01*
X010233Y008233D01*
X010229Y008239D02*
X001000Y008239D01*
X001048Y008317D02*
X010179Y008317D01*
X010130Y008396D02*
X001096Y008396D01*
X001144Y008474D02*
X010080Y008474D01*
X010030Y008553D02*
X001192Y008553D01*
X001242Y008631D02*
X009980Y008631D01*
X009927Y008710D02*
X001301Y008710D01*
X001361Y008788D02*
X009866Y008788D01*
X009804Y008867D02*
X001421Y008867D01*
X001480Y008945D02*
X009742Y008945D01*
X009681Y009024D02*
X006505Y009024D01*
X006497Y009019D02*
X006529Y009038D01*
X006555Y009064D01*
X006574Y009096D01*
X006583Y009131D01*
X006583Y009897D01*
X005696Y009897D01*
X005696Y009977D01*
X005616Y009977D01*
X005616Y010865D01*
X004850Y010865D01*
X004814Y010855D01*
X004782Y010837D01*
X004756Y010811D01*
X004738Y010779D01*
X004728Y010743D01*
X004728Y009977D01*
X005616Y009977D01*
X005616Y009897D01*
X005696Y009897D01*
X005696Y009010D01*
X006461Y009010D01*
X006497Y009019D01*
X006575Y009102D02*
X009619Y009102D01*
X009545Y009181D02*
X006583Y009181D01*
X006583Y009259D02*
X009469Y009259D01*
X009393Y009338D02*
X006583Y009338D01*
X006583Y009416D02*
X009317Y009416D01*
X009242Y009495D02*
X006583Y009495D01*
X006583Y009573D02*
X009149Y009573D01*
X009057Y009652D02*
X006583Y009652D01*
X006583Y009730D02*
X008964Y009730D01*
X008871Y009809D02*
X006583Y009809D01*
X006583Y009887D02*
X008766Y009887D01*
X008652Y009966D02*
X005696Y009966D01*
X005696Y010044D02*
X005616Y010044D01*
X005616Y009966D02*
X002573Y009966D01*
X002684Y010044D02*
X004728Y010044D01*
X004728Y010123D02*
X002801Y010123D01*
X002940Y010201D02*
X004728Y010201D01*
X004728Y010280D02*
X003079Y010280D01*
X003218Y010358D02*
X004728Y010358D01*
X004728Y010437D02*
X003391Y010437D01*
X003570Y010515D02*
X004728Y010515D01*
X004728Y010594D02*
X003756Y010594D01*
X003999Y010672D02*
X004728Y010672D01*
X004730Y010751D02*
X004243Y010751D01*
X004610Y010829D02*
X004775Y010829D01*
X005176Y010908D02*
X006032Y010908D01*
X005696Y010829D02*
X005616Y010829D01*
X005616Y010751D02*
X005696Y010751D01*
X005696Y010672D02*
X005616Y010672D01*
X005616Y010594D02*
X005696Y010594D01*
X005696Y010515D02*
X005616Y010515D01*
X005616Y010437D02*
X005696Y010437D01*
X005696Y010358D02*
X005616Y010358D01*
X005616Y010280D02*
X005696Y010280D01*
X005696Y010201D02*
X005616Y010201D01*
X005616Y010123D02*
X005696Y010123D01*
X005696Y009887D02*
X005616Y009887D01*
X005616Y009897D02*
X005616Y009010D01*
X004850Y009010D01*
X004814Y009019D01*
X004782Y009038D01*
X004756Y009064D01*
X004738Y009096D01*
X004728Y009131D01*
X004728Y009897D01*
X005616Y009897D01*
X005616Y009809D02*
X005696Y009809D01*
X005696Y009730D02*
X005616Y009730D01*
X005616Y009652D02*
X005696Y009652D01*
X005696Y009573D02*
X005616Y009573D01*
X005616Y009495D02*
X005696Y009495D01*
X005696Y009416D02*
X005616Y009416D01*
X005616Y009338D02*
X005696Y009338D01*
X005696Y009259D02*
X005616Y009259D01*
X005616Y009181D02*
X005696Y009181D01*
X005696Y009102D02*
X005616Y009102D01*
X005616Y009024D02*
X005696Y009024D01*
X004807Y009024D02*
X001540Y009024D01*
X001609Y009102D02*
X004736Y009102D01*
X004728Y009181D02*
X001683Y009181D01*
X001756Y009259D02*
X004728Y009259D01*
X004728Y009338D02*
X001830Y009338D01*
X001903Y009416D02*
X004728Y009416D01*
X004728Y009495D02*
X001988Y009495D01*
X002078Y009573D02*
X004728Y009573D01*
X004728Y009652D02*
X002168Y009652D01*
X002258Y009730D02*
X004728Y009730D01*
X004728Y009809D02*
X002352Y009809D01*
X002462Y009887D02*
X004728Y009887D01*
X006583Y010044D02*
X008537Y010044D01*
X008423Y010123D02*
X006583Y010123D01*
X006583Y010201D02*
X008288Y010201D01*
X008144Y010280D02*
X006583Y010280D01*
X006583Y010358D02*
X008000Y010358D01*
X007839Y010437D02*
X006583Y010437D01*
X006583Y010515D02*
X007653Y010515D01*
X007466Y010594D02*
X006583Y010594D01*
X006583Y010672D02*
X007227Y010672D01*
X006970Y010751D02*
X006581Y010751D01*
X006609Y010829D02*
X006537Y010829D01*
X007052Y002351D02*
X009779Y002351D01*
X009719Y002273D02*
X007084Y002273D01*
X007084Y002194D02*
X009659Y002194D01*
X009585Y002116D02*
X007037Y002116D01*
X006874Y002037D02*
X009512Y002037D01*
X009438Y001959D02*
X006795Y001959D01*
X006717Y001880D02*
X009364Y001880D01*
X009290Y001802D02*
X006638Y001802D01*
X006560Y001723D02*
X009200Y001723D01*
X009110Y001645D02*
X006543Y001645D01*
X006543Y001566D02*
X009019Y001566D01*
X008929Y001488D02*
X006543Y001488D01*
X006543Y001409D02*
X008828Y001409D01*
X008717Y001331D02*
X006543Y001331D01*
X006543Y001252D02*
X008605Y001252D01*
X008494Y001174D02*
X006543Y001174D01*
X006543Y001095D02*
X008367Y001095D01*
X008227Y001017D02*
X006543Y001017D01*
X006543Y000938D02*
X008088Y000938D01*
X007940Y000860D02*
X006543Y000860D01*
X006543Y000781D02*
X007760Y000781D01*
X007580Y000703D02*
X006543Y000703D01*
X006543Y000624D02*
X007370Y000624D01*
X007124Y000546D02*
X006543Y000546D01*
X006543Y000467D02*
X006832Y000467D01*
D13*
X007487Y001046D03*
X008262Y001454D03*
X009036Y002065D03*
X009413Y002617D03*
X008833Y002833D03*
X007956Y003204D03*
X006894Y002241D03*
X006264Y003313D03*
X005204Y003153D03*
X004899Y002942D03*
X004530Y003055D03*
X004597Y003341D03*
X004899Y003372D03*
X004824Y003642D03*
X005216Y003615D03*
X004205Y003552D03*
X004159Y003212D03*
X003810Y003055D03*
X004124Y002789D03*
X004617Y002479D03*
X004492Y001861D03*
X003835Y001724D03*
X003269Y002177D03*
X003352Y002785D03*
X003226Y003157D03*
X003688Y003556D03*
X003163Y004010D03*
X003158Y004945D03*
X003593Y004950D03*
X003570Y005835D03*
X003570Y006036D03*
X003570Y006237D03*
X003570Y006449D03*
X003570Y006669D03*
X003570Y006912D03*
X003570Y007139D03*
X003570Y007374D03*
X003339Y007374D03*
X003096Y007374D03*
X002846Y007374D03*
X002630Y007374D03*
X002410Y007374D03*
X002179Y007374D03*
X001966Y007374D03*
X001754Y007374D03*
X001456Y007567D03*
X001173Y007581D03*
X000905Y007603D03*
X001598Y008219D03*
X002311Y008922D03*
X002800Y008137D03*
X003993Y007474D03*
X005183Y006784D03*
X005859Y007517D03*
X005327Y008147D03*
X005238Y008729D03*
X004724Y008788D03*
X004237Y009167D03*
X004145Y009900D03*
X003167Y009513D03*
X006229Y008635D03*
X007333Y008091D03*
X007805Y008694D03*
X008201Y009197D03*
X008941Y008432D03*
X009353Y008030D03*
X009156Y006872D03*
X008888Y005961D03*
X008604Y005468D03*
X008117Y005961D03*
X007473Y004885D03*
X006789Y005212D03*
X006198Y005667D03*
X006408Y006058D03*
X006003Y005266D03*
X005117Y005448D03*
X002678Y002850D03*
X002117Y003604D03*
X001467Y004198D03*
X001415Y004504D03*
X001009Y004532D03*
X000828Y004249D03*
X000658Y004539D03*
X000572Y004811D03*
X000934Y004985D03*
X001229Y004985D03*
X001544Y004985D03*
X001859Y004985D03*
X002143Y004985D03*
X002286Y004504D03*
X002018Y004329D03*
X001292Y003522D03*
X001628Y002778D03*
X002270Y002075D03*
X003106Y001351D03*
X003839Y000913D03*
X009808Y003219D03*
X006846Y009788D03*
D14*
X006894Y002241D02*
X005934Y001281D01*
X005694Y001281D01*
X005656Y001276D01*
X005694Y001281D01*
M02*
