G75*
G70*
%OFA0B0*%
%FSLAX24Y24*%
%IPPOS*%
%LPD*%
%AMOC8*
5,1,8,0,0,1.08239X$1,22.5*
%
%ADD10C,0.0060*%
%ADD11C,0.0050*%
%ADD12C,0.0080*%
%ADD13C,0.0160*%
D10*
X004231Y001089D02*
X004337Y000983D01*
X004551Y000983D01*
X004658Y001089D01*
X004658Y001516D01*
X004551Y001623D01*
X004337Y001623D01*
X004231Y001516D01*
X004231Y001089D01*
X004875Y000983D02*
X005089Y000983D01*
X004982Y000983D02*
X004982Y001623D01*
X004875Y001623D01*
X005305Y001410D02*
X005518Y001410D01*
X005412Y001516D02*
X005412Y001089D01*
X005518Y000983D01*
X005735Y000983D02*
X005948Y000983D01*
X005841Y000983D02*
X005841Y001410D01*
X005735Y001410D01*
X005841Y001623D02*
X005841Y001730D01*
X006164Y001303D02*
X006164Y001089D01*
X006271Y000983D01*
X006591Y000983D01*
X006809Y001089D02*
X006916Y001196D01*
X007236Y001196D01*
X007236Y001303D02*
X007236Y000983D01*
X006916Y000983D01*
X006809Y001089D01*
X006916Y001410D02*
X007129Y001410D01*
X007236Y001303D01*
X006591Y001410D02*
X006271Y001410D01*
X006164Y001303D01*
X006023Y009526D02*
X006343Y009526D01*
X006561Y009632D02*
X006668Y009526D01*
X006881Y009526D01*
X006988Y009632D01*
X006988Y009846D01*
X006881Y009953D01*
X006668Y009953D01*
X006561Y009846D01*
X006561Y009632D01*
X006343Y009953D02*
X006023Y009953D01*
X005916Y009846D01*
X005916Y009632D01*
X006023Y009526D01*
X005699Y009526D02*
X005699Y009846D01*
X005592Y009953D01*
X005379Y009953D01*
X005379Y009739D02*
X005699Y009739D01*
X005699Y009526D02*
X005379Y009526D01*
X005272Y009632D01*
X005379Y009739D01*
X005054Y009739D02*
X004627Y009739D01*
X004627Y009632D02*
X004627Y009846D01*
X004734Y009953D01*
X004947Y009953D01*
X005054Y009846D01*
X005054Y009739D01*
X004947Y009526D02*
X004734Y009526D01*
X004627Y009632D01*
X004410Y009632D02*
X004303Y009526D01*
X003983Y009526D01*
X003983Y010166D01*
X004303Y010166D01*
X004410Y010059D01*
X004410Y009953D01*
X004303Y009846D01*
X003983Y009846D01*
X004303Y009846D02*
X004410Y009739D01*
X004410Y009632D01*
X007205Y009526D02*
X007205Y009953D01*
X007526Y009953D01*
X007632Y009846D01*
X007632Y009526D01*
D11*
X004078Y007220D02*
X004078Y004070D01*
X009984Y004070D01*
X009984Y007220D01*
X004078Y007220D01*
D12*
X001527Y006836D02*
X001527Y005736D01*
X000827Y005736D02*
X000827Y006836D01*
D13*
X002581Y005194D02*
X002605Y005194D01*
M02*
