G75*
G70*
%OFA0B0*%
%FSLAX24Y24*%
%IPPOS*%
%LPD*%
%AMOC8*
5,1,8,0,0,1.08239X$1,22.5*
%
%ADD10C,0.0394*%
%ADD11C,0.0060*%
%ADD12C,0.0180*%
%ADD13C,0.0160*%
D10*
X000680Y001800D03*
X000680Y002300D03*
X000680Y002800D03*
D11*
X006880Y002800D01*
X008280Y002600D02*
X000980Y002600D01*
X000680Y002300D01*
D12*
X002270Y002240D03*
X002250Y001230D03*
X005720Y001470D03*
X008280Y002600D03*
X006880Y002800D03*
X005600Y003410D03*
X002400Y003550D03*
X001890Y003550D03*
X009520Y003780D03*
X009500Y000750D03*
D13*
X000340Y000460D02*
X000340Y004077D01*
X009831Y004077D01*
X009831Y000460D01*
X000340Y000460D01*
X000340Y000617D02*
X009831Y000617D01*
X009831Y000776D02*
X000340Y000776D01*
X000340Y000934D02*
X009831Y000934D01*
X009831Y001093D02*
X000340Y001093D01*
X000340Y001251D02*
X009831Y001251D01*
X009831Y001410D02*
X000340Y001410D01*
X000489Y001514D02*
X000613Y001463D01*
X000747Y001463D01*
X000871Y001514D01*
X000966Y001609D01*
X001017Y001733D01*
X001017Y001867D01*
X000966Y001991D01*
X000906Y002050D01*
X000966Y002109D01*
X001017Y002233D01*
X001017Y002367D01*
X001008Y002388D01*
X001050Y002430D01*
X008125Y002430D01*
X008185Y002370D01*
X008375Y002370D01*
X008510Y002505D01*
X008510Y002695D01*
X008375Y002830D01*
X008185Y002830D01*
X008125Y002770D01*
X007110Y002770D01*
X007110Y002895D01*
X006975Y003030D01*
X006785Y003030D01*
X006725Y002970D01*
X000974Y002970D01*
X000966Y002991D01*
X000871Y003086D01*
X000747Y003137D01*
X000613Y003137D01*
X000489Y003086D01*
X000394Y002991D01*
X000343Y002867D01*
X000343Y002733D01*
X000394Y002609D01*
X000454Y002550D01*
X000394Y002491D01*
X000343Y002367D01*
X000343Y002233D01*
X000394Y002109D01*
X000454Y002050D01*
X000394Y001991D01*
X000343Y001867D01*
X000343Y001733D01*
X000394Y001609D01*
X000489Y001514D01*
X000436Y001568D02*
X000340Y001568D01*
X000340Y001727D02*
X000346Y001727D01*
X000340Y001885D02*
X000351Y001885D01*
X000340Y002044D02*
X000447Y002044D01*
X000356Y002202D02*
X000340Y002202D01*
X000340Y002361D02*
X000343Y002361D01*
X000340Y002519D02*
X000423Y002519D01*
X000366Y002678D02*
X000340Y002678D01*
X000340Y002836D02*
X000343Y002836D01*
X000340Y002995D02*
X000398Y002995D01*
X000340Y003153D02*
X009831Y003153D01*
X009831Y003312D02*
X000340Y003312D01*
X000340Y003470D02*
X009831Y003470D01*
X009831Y003629D02*
X000340Y003629D01*
X000340Y003787D02*
X009831Y003787D01*
X009831Y003946D02*
X000340Y003946D01*
X000962Y002995D02*
X006749Y002995D01*
X007011Y002995D02*
X009831Y002995D01*
X009831Y002836D02*
X007110Y002836D01*
X008510Y002678D02*
X009831Y002678D01*
X009831Y002519D02*
X008510Y002519D01*
X009831Y002361D02*
X001017Y002361D01*
X001004Y002202D02*
X009831Y002202D01*
X009831Y002044D02*
X000913Y002044D01*
X001009Y001885D02*
X009831Y001885D01*
X009831Y001727D02*
X001014Y001727D01*
X000924Y001568D02*
X009831Y001568D01*
M02*
