G75*
G70*
%OFA0B0*%
%FSLAX24Y24*%
%IPPOS*%
%LPD*%
%AMOC8*
5,1,8,0,0,1.08239X$1,22.5*
%
%ADD10C,0.0000*%
%ADD11C,0.0394*%
%ADD12R,0.0807X0.0299*%
%ADD13R,0.0276X0.0354*%
%ADD14C,0.0060*%
%ADD15C,0.0180*%
%ADD16C,0.0160*%
D10*
X000180Y000300D02*
X000180Y004237D01*
X009991Y004237D01*
X009991Y000300D01*
X000180Y000300D01*
D11*
X000680Y001800D03*
X000680Y002300D03*
X000680Y002800D03*
D12*
X007479Y002800D03*
X007479Y002300D03*
X007479Y001800D03*
X007479Y001300D03*
X008881Y001300D03*
X008881Y001800D03*
X008881Y002300D03*
X008881Y002800D03*
X008881Y003300D03*
X007479Y003300D03*
D13*
X004936Y001800D03*
X004424Y001800D03*
X004424Y000957D03*
X004936Y000957D03*
D14*
X004980Y000900D01*
X007980Y000900D01*
X007980Y001600D01*
X007780Y001800D01*
X007480Y001800D01*
X007479Y001800D01*
X007479Y001300D02*
X007380Y001300D01*
X006680Y001300D01*
X006680Y003600D01*
X006980Y003900D01*
X008880Y003900D01*
X008880Y003300D01*
X008881Y003300D01*
X008880Y002800D02*
X008480Y002800D01*
X008280Y002600D01*
X008880Y002800D02*
X008881Y002800D01*
X007479Y002800D02*
X007380Y002800D01*
X006880Y002800D01*
X004980Y001800D02*
X004936Y001800D01*
X004980Y001800D02*
X004980Y001000D01*
X004936Y000957D01*
X004424Y001800D02*
X004380Y001800D01*
X000680Y001800D01*
D15*
X002270Y002240D03*
X002250Y001230D03*
X005720Y001470D03*
X008280Y002600D03*
X006880Y002800D03*
X005600Y003410D03*
X002400Y003550D03*
X001890Y003550D03*
X009520Y003780D03*
X009500Y000750D03*
D16*
X009831Y000776D02*
X008096Y000776D01*
X008050Y000730D02*
X008150Y000830D01*
X008150Y001670D01*
X008023Y001798D01*
X008023Y002008D01*
X007980Y002050D01*
X008023Y002092D01*
X008023Y002508D01*
X007980Y002550D01*
X008023Y002592D01*
X008023Y003008D01*
X008009Y003022D01*
X008027Y003040D01*
X008050Y003081D01*
X008063Y003127D01*
X008063Y003300D01*
X008063Y003473D01*
X008050Y003519D01*
X008027Y003560D01*
X007993Y003594D01*
X007952Y003617D01*
X007906Y003630D01*
X007479Y003630D01*
X007052Y003630D01*
X007006Y003617D01*
X006965Y003594D01*
X006932Y003560D01*
X006908Y003519D01*
X006896Y003473D01*
X006896Y003300D01*
X006896Y003127D01*
X006908Y003081D01*
X006932Y003040D01*
X006942Y003030D01*
X006850Y003030D01*
X006850Y003530D01*
X007050Y003730D01*
X008710Y003730D01*
X008710Y003590D01*
X008419Y003590D01*
X008337Y003508D01*
X008337Y003092D01*
X008380Y003050D01*
X008337Y003008D01*
X008337Y002898D01*
X008310Y002870D01*
X008270Y002830D01*
X008185Y002830D01*
X008050Y002695D01*
X008050Y002505D01*
X008185Y002370D01*
X008337Y002370D01*
X008337Y002092D01*
X008380Y002050D01*
X008337Y002008D01*
X008337Y001592D01*
X008380Y001550D01*
X008337Y001508D01*
X008337Y001092D01*
X008419Y001010D01*
X009342Y001010D01*
X009424Y001092D01*
X009424Y001508D01*
X009382Y001550D01*
X009424Y001592D01*
X009424Y002008D01*
X009382Y002050D01*
X009424Y002092D01*
X009424Y002508D01*
X009382Y002550D01*
X009424Y002592D01*
X009424Y003008D01*
X009382Y003050D01*
X009424Y003092D01*
X009424Y003508D01*
X009342Y003590D01*
X009050Y003590D01*
X009050Y003970D01*
X008950Y004070D01*
X006910Y004070D01*
X006810Y003970D01*
X006510Y003670D01*
X006510Y001230D01*
X006610Y001130D01*
X006936Y001130D01*
X006936Y001092D01*
X006958Y001070D01*
X005214Y001070D01*
X005214Y001193D01*
X005150Y001256D01*
X005150Y001501D01*
X005214Y001565D01*
X005214Y002035D01*
X005132Y002117D01*
X004740Y002117D01*
X004680Y002057D01*
X004620Y002117D01*
X004228Y002117D01*
X004146Y002035D01*
X004146Y001970D01*
X000974Y001970D01*
X000966Y001991D01*
X000906Y002050D01*
X000966Y002109D01*
X001017Y002233D01*
X001017Y002367D01*
X000966Y002491D01*
X000906Y002550D01*
X000966Y002609D01*
X001017Y002733D01*
X001017Y002867D01*
X000966Y002991D01*
X000871Y003086D01*
X000747Y003137D01*
X000613Y003137D01*
X000489Y003086D01*
X000394Y002991D01*
X000343Y002867D01*
X000343Y002733D01*
X000394Y002609D01*
X000454Y002550D01*
X000394Y002491D01*
X000343Y002367D01*
X000343Y002233D01*
X000394Y002109D01*
X000454Y002050D01*
X000394Y001991D01*
X000343Y001867D01*
X000343Y001733D01*
X000394Y001609D01*
X000489Y001514D01*
X000613Y001463D01*
X000747Y001463D01*
X000871Y001514D01*
X000966Y001609D01*
X000974Y001630D01*
X004146Y001630D01*
X004146Y001565D01*
X004228Y001483D01*
X004620Y001483D01*
X004680Y001543D01*
X004740Y001483D01*
X004810Y001483D01*
X004810Y001275D01*
X004740Y001275D01*
X004708Y001242D01*
X004706Y001245D01*
X004672Y001279D01*
X004631Y001302D01*
X004586Y001315D01*
X004424Y001315D01*
X004263Y001315D01*
X004217Y001302D01*
X004176Y001279D01*
X004142Y001245D01*
X004119Y001204D01*
X004106Y001158D01*
X004106Y000957D01*
X004106Y000757D01*
X004119Y000711D01*
X004142Y000670D01*
X004176Y000636D01*
X004217Y000613D01*
X004263Y000600D01*
X004424Y000600D01*
X004424Y000957D01*
X004424Y000957D01*
X004424Y000600D01*
X004586Y000600D01*
X004631Y000613D01*
X004672Y000636D01*
X004706Y000670D01*
X004708Y000673D01*
X004740Y000640D01*
X005132Y000640D01*
X005214Y000722D01*
X005214Y000730D01*
X008050Y000730D01*
X008150Y000934D02*
X009831Y000934D01*
X009831Y001093D02*
X009424Y001093D01*
X009424Y001251D02*
X009831Y001251D01*
X009831Y001410D02*
X009424Y001410D01*
X009400Y001568D02*
X009831Y001568D01*
X009831Y001727D02*
X009424Y001727D01*
X009424Y001885D02*
X009831Y001885D01*
X009831Y002044D02*
X009388Y002044D01*
X009424Y002202D02*
X009831Y002202D01*
X009831Y002361D02*
X009424Y002361D01*
X009413Y002519D02*
X009831Y002519D01*
X009831Y002678D02*
X009424Y002678D01*
X009424Y002836D02*
X009831Y002836D01*
X009831Y002995D02*
X009424Y002995D01*
X009424Y003153D02*
X009831Y003153D01*
X009831Y003312D02*
X009424Y003312D01*
X009424Y003470D02*
X009831Y003470D01*
X009831Y003629D02*
X009050Y003629D01*
X009050Y003787D02*
X009831Y003787D01*
X009831Y003946D02*
X009050Y003946D01*
X008710Y003629D02*
X007911Y003629D01*
X008063Y003470D02*
X008337Y003470D01*
X008337Y003312D02*
X008063Y003312D01*
X008063Y003300D02*
X007479Y003300D01*
X006896Y003300D01*
X007479Y003300D01*
X007479Y003300D01*
X007479Y003630D01*
X007479Y003300D01*
X007479Y003300D01*
X007479Y003300D01*
X008063Y003300D01*
X008063Y003153D02*
X008337Y003153D01*
X008337Y002995D02*
X008023Y002995D01*
X008023Y002836D02*
X008276Y002836D01*
X008050Y002678D02*
X008023Y002678D01*
X008011Y002519D02*
X008050Y002519D01*
X008023Y002361D02*
X008337Y002361D01*
X008337Y002202D02*
X008023Y002202D01*
X007987Y002044D02*
X008373Y002044D01*
X008337Y001885D02*
X008023Y001885D01*
X008094Y001727D02*
X008337Y001727D01*
X008362Y001568D02*
X008150Y001568D01*
X008150Y001410D02*
X008337Y001410D01*
X008337Y001251D02*
X008150Y001251D01*
X008150Y001093D02*
X008337Y001093D01*
X006936Y001093D02*
X005214Y001093D01*
X005155Y001251D02*
X006510Y001251D01*
X006510Y001410D02*
X005150Y001410D01*
X004810Y001410D02*
X000340Y001410D01*
X000340Y001251D02*
X004148Y001251D01*
X004424Y001251D02*
X004424Y001251D01*
X004424Y001315D02*
X004424Y000957D01*
X004106Y000957D01*
X004424Y000957D01*
X004424Y000957D01*
X004424Y000957D01*
X004424Y001315D01*
X004700Y001251D02*
X004716Y001251D01*
X004424Y001093D02*
X004424Y001093D01*
X004424Y000934D02*
X004424Y000934D01*
X004106Y000934D02*
X000340Y000934D01*
X000340Y001093D02*
X004106Y001093D01*
X004106Y000776D02*
X000340Y000776D01*
X000340Y000617D02*
X004209Y000617D01*
X004424Y000617D02*
X004424Y000617D01*
X004639Y000617D02*
X009831Y000617D01*
X009831Y000460D02*
X000340Y000460D01*
X000340Y004077D01*
X009831Y004077D01*
X009831Y000460D01*
X006510Y001568D02*
X005214Y001568D01*
X005214Y001727D02*
X006510Y001727D01*
X006510Y001885D02*
X005214Y001885D01*
X005205Y002044D02*
X006510Y002044D01*
X006510Y002202D02*
X001004Y002202D01*
X001017Y002361D02*
X006510Y002361D01*
X006510Y002519D02*
X000937Y002519D01*
X000994Y002678D02*
X006510Y002678D01*
X006510Y002836D02*
X001017Y002836D01*
X000962Y002995D02*
X006510Y002995D01*
X006510Y003153D02*
X000340Y003153D01*
X000340Y003312D02*
X006510Y003312D01*
X006510Y003470D02*
X000340Y003470D01*
X000340Y003629D02*
X006510Y003629D01*
X006627Y003787D02*
X000340Y003787D01*
X000340Y003946D02*
X006785Y003946D01*
X006949Y003629D02*
X007048Y003629D01*
X006896Y003470D02*
X006850Y003470D01*
X006850Y003312D02*
X006896Y003312D01*
X006896Y003153D02*
X006850Y003153D01*
X007479Y003312D02*
X007479Y003312D01*
X007479Y003470D02*
X007479Y003470D01*
X007479Y003629D02*
X007479Y003629D01*
X004155Y002044D02*
X000913Y002044D01*
X000447Y002044D02*
X000340Y002044D01*
X000340Y001885D02*
X000351Y001885D01*
X000340Y001727D02*
X000346Y001727D01*
X000340Y001568D02*
X000436Y001568D01*
X000924Y001568D02*
X004146Y001568D01*
X004424Y000776D02*
X004424Y000776D01*
X000356Y002202D02*
X000340Y002202D01*
X000340Y002361D02*
X000343Y002361D01*
X000340Y002519D02*
X000423Y002519D01*
X000366Y002678D02*
X000340Y002678D01*
X000340Y002836D02*
X000343Y002836D01*
X000340Y002995D02*
X000398Y002995D01*
M02*
