G75*
G70*
%OFA0B0*%
%FSLAX24Y24*%
%IPPOS*%
%LPD*%
%AMOC8*
5,1,8,0,0,1.08239X$1,22.5*
%
%ADD10C,0.0157*%
%ADD11R,0.0276X0.0157*%
%ADD12R,0.0157X0.0276*%
%ADD13R,0.1594X0.1594*%
%ADD14R,0.0414X0.0336*%
%ADD15R,0.0336X0.0414*%
%ADD16R,0.0512X0.0472*%
%ADD17C,0.0020*%
%ADD18R,0.0336X0.0611*%
%ADD19R,0.0198X0.0454*%
%ADD20C,0.0454*%
%ADD21R,0.0316X0.0454*%
%ADD22R,0.0690X0.0454*%
%ADD23C,0.0240*%
%ADD24C,0.0260*%
D10*
X004962Y005139D03*
X005139Y004962D03*
X005336Y004962D03*
X005533Y004962D03*
X005730Y004962D03*
X005927Y004962D03*
X006124Y004962D03*
X006320Y004962D03*
X006517Y004962D03*
X006714Y004962D03*
X006911Y004962D03*
X007088Y005139D03*
X007088Y005336D03*
X007088Y005533D03*
X007088Y005730D03*
X007088Y005927D03*
X007088Y006124D03*
X007088Y006320D03*
X007088Y006517D03*
X007088Y006714D03*
X007088Y006911D03*
X006911Y007088D03*
X006714Y007088D03*
X006517Y007088D03*
X006320Y007088D03*
X006124Y007088D03*
X005927Y007088D03*
X005730Y007088D03*
X005533Y007088D03*
X005336Y007088D03*
X005139Y007088D03*
X004962Y006911D03*
X004962Y006714D03*
X004962Y006517D03*
X004962Y006320D03*
X004962Y006124D03*
X004962Y005927D03*
X004962Y005730D03*
X004962Y005533D03*
X004962Y005336D03*
D11*
X004824Y005336D03*
X004824Y005533D03*
X004824Y005730D03*
X004824Y005927D03*
X004824Y006124D03*
X004824Y006320D03*
X004824Y006517D03*
X004824Y006714D03*
X004824Y006911D03*
X004824Y005139D03*
X007226Y005139D03*
X007226Y005336D03*
X007226Y005533D03*
X007226Y005730D03*
X007226Y005927D03*
X007226Y006124D03*
X007226Y006320D03*
X007226Y006517D03*
X007226Y006714D03*
X007226Y006911D03*
D12*
X006911Y007226D03*
X006714Y007226D03*
X006517Y007226D03*
X006320Y007226D03*
X006124Y007226D03*
X005927Y007226D03*
X005730Y007226D03*
X005533Y007226D03*
X005336Y007226D03*
X005139Y007226D03*
X005139Y004824D03*
X005336Y004824D03*
X005533Y004824D03*
X005730Y004824D03*
X005927Y004824D03*
X006124Y004824D03*
X006320Y004824D03*
X006517Y004824D03*
X006714Y004824D03*
X006911Y004824D03*
D13*
X006025Y006025D03*
D14*
X003076Y006277D03*
X003076Y005765D03*
X002368Y005765D03*
X002368Y006277D03*
X002773Y009683D03*
X002773Y010194D03*
X003517Y010206D03*
X003517Y009694D03*
X004269Y009683D03*
X004269Y010194D03*
X005037Y010198D03*
X005037Y009687D03*
X007104Y009687D03*
X007104Y010198D03*
X007899Y010202D03*
X007899Y009691D03*
X008628Y009694D03*
X008628Y010206D03*
X009348Y010183D03*
X009348Y009671D03*
X010088Y009588D03*
X010088Y009076D03*
D15*
X006076Y008679D03*
X005565Y008679D03*
X005557Y008061D03*
X006069Y008061D03*
X004561Y004285D03*
X004049Y004285D03*
X004065Y003608D03*
X004576Y003608D03*
X006246Y003608D03*
X006757Y003608D03*
D16*
X003734Y008104D03*
X003734Y008655D03*
X004403Y008655D03*
D17*
X004285Y008330D02*
X004649Y008330D01*
X004649Y007878D01*
X004157Y007878D01*
X004157Y008202D01*
X004285Y008330D01*
X004274Y008319D02*
X004649Y008319D01*
X004649Y008301D02*
X004255Y008301D01*
X004237Y008282D02*
X004649Y008282D01*
X004649Y008264D02*
X004218Y008264D01*
X004200Y008245D02*
X004649Y008245D01*
X004649Y008227D02*
X004181Y008227D01*
X004163Y008208D02*
X004649Y008208D01*
X004649Y008190D02*
X004157Y008190D01*
X004157Y008171D02*
X004649Y008171D01*
X004649Y008153D02*
X004157Y008153D01*
X004157Y008134D02*
X004649Y008134D01*
X004649Y008116D02*
X004157Y008116D01*
X004157Y008097D02*
X004649Y008097D01*
X004649Y008079D02*
X004157Y008079D01*
X004157Y008060D02*
X004649Y008060D01*
X004649Y008042D02*
X004157Y008042D01*
X004157Y008023D02*
X004649Y008023D01*
X004649Y008005D02*
X004157Y008005D01*
X004157Y007986D02*
X004649Y007986D01*
X004649Y007968D02*
X004157Y007968D01*
X004157Y007949D02*
X004649Y007949D01*
X004649Y007931D02*
X004157Y007931D01*
X004157Y007912D02*
X004649Y007912D01*
X004649Y007894D02*
X004157Y007894D01*
D18*
X005104Y003608D03*
X005773Y003608D03*
D19*
X004116Y005771D03*
X003860Y005771D03*
X003604Y005771D03*
X003604Y006460D03*
X003860Y006460D03*
X004116Y006460D03*
D20*
X011403Y006525D03*
X011403Y006025D03*
X011403Y005525D03*
D21*
X001124Y006273D03*
X000730Y006273D03*
D22*
X000946Y007915D03*
D23*
X003328Y002261D03*
X001777Y003935D03*
X001427Y004529D03*
X002021Y004726D03*
X001647Y005222D03*
X001876Y005773D03*
X001876Y005994D03*
X001691Y005994D03*
X001513Y005994D03*
X001525Y005785D03*
X001301Y005789D03*
X001096Y005789D03*
X000891Y005793D03*
X000895Y005596D03*
X000647Y005785D03*
X002663Y004395D03*
X003002Y004966D03*
X003907Y007277D03*
X004328Y007289D03*
X005006Y008403D03*
X004820Y009222D03*
X006021Y010029D03*
X006679Y008809D03*
X008289Y008120D03*
X009041Y007844D03*
X009356Y007135D03*
X008667Y006616D03*
X008844Y005797D03*
X009856Y005124D03*
X010171Y005561D03*
X011462Y004824D03*
X010037Y003911D03*
X008789Y003876D03*
X008726Y004738D03*
X008580Y002643D03*
X010868Y007765D03*
X009998Y007844D03*
X007817Y010923D03*
X007490Y011120D03*
X007261Y010852D03*
X004880Y011301D03*
X004643Y010797D03*
X003616Y010864D03*
X002765Y008328D03*
X002521Y008317D03*
X002309Y008305D03*
X002100Y008301D03*
X001899Y008301D03*
X001679Y008301D03*
X001458Y008289D03*
D24*
X004105Y007705D03*
X005005Y007525D03*
X005245Y007705D03*
X005365Y009025D03*
X004765Y008965D03*
X004345Y003145D03*
M02*
