%
M48
M72
T01C0.0040
T02C0.0060
T03C0.0118
T04C0.0200
%
T01
X3328Y2261
X1777Y3935
X1427Y4529
X2021Y4726
X1647Y5222
X1876Y5773
X1876Y5994
X1691Y5994
X1513Y5994
X1525Y5785
X1301Y5789
X1096Y5789
X891Y5793
X895Y5596
X647Y5785
X2663Y4395
X3002Y4966
X3907Y7277
X4328Y7289
X5006Y8403
X4820Y9222
X6021Y10029
X6679Y8809
X8289Y8120
X9041Y7844
X9356Y7135
X8667Y6616
X8844Y5797
X9856Y5124
X10171Y5561
X11462Y4824
X10037Y3911
X8789Y3876
X8726Y4738
X8580Y2643
X10868Y7765
X9998Y7844
X7817Y10923
X7490Y11120
X7261Y10852
X4880Y11301
X4643Y10797
X3616Y10864
X2765Y8328
X2521Y8317
X2309Y8305
X2100Y8301
X1899Y8301
X1679Y8301
X1458Y8289
T02
X4105Y7705
X5005Y7525
X5245Y7705
X5365Y9025
X4765Y8965
X4345Y3145
T03
X5425Y5425
X5828Y5425
X6222Y5425
X6626Y5425
X6626Y5838
X6626Y6212
X6222Y6212
X6222Y5838
X5828Y5838
X5828Y6212
X5425Y6212
X5425Y5838
X5425Y6626
X5828Y6626
X6222Y6626
X6626Y6626
T04
X11403Y6525
X11403Y6025
X11403Y5525
M30
