G75*
G70*
%OFA0B0*%
%FSLAX24Y24*%
%IPPOS*%
%LPD*%
%AMOC8*
5,1,8,0,0,1.08239X$1,22.5*
%
%ADD10C,0.0039*%
%ADD11R,0.0433X0.0433*%
%ADD12C,0.0110*%
%ADD13R,0.0098X0.0098*%
%ADD14R,0.0354X0.0276*%
%ADD15R,0.0276X0.0354*%
%ADD16R,0.0472X0.0433*%
%ADD17R,0.0276X0.0551*%
%ADD18R,0.0138X0.0394*%
%ADD19C,0.0394*%
%ADD20R,0.0256X0.0394*%
%ADD21R,0.0630X0.0394*%
%ADD22C,0.0080*%
%ADD23C,0.0180*%
%ADD24C,0.0060*%
%ADD25C,0.0200*%
D10*
X000119Y006025D02*
X000126Y006315D01*
X000147Y006604D01*
X000183Y006892D01*
X000232Y007177D01*
X000296Y007460D01*
X000373Y007739D01*
X000464Y008015D01*
X000569Y008285D01*
X000686Y008550D01*
X000816Y008809D01*
X000959Y009061D01*
X001114Y009306D01*
X001281Y009543D01*
X001460Y009772D01*
X001649Y009991D01*
X001849Y010201D01*
X002059Y010401D01*
X002278Y010590D01*
X002507Y010769D01*
X002744Y010936D01*
X002989Y011091D01*
X003241Y011234D01*
X003500Y011364D01*
X003765Y011481D01*
X004035Y011586D01*
X004311Y011677D01*
X004590Y011754D01*
X004873Y011818D01*
X005158Y011867D01*
X005446Y011903D01*
X005735Y011924D01*
X006025Y011931D01*
X006315Y011924D01*
X006604Y011903D01*
X006892Y011867D01*
X007177Y011818D01*
X007460Y011754D01*
X007739Y011677D01*
X008015Y011586D01*
X008285Y011481D01*
X008550Y011364D01*
X008809Y011234D01*
X009061Y011091D01*
X009306Y010936D01*
X009543Y010769D01*
X009772Y010590D01*
X009991Y010401D01*
X010201Y010201D01*
X010401Y009991D01*
X010590Y009772D01*
X010769Y009543D01*
X010936Y009306D01*
X011091Y009061D01*
X011234Y008809D01*
X011364Y008550D01*
X011481Y008285D01*
X011586Y008015D01*
X011677Y007739D01*
X011754Y007460D01*
X011818Y007177D01*
X011867Y006892D01*
X011903Y006604D01*
X011924Y006315D01*
X011931Y006025D01*
X011924Y005735D01*
X011903Y005446D01*
X011867Y005158D01*
X011818Y004873D01*
X011754Y004590D01*
X011677Y004311D01*
X011586Y004035D01*
X011481Y003765D01*
X011364Y003500D01*
X011234Y003241D01*
X011091Y002989D01*
X010936Y002744D01*
X010769Y002507D01*
X010590Y002278D01*
X010401Y002059D01*
X010201Y001849D01*
X009991Y001649D01*
X009772Y001460D01*
X009543Y001281D01*
X009306Y001114D01*
X009061Y000959D01*
X008809Y000816D01*
X008550Y000686D01*
X008285Y000569D01*
X008015Y000464D01*
X007739Y000373D01*
X007460Y000296D01*
X007177Y000232D01*
X006892Y000183D01*
X006604Y000147D01*
X006315Y000126D01*
X006025Y000119D01*
X005735Y000126D01*
X005446Y000147D01*
X005158Y000183D01*
X004873Y000232D01*
X004590Y000296D01*
X004311Y000373D01*
X004035Y000464D01*
X003765Y000569D01*
X003500Y000686D01*
X003241Y000816D01*
X002989Y000959D01*
X002744Y001114D01*
X002507Y001281D01*
X002278Y001460D01*
X002059Y001649D01*
X001849Y001849D01*
X001649Y002059D01*
X001460Y002278D01*
X001281Y002507D01*
X001114Y002744D01*
X000959Y002989D01*
X000816Y003241D01*
X000686Y003500D01*
X000569Y003765D01*
X000464Y004035D01*
X000373Y004311D01*
X000296Y004590D01*
X000232Y004873D01*
X000183Y005158D01*
X000147Y005446D01*
X000126Y005735D01*
X000119Y006025D01*
D11*
X005425Y005838D03*
X005425Y006212D03*
X005828Y006212D03*
X005828Y005838D03*
X006222Y005838D03*
X006222Y006212D03*
X006626Y006212D03*
X006626Y005838D03*
X006626Y005425D03*
X006222Y005425D03*
X005828Y005425D03*
X005425Y005425D03*
X005425Y006626D03*
X005828Y006626D03*
X006222Y006626D03*
X006626Y006626D03*
D12*
X006714Y007084D02*
X006714Y007348D01*
X006517Y007348D02*
X006517Y007084D01*
X006320Y007084D02*
X006320Y007348D01*
X006124Y007348D02*
X006124Y007084D01*
X005927Y007084D02*
X005927Y007348D01*
X005730Y007348D02*
X005730Y007084D01*
X005533Y007084D02*
X005533Y007348D01*
X005336Y007348D02*
X005336Y007084D01*
X005139Y007084D02*
X005139Y007348D01*
X004966Y006911D02*
X004702Y006911D01*
X004702Y006714D02*
X004966Y006714D01*
X004966Y006517D02*
X004702Y006517D01*
X004702Y006320D02*
X004966Y006320D01*
X004966Y006124D02*
X004702Y006124D01*
X004702Y005927D02*
X004966Y005927D01*
X004966Y005730D02*
X004702Y005730D01*
X004702Y005533D02*
X004966Y005533D01*
X004966Y005336D02*
X004702Y005336D01*
X004702Y005139D02*
X004966Y005139D01*
X005139Y004966D02*
X005139Y004702D01*
X005336Y004702D02*
X005336Y004966D01*
X005533Y004966D02*
X005533Y004702D01*
X005730Y004702D02*
X005730Y004966D01*
X005927Y004966D02*
X005927Y004702D01*
X006124Y004702D02*
X006124Y004966D01*
X006320Y004966D02*
X006320Y004702D01*
X006517Y004702D02*
X006517Y004966D01*
X006714Y004966D02*
X006714Y004702D01*
X006911Y004702D02*
X006911Y004966D01*
X007084Y005139D02*
X007348Y005139D01*
X007348Y005336D02*
X007084Y005336D01*
X007084Y005533D02*
X007348Y005533D01*
X007348Y005730D02*
X007084Y005730D01*
X007084Y005927D02*
X007348Y005927D01*
X007348Y006124D02*
X007084Y006124D01*
X007084Y006320D02*
X007348Y006320D01*
X007348Y006517D02*
X007084Y006517D01*
X007084Y006714D02*
X007348Y006714D01*
X007348Y006911D02*
X007084Y006911D01*
X006911Y007084D02*
X006911Y007348D01*
D13*
X007157Y004893D03*
D14*
X003076Y005765D03*
X003076Y006277D03*
X002368Y006277D03*
X002368Y005765D03*
X002773Y009683D03*
X002773Y010194D03*
X003517Y010206D03*
X003517Y009694D03*
X004269Y009683D03*
X004269Y010194D03*
X005037Y010198D03*
X005037Y009687D03*
X007104Y009687D03*
X007104Y010198D03*
X007899Y010202D03*
X007899Y009691D03*
X008628Y009694D03*
X008628Y010206D03*
X009348Y010183D03*
X009348Y009671D03*
X010088Y009588D03*
X010088Y009076D03*
D15*
X006076Y008679D03*
X005565Y008679D03*
X005557Y008061D03*
X006069Y008061D03*
X004561Y004285D03*
X004049Y004285D03*
X004065Y003608D03*
X004576Y003608D03*
X006246Y003608D03*
X006757Y003608D03*
D16*
X004403Y008104D03*
X004403Y008655D03*
X003734Y008655D03*
X003734Y008104D03*
D17*
X005104Y003608D03*
X005773Y003608D03*
D18*
X004116Y005771D03*
X003860Y005771D03*
X003604Y005771D03*
X003604Y006460D03*
X003860Y006460D03*
X004116Y006460D03*
D19*
X011403Y006525D03*
X011403Y006025D03*
X011403Y005525D03*
D20*
X001124Y006273D03*
X000730Y006273D03*
D21*
X000946Y007915D03*
D22*
X001417Y002677D02*
X001998Y001998D01*
X002677Y001417D01*
X003439Y000950D01*
X004265Y000608D01*
X005134Y000399D01*
X006025Y000329D01*
X006916Y000399D01*
X007785Y000608D01*
X008611Y000950D01*
X009373Y001417D01*
X010053Y001998D01*
X010633Y002677D01*
X011100Y003439D01*
X011442Y004265D01*
X011651Y005134D01*
X011651Y005134D01*
X011672Y005398D01*
X011655Y005357D01*
X011571Y005274D01*
X011462Y005228D01*
X011344Y005228D01*
X011235Y005274D01*
X011195Y005313D01*
X011195Y004231D01*
X011119Y004155D01*
X006031Y004155D01*
X005955Y004231D01*
X005675Y004511D01*
X005675Y003983D01*
X005952Y003983D01*
X006011Y003925D01*
X006011Y003830D01*
X006066Y003885D01*
X006425Y003885D01*
X006483Y003826D01*
X006483Y003818D01*
X006489Y003839D01*
X006508Y003871D01*
X006534Y003897D01*
X006566Y003916D01*
X006601Y003925D01*
X006729Y003925D01*
X006729Y003637D01*
X006786Y003637D01*
X006786Y003925D01*
X006914Y003925D01*
X006949Y003916D01*
X006981Y003897D01*
X007007Y003871D01*
X007026Y003839D01*
X007035Y003803D01*
X007035Y003637D01*
X006786Y003637D01*
X006786Y003579D01*
X006786Y003291D01*
X006914Y003291D01*
X006949Y003300D01*
X006981Y003319D01*
X007007Y003345D01*
X007026Y003377D01*
X007035Y003412D01*
X007035Y003579D01*
X006786Y003579D01*
X006729Y003579D01*
X006729Y003291D01*
X006601Y003291D01*
X006566Y003300D01*
X006534Y003319D01*
X006508Y003345D01*
X006489Y003377D01*
X006483Y003398D01*
X006483Y003389D01*
X006425Y003331D01*
X006066Y003331D01*
X006011Y003386D01*
X006011Y003291D01*
X005952Y003232D01*
X005594Y003232D01*
X005535Y003291D01*
X005535Y003631D01*
X005425Y003741D01*
X005342Y003658D01*
X005342Y003291D01*
X005283Y003232D01*
X004925Y003232D01*
X004866Y003291D01*
X004866Y003495D01*
X004814Y003495D01*
X004814Y003389D01*
X004756Y003331D01*
X004475Y003331D01*
X004475Y003298D01*
X004545Y003228D01*
X004545Y003062D01*
X004428Y002945D01*
X004262Y002945D01*
X004145Y003062D01*
X004145Y003228D01*
X004208Y003291D01*
X004093Y003291D01*
X004093Y003579D01*
X004036Y003579D01*
X004036Y003291D01*
X003908Y003291D01*
X003873Y003300D01*
X003841Y003319D01*
X003815Y003345D01*
X003796Y003377D01*
X003787Y003412D01*
X003787Y003579D01*
X004036Y003579D01*
X004036Y003637D01*
X004036Y003925D01*
X003908Y003925D01*
X003873Y003915D01*
X003841Y003897D01*
X003815Y003871D01*
X003796Y003839D01*
X003787Y003803D01*
X003787Y003637D01*
X004036Y003637D01*
X004093Y003637D01*
X004093Y003925D01*
X004162Y003925D01*
X004155Y003931D01*
X004155Y003968D01*
X004078Y003968D01*
X004078Y004256D01*
X004020Y004256D01*
X004020Y003968D01*
X003893Y003968D01*
X003857Y003977D01*
X003825Y003996D01*
X003799Y004022D01*
X003781Y004054D01*
X003771Y004089D01*
X003771Y004256D01*
X004020Y004256D01*
X004020Y004314D01*
X004020Y004602D01*
X003893Y004602D01*
X003857Y004593D01*
X003825Y004574D01*
X003799Y004548D01*
X003781Y004516D01*
X003771Y004481D01*
X003771Y004314D01*
X004020Y004314D01*
X004078Y004314D01*
X004078Y004602D01*
X004155Y004602D01*
X004155Y004635D01*
X002731Y004635D01*
X002655Y004711D01*
X002655Y005540D01*
X002631Y005516D01*
X002599Y005497D01*
X002563Y005488D01*
X002397Y005488D01*
X002397Y005736D01*
X002339Y005736D01*
X002339Y005488D01*
X002172Y005488D01*
X002137Y005497D01*
X002105Y005516D01*
X002079Y005542D01*
X002060Y005574D01*
X002051Y005609D01*
X002051Y005736D01*
X002339Y005736D01*
X002339Y005794D01*
X002051Y005794D01*
X002051Y005922D01*
X002060Y005957D01*
X002079Y005989D01*
X002105Y006015D01*
X002137Y006034D01*
X002158Y006039D01*
X002149Y006039D01*
X002091Y006098D01*
X002091Y006114D01*
X001352Y006114D01*
X001352Y006035D01*
X001293Y005976D01*
X000956Y005976D01*
X000944Y005964D01*
X000912Y005946D01*
X000876Y005936D01*
X000754Y005936D01*
X000754Y006114D01*
X000706Y006114D01*
X000706Y005936D01*
X000584Y005936D01*
X000548Y005946D01*
X000516Y005964D01*
X000490Y005990D01*
X000472Y006022D01*
X000462Y006058D01*
X000462Y006249D01*
X000469Y006249D01*
X000469Y006297D01*
X000462Y006297D01*
X000462Y006489D01*
X000469Y006514D01*
X000469Y007205D01*
X000399Y006916D01*
X000329Y006025D01*
X000399Y005134D01*
X000608Y004265D01*
X000950Y003439D01*
X001417Y002677D01*
X001441Y002650D02*
X010610Y002650D01*
X010664Y002728D02*
X001386Y002728D01*
X001338Y002807D02*
X010713Y002807D01*
X010761Y002885D02*
X001290Y002885D01*
X001242Y002964D02*
X004244Y002964D01*
X004165Y003042D02*
X001194Y003042D01*
X001145Y003121D02*
X004145Y003121D01*
X004145Y003199D02*
X001097Y003199D01*
X001049Y003278D02*
X004195Y003278D01*
X004093Y003356D02*
X004036Y003356D01*
X004036Y003435D02*
X004093Y003435D01*
X004093Y003513D02*
X004036Y003513D01*
X004036Y003592D02*
X000887Y003592D01*
X000855Y003670D02*
X003787Y003670D01*
X003787Y003749D02*
X000822Y003749D01*
X000790Y003827D02*
X003793Y003827D01*
X003856Y003906D02*
X000757Y003906D01*
X000724Y003984D02*
X003845Y003984D01*
X003778Y004063D02*
X000692Y004063D01*
X000659Y004141D02*
X003771Y004141D01*
X003771Y004220D02*
X000627Y004220D01*
X000600Y004298D02*
X004020Y004298D01*
X004020Y004220D02*
X004078Y004220D01*
X004078Y004141D02*
X004020Y004141D01*
X004020Y004063D02*
X004078Y004063D01*
X004078Y003984D02*
X004020Y003984D01*
X004036Y003906D02*
X004093Y003906D01*
X004093Y003827D02*
X004036Y003827D01*
X004036Y003749D02*
X004093Y003749D01*
X004093Y003670D02*
X004036Y003670D01*
X003787Y003513D02*
X000920Y003513D01*
X000953Y003435D02*
X003787Y003435D01*
X003808Y003356D02*
X001001Y003356D01*
X001508Y002571D02*
X010543Y002571D01*
X010476Y002493D02*
X001575Y002493D01*
X001642Y002414D02*
X010409Y002414D01*
X010341Y002336D02*
X001709Y002336D01*
X001776Y002257D02*
X010274Y002257D01*
X010207Y002179D02*
X001843Y002179D01*
X001910Y002100D02*
X010140Y002100D01*
X010073Y002022D02*
X001977Y002022D01*
X002061Y001943D02*
X009989Y001943D01*
X009897Y001865D02*
X002153Y001865D01*
X002245Y001786D02*
X009805Y001786D01*
X009713Y001708D02*
X002337Y001708D01*
X002429Y001629D02*
X009621Y001629D01*
X009529Y001551D02*
X002521Y001551D01*
X002613Y001472D02*
X009438Y001472D01*
X009335Y001394D02*
X002716Y001394D01*
X002844Y001315D02*
X009207Y001315D01*
X009079Y001237D02*
X002972Y001237D01*
X003100Y001158D02*
X008950Y001158D01*
X008822Y001080D02*
X003228Y001080D01*
X003356Y001001D02*
X008694Y001001D01*
X008545Y000923D02*
X003506Y000923D01*
X003695Y000844D02*
X008355Y000844D01*
X008166Y000766D02*
X003885Y000766D01*
X004074Y000687D02*
X007976Y000687D01*
X007787Y000609D02*
X004264Y000609D01*
X004590Y000530D02*
X007461Y000530D01*
X007134Y000452D02*
X004917Y000452D01*
X005469Y000373D02*
X006582Y000373D01*
X004447Y002964D02*
X010809Y002964D01*
X010857Y003042D02*
X004525Y003042D01*
X004545Y003121D02*
X010905Y003121D01*
X010953Y003199D02*
X004545Y003199D01*
X004496Y003278D02*
X004879Y003278D01*
X004866Y003356D02*
X004781Y003356D01*
X004814Y003435D02*
X004866Y003435D01*
X005342Y003435D02*
X005535Y003435D01*
X005535Y003513D02*
X005342Y003513D01*
X005342Y003592D02*
X005535Y003592D01*
X005496Y003670D02*
X005354Y003670D01*
X005342Y003356D02*
X005535Y003356D01*
X005549Y003278D02*
X005329Y003278D01*
X005998Y003278D02*
X011001Y003278D01*
X011049Y003356D02*
X007014Y003356D01*
X007035Y003435D02*
X011097Y003435D01*
X011131Y003513D02*
X007035Y003513D01*
X007035Y003670D02*
X011196Y003670D01*
X011163Y003592D02*
X006786Y003592D01*
X006786Y003670D02*
X006729Y003670D01*
X006729Y003749D02*
X006786Y003749D01*
X006786Y003827D02*
X006729Y003827D01*
X006729Y003906D02*
X006786Y003906D01*
X006966Y003906D02*
X011293Y003906D01*
X011326Y003984D02*
X005675Y003984D01*
X005675Y004063D02*
X011358Y004063D01*
X011391Y004141D02*
X005675Y004141D01*
X005675Y004220D02*
X005967Y004220D01*
X005888Y004298D02*
X005675Y004298D01*
X005675Y004377D02*
X005810Y004377D01*
X005731Y004455D02*
X005675Y004455D01*
X006011Y003906D02*
X006549Y003906D01*
X006486Y003827D02*
X006483Y003827D01*
X006729Y003513D02*
X006786Y003513D01*
X006786Y003435D02*
X006729Y003435D01*
X006729Y003356D02*
X006786Y003356D01*
X006501Y003356D02*
X006450Y003356D01*
X006041Y003356D02*
X006011Y003356D01*
X007035Y003749D02*
X011228Y003749D01*
X011261Y003827D02*
X007029Y003827D01*
X007359Y004655D02*
X007655Y004951D01*
X007655Y008551D01*
X008561Y009457D01*
X008846Y009457D01*
X008905Y009515D01*
X008905Y009555D01*
X009071Y009555D01*
X009071Y009492D01*
X009129Y009433D01*
X009255Y009433D01*
X009255Y009031D01*
X009331Y008955D01*
X009435Y008955D01*
X009435Y004655D01*
X007359Y004655D01*
X007395Y004691D02*
X009435Y004691D01*
X009435Y004769D02*
X007473Y004769D01*
X007552Y004848D02*
X009435Y004848D01*
X009435Y004926D02*
X007630Y004926D01*
X007655Y005005D02*
X009435Y005005D01*
X009435Y005083D02*
X007655Y005083D01*
X007655Y005162D02*
X009435Y005162D01*
X009435Y005240D02*
X007655Y005240D01*
X007655Y005319D02*
X009435Y005319D01*
X009435Y005397D02*
X007655Y005397D01*
X007655Y005476D02*
X009435Y005476D01*
X009435Y005554D02*
X007655Y005554D01*
X007655Y005633D02*
X009435Y005633D01*
X009435Y005711D02*
X007655Y005711D01*
X007655Y005790D02*
X009435Y005790D01*
X009435Y005868D02*
X007655Y005868D01*
X007655Y005947D02*
X009435Y005947D01*
X009435Y006025D02*
X007655Y006025D01*
X007655Y006104D02*
X009435Y006104D01*
X009435Y006182D02*
X007655Y006182D01*
X007655Y006261D02*
X009435Y006261D01*
X009435Y006339D02*
X007655Y006339D01*
X007655Y006418D02*
X009435Y006418D01*
X009435Y006496D02*
X007655Y006496D01*
X007655Y006575D02*
X009435Y006575D01*
X009435Y006653D02*
X007655Y006653D01*
X007655Y006732D02*
X009435Y006732D01*
X009435Y006810D02*
X007655Y006810D01*
X007655Y006889D02*
X009435Y006889D01*
X009435Y006967D02*
X007655Y006967D01*
X007655Y007046D02*
X009435Y007046D01*
X009435Y007124D02*
X007655Y007124D01*
X007655Y007203D02*
X009435Y007203D01*
X009435Y007281D02*
X007655Y007281D01*
X007655Y007360D02*
X009435Y007360D01*
X009435Y007438D02*
X007655Y007438D01*
X007655Y007517D02*
X009435Y007517D01*
X009435Y007595D02*
X007655Y007595D01*
X007655Y007674D02*
X009435Y007674D01*
X009435Y007752D02*
X007655Y007752D01*
X007655Y007831D02*
X009435Y007831D01*
X009435Y007909D02*
X007655Y007909D01*
X007655Y007988D02*
X009435Y007988D01*
X009435Y008066D02*
X007655Y008066D01*
X007655Y008145D02*
X009435Y008145D01*
X009435Y008223D02*
X007655Y008223D01*
X007655Y008302D02*
X009435Y008302D01*
X009435Y008380D02*
X007655Y008380D01*
X007655Y008459D02*
X009435Y008459D01*
X009435Y008537D02*
X007655Y008537D01*
X007720Y008616D02*
X009435Y008616D01*
X009435Y008694D02*
X007798Y008694D01*
X007877Y008773D02*
X009435Y008773D01*
X009435Y008851D02*
X007955Y008851D01*
X008034Y008930D02*
X009435Y008930D01*
X009278Y009008D02*
X008112Y009008D01*
X008191Y009087D02*
X009255Y009087D01*
X009255Y009165D02*
X008269Y009165D01*
X008348Y009244D02*
X009255Y009244D01*
X009255Y009322D02*
X008426Y009322D01*
X008505Y009401D02*
X009255Y009401D01*
X009083Y009479D02*
X008869Y009479D01*
X009035Y009815D02*
X009035Y009919D01*
X008975Y009979D01*
X008936Y010018D01*
X008945Y010050D01*
X008945Y010177D01*
X008656Y010177D01*
X008656Y010235D01*
X008599Y010235D01*
X008599Y010484D01*
X008432Y010484D01*
X008396Y010475D01*
X008364Y010456D01*
X008338Y010430D01*
X008320Y010398D01*
X008310Y010363D01*
X008310Y010235D01*
X008599Y010235D01*
X008599Y010177D01*
X008310Y010177D01*
X008310Y010055D01*
X008216Y010055D01*
X008216Y010173D01*
X007928Y010173D01*
X007928Y010231D01*
X008216Y010231D01*
X008216Y010359D01*
X008207Y010394D01*
X008188Y010426D01*
X008162Y010452D01*
X008130Y010471D01*
X008095Y010480D01*
X007928Y010480D01*
X007928Y010231D01*
X007870Y010231D01*
X007870Y010173D01*
X007582Y010173D01*
X007582Y010046D01*
X007592Y010011D01*
X007610Y009979D01*
X007636Y009953D01*
X007668Y009934D01*
X007690Y009928D01*
X007681Y009928D01*
X007622Y009870D01*
X007622Y009815D01*
X007381Y009815D01*
X007381Y009866D01*
X007323Y009924D01*
X007314Y009924D01*
X007335Y009930D01*
X007367Y009949D01*
X007393Y009975D01*
X007412Y010007D01*
X007421Y010042D01*
X007421Y010170D01*
X007133Y010170D01*
X007133Y010227D01*
X007421Y010227D01*
X007421Y010355D01*
X007412Y010390D01*
X007393Y010422D01*
X007367Y010448D01*
X007335Y010467D01*
X007300Y010476D01*
X007133Y010476D01*
X007133Y010227D01*
X007075Y010227D01*
X007075Y010170D01*
X006787Y010170D01*
X006787Y010042D01*
X006796Y010007D01*
X006815Y009975D01*
X006841Y009949D01*
X006873Y009930D01*
X006894Y009924D01*
X006885Y009924D01*
X006827Y009866D01*
X006827Y009815D01*
X005314Y009815D01*
X005314Y009866D01*
X005256Y009924D01*
X005247Y009924D01*
X005268Y009930D01*
X005300Y009949D01*
X005326Y009975D01*
X005345Y010007D01*
X005354Y010042D01*
X005354Y010170D01*
X005066Y010170D01*
X005066Y010227D01*
X005354Y010227D01*
X005354Y010355D01*
X005345Y010390D01*
X005326Y010422D01*
X005300Y010448D01*
X005268Y010467D01*
X005233Y010476D01*
X005066Y010476D01*
X005066Y010227D01*
X005008Y010227D01*
X005008Y010170D01*
X004720Y010170D01*
X004720Y010042D01*
X004729Y010007D01*
X004748Y009975D01*
X004774Y009949D01*
X004806Y009930D01*
X004827Y009924D01*
X004818Y009924D01*
X004760Y009866D01*
X004760Y009815D01*
X004546Y009815D01*
X004546Y009862D01*
X004488Y009920D01*
X004479Y009920D01*
X004500Y009926D01*
X004532Y009945D01*
X004558Y009971D01*
X004577Y010003D01*
X004586Y010038D01*
X004586Y010166D01*
X004298Y010166D01*
X004298Y010223D01*
X004586Y010223D01*
X004586Y010351D01*
X004577Y010386D01*
X004558Y010418D01*
X004532Y010444D01*
X004500Y010463D01*
X004465Y010472D01*
X004298Y010472D01*
X004298Y010223D01*
X004240Y010223D01*
X004240Y010166D01*
X003952Y010166D01*
X003952Y010038D01*
X003962Y010003D01*
X003980Y009971D01*
X004006Y009945D01*
X004038Y009926D01*
X004060Y009920D01*
X004051Y009920D01*
X003992Y009862D01*
X003992Y009815D01*
X003794Y009815D01*
X003794Y009874D01*
X003736Y009932D01*
X003727Y009932D01*
X003749Y009938D01*
X003780Y009956D01*
X003807Y009983D01*
X003825Y010014D01*
X003834Y010050D01*
X003834Y010177D01*
X003546Y010177D01*
X003546Y010235D01*
X003488Y010235D01*
X003488Y010177D01*
X003200Y010177D01*
X003200Y010050D01*
X003210Y010014D01*
X003228Y009983D01*
X003254Y009956D01*
X003286Y009938D01*
X003308Y009932D01*
X003299Y009932D01*
X003240Y009874D01*
X003240Y009815D01*
X003050Y009815D01*
X003050Y009862D01*
X002992Y009920D01*
X002983Y009920D01*
X003004Y009926D01*
X003036Y009945D01*
X003062Y009971D01*
X003081Y010003D01*
X003090Y010038D01*
X003090Y010166D01*
X002802Y010166D01*
X002802Y010223D01*
X003090Y010223D01*
X003090Y010351D01*
X003081Y010386D01*
X003062Y010418D01*
X003036Y010444D01*
X003004Y010463D01*
X002969Y010472D01*
X002802Y010472D01*
X002802Y010223D01*
X002744Y010223D01*
X002744Y010166D01*
X002456Y010166D01*
X002456Y010038D01*
X002466Y010003D01*
X002484Y009971D01*
X002510Y009945D01*
X002542Y009926D01*
X002564Y009920D01*
X002555Y009920D01*
X002496Y009862D01*
X002496Y009503D01*
X002555Y009445D01*
X002992Y009445D01*
X003050Y009503D01*
X003050Y009555D01*
X003240Y009555D01*
X003240Y009515D01*
X003255Y009500D01*
X003255Y008125D01*
X001401Y008125D01*
X001401Y008131D01*
X001392Y008166D01*
X001373Y008198D01*
X001347Y008224D01*
X001315Y008243D01*
X001280Y008252D01*
X000986Y008252D01*
X000986Y008125D01*
X000906Y008125D01*
X000906Y008252D01*
X000802Y008252D01*
X000950Y008611D01*
X001417Y009373D01*
X001998Y010053D01*
X002677Y010633D01*
X003439Y011100D01*
X004265Y011442D01*
X005134Y011651D01*
X006025Y011721D01*
X006916Y011651D01*
X007785Y011442D01*
X008611Y011100D01*
X009373Y010633D01*
X009602Y010438D01*
X009579Y010451D01*
X009544Y010460D01*
X009377Y010460D01*
X009377Y010212D01*
X009319Y010212D01*
X009319Y010460D01*
X009152Y010460D01*
X009117Y010451D01*
X009085Y010433D01*
X009059Y010406D01*
X009040Y010375D01*
X009031Y010339D01*
X009031Y010212D01*
X009319Y010212D01*
X009319Y010154D01*
X009031Y010154D01*
X009031Y010026D01*
X009040Y009991D01*
X009059Y009959D01*
X009085Y009933D01*
X009117Y009914D01*
X009138Y009909D01*
X009129Y009909D01*
X009071Y009850D01*
X009071Y009815D01*
X009035Y009815D01*
X009035Y009872D02*
X009092Y009872D01*
X009068Y009950D02*
X009004Y009950D01*
X009031Y010029D02*
X008939Y010029D01*
X008945Y010107D02*
X009031Y010107D01*
X008945Y010235D02*
X008945Y010363D01*
X008935Y010398D01*
X008917Y010430D01*
X008891Y010456D01*
X008859Y010475D01*
X008823Y010484D01*
X008656Y010484D01*
X008656Y010235D01*
X008945Y010235D01*
X008945Y010264D02*
X009031Y010264D01*
X009032Y010343D02*
X008945Y010343D01*
X008922Y010421D02*
X009074Y010421D01*
X009319Y010421D02*
X009377Y010421D01*
X009377Y010343D02*
X009319Y010343D01*
X009319Y010264D02*
X009377Y010264D01*
X009377Y010212D02*
X009665Y010212D01*
X009665Y010339D01*
X009656Y010375D01*
X009637Y010406D01*
X009629Y010415D01*
X010053Y010053D01*
X010212Y009866D01*
X010117Y009866D01*
X010117Y009617D01*
X010059Y009617D01*
X010059Y009559D01*
X009771Y009559D01*
X009771Y009432D01*
X009781Y009396D01*
X009799Y009364D01*
X009825Y009338D01*
X009857Y009320D01*
X009879Y009314D01*
X009870Y009314D01*
X009811Y009256D01*
X009811Y009215D01*
X009515Y009215D01*
X009515Y009433D01*
X009567Y009433D01*
X009625Y009492D01*
X009625Y009850D01*
X009567Y009909D01*
X009558Y009909D01*
X009579Y009914D01*
X009611Y009933D01*
X009637Y009959D01*
X009656Y009991D01*
X009665Y010026D01*
X009665Y010154D01*
X009377Y010154D01*
X009377Y010212D01*
X009377Y010186D02*
X009897Y010186D01*
X009805Y010264D02*
X009665Y010264D01*
X009664Y010343D02*
X009713Y010343D01*
X009665Y010107D02*
X009989Y010107D01*
X010073Y010029D02*
X009665Y010029D01*
X009629Y009950D02*
X010140Y009950D01*
X010207Y009872D02*
X009604Y009872D01*
X009625Y009793D02*
X009788Y009793D01*
X009781Y009780D02*
X009771Y009744D01*
X009771Y009617D01*
X010059Y009617D01*
X010059Y009866D01*
X009893Y009866D01*
X009857Y009856D01*
X009825Y009838D01*
X009799Y009812D01*
X009781Y009780D01*
X009771Y009715D02*
X009625Y009715D01*
X009625Y009636D02*
X009771Y009636D01*
X009771Y009558D02*
X009625Y009558D01*
X009613Y009479D02*
X009771Y009479D01*
X009779Y009401D02*
X009515Y009401D01*
X009515Y009322D02*
X009853Y009322D01*
X009811Y009244D02*
X009515Y009244D01*
X009695Y008955D02*
X009695Y004535D01*
X010815Y004535D01*
X010815Y006559D01*
X011175Y006919D01*
X011251Y006995D01*
X011632Y006995D01*
X011442Y007785D01*
X011100Y008611D01*
X011100Y008611D01*
X010633Y009373D01*
X010405Y009640D01*
X010405Y009617D01*
X010117Y009617D01*
X010117Y009559D01*
X010405Y009559D01*
X010405Y009432D01*
X010396Y009396D01*
X010377Y009364D01*
X010351Y009338D01*
X010319Y009320D01*
X010298Y009314D01*
X010307Y009314D01*
X010365Y009256D01*
X010365Y008897D01*
X010307Y008839D01*
X009870Y008839D01*
X009811Y008897D01*
X009811Y008955D01*
X009695Y008955D01*
X009695Y008930D02*
X009811Y008930D01*
X009857Y008851D02*
X009695Y008851D01*
X009695Y008773D02*
X011001Y008773D01*
X010953Y008851D02*
X010319Y008851D01*
X010365Y008930D02*
X010905Y008930D01*
X010857Y009008D02*
X010365Y009008D01*
X010365Y009087D02*
X010809Y009087D01*
X010761Y009165D02*
X010365Y009165D01*
X010365Y009244D02*
X010713Y009244D01*
X010664Y009322D02*
X010323Y009322D01*
X010397Y009401D02*
X010610Y009401D01*
X010543Y009479D02*
X010405Y009479D01*
X010405Y009558D02*
X010476Y009558D01*
X010409Y009636D02*
X010405Y009636D01*
X010117Y009636D02*
X010059Y009636D01*
X010059Y009715D02*
X010117Y009715D01*
X010117Y009793D02*
X010059Y009793D01*
X009319Y010186D02*
X008656Y010186D01*
X008599Y010186D02*
X007928Y010186D01*
X007870Y010186D02*
X007133Y010186D01*
X007075Y010186D02*
X005066Y010186D01*
X005008Y010186D02*
X004298Y010186D01*
X004240Y010186D02*
X003546Y010186D01*
X003546Y010235D02*
X003834Y010235D01*
X003834Y010363D01*
X003825Y010398D01*
X003807Y010430D01*
X003780Y010456D01*
X003749Y010475D01*
X003713Y010484D01*
X003546Y010484D01*
X003546Y010235D01*
X003546Y010264D02*
X003488Y010264D01*
X003488Y010235D02*
X003488Y010484D01*
X003322Y010484D01*
X003286Y010475D01*
X003254Y010456D01*
X003228Y010430D01*
X003210Y010398D01*
X003200Y010363D01*
X003200Y010235D01*
X003488Y010235D01*
X003488Y010186D02*
X002802Y010186D01*
X002744Y010186D02*
X002153Y010186D01*
X002061Y010107D02*
X002456Y010107D01*
X002459Y010029D02*
X001977Y010029D01*
X001910Y009950D02*
X002505Y009950D01*
X002506Y009872D02*
X001843Y009872D01*
X001776Y009793D02*
X002496Y009793D01*
X002496Y009715D02*
X001709Y009715D01*
X001642Y009636D02*
X002496Y009636D01*
X002496Y009558D02*
X001575Y009558D01*
X001508Y009479D02*
X002520Y009479D01*
X003026Y009479D02*
X003255Y009479D01*
X003255Y009401D02*
X001441Y009401D01*
X001386Y009322D02*
X003255Y009322D01*
X003255Y009244D02*
X001338Y009244D01*
X001290Y009165D02*
X003255Y009165D01*
X003255Y009087D02*
X001242Y009087D01*
X001194Y009008D02*
X003255Y009008D01*
X003255Y008930D02*
X001145Y008930D01*
X001097Y008851D02*
X003255Y008851D01*
X003255Y008773D02*
X001049Y008773D01*
X001001Y008694D02*
X003255Y008694D01*
X003255Y008616D02*
X000953Y008616D01*
X000920Y008537D02*
X003255Y008537D01*
X003255Y008459D02*
X000887Y008459D01*
X000855Y008380D02*
X003255Y008380D01*
X003255Y008302D02*
X000822Y008302D01*
X000927Y008289D02*
X001458Y008289D01*
X001348Y008223D02*
X003255Y008223D01*
X003255Y008145D02*
X001398Y008145D01*
X000986Y008145D02*
X000906Y008145D01*
X000906Y008223D02*
X000986Y008223D01*
X000927Y008289D02*
X000927Y007915D01*
X000946Y007915D01*
X000468Y007203D02*
X000469Y007203D01*
X000469Y007124D02*
X000449Y007124D01*
X000431Y007046D02*
X000469Y007046D01*
X000469Y006967D02*
X000412Y006967D01*
X000397Y006889D02*
X000469Y006889D01*
X000469Y006810D02*
X000391Y006810D01*
X000385Y006732D02*
X000469Y006732D01*
X000469Y006653D02*
X000379Y006653D01*
X000373Y006575D02*
X000469Y006575D01*
X000464Y006496D02*
X000366Y006496D01*
X000360Y006418D02*
X000462Y006418D01*
X000462Y006339D02*
X000354Y006339D01*
X000348Y006261D02*
X000469Y006261D01*
X000462Y006182D02*
X000342Y006182D01*
X000338Y006135D02*
X000495Y006135D01*
X000502Y006128D01*
X000502Y006125D01*
X000337Y006124D01*
X000338Y006135D01*
X000336Y006104D02*
X000462Y006104D01*
X000471Y006025D02*
X000329Y006025D01*
X000336Y005947D02*
X000547Y005947D01*
X000706Y005947D02*
X000754Y005947D01*
X000754Y006025D02*
X000706Y006025D01*
X000706Y006104D02*
X000754Y006104D01*
X000913Y005947D02*
X002057Y005947D01*
X002051Y005868D02*
X000342Y005868D01*
X000348Y005790D02*
X002339Y005790D01*
X002339Y005711D02*
X002397Y005711D01*
X002397Y005633D02*
X002339Y005633D01*
X002339Y005554D02*
X002397Y005554D01*
X002071Y005554D02*
X000366Y005554D01*
X000373Y005476D02*
X002655Y005476D01*
X002655Y005397D02*
X000379Y005397D01*
X000385Y005319D02*
X002655Y005319D01*
X002655Y005240D02*
X000391Y005240D01*
X000397Y005162D02*
X002655Y005162D01*
X002655Y005083D02*
X000412Y005083D01*
X000431Y005005D02*
X002655Y005005D01*
X002655Y004926D02*
X000449Y004926D01*
X000468Y004848D02*
X002655Y004848D01*
X002655Y004769D02*
X000487Y004769D01*
X000506Y004691D02*
X002676Y004691D01*
X002915Y004895D02*
X002915Y005528D01*
X003295Y005528D01*
X003354Y005586D01*
X003354Y005625D01*
X003435Y005625D01*
X003435Y005533D01*
X003494Y005474D01*
X003693Y005474D01*
X003705Y005462D01*
X003737Y005444D01*
X003773Y005434D01*
X003860Y005434D01*
X003947Y005434D01*
X003983Y005444D01*
X004015Y005462D01*
X004027Y005474D01*
X004226Y005474D01*
X004285Y005533D01*
X004285Y005567D01*
X004547Y005567D01*
X004547Y005469D01*
X004581Y005435D01*
X004547Y005400D01*
X004547Y005391D01*
X004155Y004999D01*
X004155Y004895D01*
X002915Y004895D01*
X002915Y004926D02*
X004155Y004926D01*
X004161Y005005D02*
X002915Y005005D01*
X002915Y005083D02*
X004239Y005083D01*
X004318Y005162D02*
X002915Y005162D01*
X002915Y005240D02*
X004396Y005240D01*
X004475Y005319D02*
X002915Y005319D01*
X002915Y005397D02*
X004547Y005397D01*
X004547Y005476D02*
X004227Y005476D01*
X004285Y005554D02*
X004547Y005554D01*
X004271Y005927D02*
X004249Y005925D01*
X004227Y005921D01*
X004206Y005913D01*
X004187Y005902D01*
X004169Y005889D01*
X004153Y005873D01*
X004140Y005855D01*
X004129Y005836D01*
X004121Y005815D01*
X004117Y005793D01*
X004115Y005771D01*
X004271Y005927D02*
X004834Y005927D01*
X004834Y006124D02*
X004452Y006124D01*
X004452Y006123D02*
X004417Y006125D01*
X004382Y006130D01*
X004348Y006139D01*
X004315Y006152D01*
X004284Y006168D01*
X004254Y006187D01*
X004227Y006210D01*
X004202Y006235D01*
X004179Y006262D01*
X004160Y006291D01*
X004144Y006323D01*
X004131Y006356D01*
X004122Y006390D01*
X004117Y006425D01*
X004115Y006460D01*
X003860Y006460D02*
X003860Y006123D01*
X003947Y006123D01*
X003953Y006125D01*
X003953Y006107D01*
X003947Y006108D01*
X003860Y006108D01*
X003860Y005771D01*
X003860Y005434D01*
X003860Y005771D01*
X003860Y005771D01*
X003860Y005771D01*
X003860Y006108D01*
X003773Y006108D01*
X003737Y006099D01*
X003705Y006080D01*
X003693Y006068D01*
X003515Y006068D01*
X003515Y006124D01*
X003517Y006123D01*
X003604Y006123D01*
X003691Y006123D01*
X003727Y006133D01*
X003732Y006136D01*
X003737Y006133D01*
X003773Y006123D01*
X003860Y006123D01*
X003860Y006460D01*
X003860Y006460D01*
X003604Y006460D01*
X003604Y006123D01*
X003604Y006460D01*
X003604Y006460D01*
X003604Y006460D01*
X003813Y006460D01*
X003860Y006460D01*
X003860Y006460D01*
X003860Y006460D01*
X003860Y006797D01*
X003947Y006797D01*
X003983Y006788D01*
X004015Y006769D01*
X004027Y006757D01*
X004029Y006757D01*
X003811Y006975D01*
X003515Y006975D01*
X003515Y006797D01*
X003517Y006797D01*
X003604Y006797D01*
X003604Y006460D01*
X003604Y006460D01*
X003604Y006797D01*
X003691Y006797D01*
X003727Y006788D01*
X003732Y006785D01*
X003737Y006788D01*
X003773Y006797D01*
X003860Y006797D01*
X003860Y006460D01*
X003860Y006496D02*
X003860Y006496D01*
X003860Y006418D02*
X003860Y006418D01*
X003860Y006339D02*
X003860Y006339D01*
X003860Y006261D02*
X003860Y006261D01*
X003860Y006182D02*
X003860Y006182D01*
X003860Y006104D02*
X003860Y006104D01*
X003860Y006025D02*
X003860Y006025D01*
X003860Y005947D02*
X003860Y005947D01*
X003860Y005868D02*
X003860Y005868D01*
X003860Y005790D02*
X003860Y005790D01*
X003860Y005711D02*
X003860Y005711D01*
X003860Y005633D02*
X003860Y005633D01*
X003860Y005554D02*
X003860Y005554D01*
X003860Y005476D02*
X003860Y005476D01*
X003604Y005765D02*
X003604Y005771D01*
X003604Y005765D02*
X003076Y005765D01*
X003322Y005554D02*
X003435Y005554D01*
X003492Y005476D02*
X002915Y005476D01*
X003515Y006104D02*
X003756Y006104D01*
X003604Y006182D02*
X003604Y006182D01*
X003604Y006261D02*
X003604Y006261D01*
X003604Y006339D02*
X003604Y006339D01*
X003604Y006418D02*
X003604Y006418D01*
X003604Y006496D02*
X003604Y006496D01*
X003604Y006575D02*
X003604Y006575D01*
X003604Y006653D02*
X003604Y006653D01*
X003604Y006732D02*
X003604Y006732D01*
X003515Y006810D02*
X003976Y006810D01*
X003898Y006889D02*
X003515Y006889D01*
X003515Y006967D02*
X003819Y006967D01*
X003860Y006732D02*
X003860Y006732D01*
X003860Y006653D02*
X003860Y006653D01*
X003860Y006575D02*
X003860Y006575D01*
X003975Y007179D02*
X003919Y007235D01*
X003515Y007235D01*
X003515Y007787D01*
X003839Y007787D01*
X003905Y007721D01*
X003905Y007622D01*
X003975Y007552D01*
X003975Y007179D01*
X003975Y007203D02*
X003952Y007203D01*
X003975Y007281D02*
X003515Y007281D01*
X003515Y007360D02*
X003975Y007360D01*
X003975Y007438D02*
X003515Y007438D01*
X003515Y007517D02*
X003975Y007517D01*
X003932Y007595D02*
X003515Y007595D01*
X003515Y007674D02*
X003905Y007674D01*
X003874Y007752D02*
X003515Y007752D01*
X004235Y007552D02*
X004235Y007279D01*
X004395Y007119D01*
X004395Y007699D01*
X004444Y007747D01*
X004443Y007747D01*
X004443Y008064D01*
X004363Y008064D01*
X004363Y007747D01*
X004305Y007747D01*
X004305Y007622D01*
X004235Y007552D01*
X004235Y007517D02*
X004395Y007517D01*
X004395Y007595D02*
X004278Y007595D01*
X004305Y007674D02*
X004395Y007674D01*
X004363Y007752D02*
X004443Y007752D01*
X004443Y007831D02*
X004363Y007831D01*
X004363Y007909D02*
X004443Y007909D01*
X004443Y007988D02*
X004363Y007988D01*
X004895Y008019D02*
X004895Y008812D01*
X004965Y008882D01*
X004965Y009048D01*
X004848Y009165D01*
X004682Y009165D01*
X004565Y009048D01*
X004565Y008972D01*
X004126Y008972D01*
X004093Y008939D01*
X004082Y008958D01*
X004056Y008984D01*
X004024Y009002D01*
X003989Y009012D01*
X003774Y009012D01*
X003774Y008695D01*
X003694Y008695D01*
X003694Y009012D01*
X003515Y009012D01*
X003515Y009457D01*
X003736Y009457D01*
X003794Y009515D01*
X003794Y009555D01*
X003992Y009555D01*
X003992Y009503D01*
X004051Y009445D01*
X004488Y009445D01*
X004546Y009503D01*
X004546Y009555D01*
X004760Y009555D01*
X004760Y009507D01*
X004818Y009449D01*
X005055Y009449D01*
X005055Y008179D01*
X004895Y008019D01*
X004895Y008066D02*
X004942Y008066D01*
X004895Y008145D02*
X005021Y008145D01*
X005055Y008223D02*
X004895Y008223D01*
X004895Y008302D02*
X005055Y008302D01*
X005055Y008380D02*
X004895Y008380D01*
X004895Y008459D02*
X005055Y008459D01*
X005055Y008537D02*
X004895Y008537D01*
X004895Y008616D02*
X005055Y008616D01*
X005055Y008694D02*
X004895Y008694D01*
X004895Y008773D02*
X005055Y008773D01*
X005055Y008851D02*
X004934Y008851D01*
X004965Y008930D02*
X005055Y008930D01*
X005055Y009008D02*
X004965Y009008D01*
X004927Y009087D02*
X005055Y009087D01*
X005055Y009165D02*
X003515Y009165D01*
X003515Y009087D02*
X004604Y009087D01*
X004565Y009008D02*
X004001Y009008D01*
X003774Y009008D02*
X003694Y009008D01*
X003694Y008930D02*
X003774Y008930D01*
X003774Y008851D02*
X003694Y008851D01*
X003694Y008773D02*
X003774Y008773D01*
X003515Y009244D02*
X005055Y009244D01*
X005055Y009322D02*
X003515Y009322D01*
X003515Y009401D02*
X005055Y009401D01*
X004788Y009479D02*
X004522Y009479D01*
X004537Y009872D02*
X004766Y009872D01*
X004772Y009950D02*
X004538Y009950D01*
X004584Y010029D02*
X004723Y010029D01*
X004720Y010107D02*
X004586Y010107D01*
X004720Y010227D02*
X005008Y010227D01*
X005008Y010476D01*
X004841Y010476D01*
X004806Y010467D01*
X004774Y010448D01*
X004748Y010422D01*
X004729Y010390D01*
X004720Y010355D01*
X004720Y010227D01*
X004720Y010264D02*
X004586Y010264D01*
X004586Y010343D02*
X004720Y010343D01*
X004747Y010421D02*
X004556Y010421D01*
X004298Y010421D02*
X004240Y010421D01*
X004240Y010472D02*
X004074Y010472D01*
X004038Y010463D01*
X004006Y010444D01*
X003980Y010418D01*
X003962Y010386D01*
X003952Y010351D01*
X003952Y010223D01*
X004240Y010223D01*
X004240Y010472D01*
X004240Y010343D02*
X004298Y010343D01*
X004298Y010264D02*
X004240Y010264D01*
X003983Y010421D02*
X003812Y010421D01*
X003834Y010343D02*
X003952Y010343D01*
X003952Y010264D02*
X003834Y010264D01*
X003834Y010107D02*
X003952Y010107D01*
X003955Y010029D02*
X003829Y010029D01*
X003770Y009950D02*
X004001Y009950D01*
X004002Y009872D02*
X003794Y009872D01*
X003758Y009479D02*
X004016Y009479D01*
X003265Y009950D02*
X003042Y009950D01*
X003041Y009872D02*
X003240Y009872D01*
X003206Y010029D02*
X003088Y010029D01*
X003090Y010107D02*
X003200Y010107D01*
X003200Y010264D02*
X003090Y010264D01*
X003090Y010343D02*
X003200Y010343D01*
X003223Y010421D02*
X003059Y010421D01*
X002802Y010421D02*
X002744Y010421D01*
X002744Y010472D02*
X002578Y010472D01*
X002542Y010463D01*
X002510Y010444D01*
X002484Y010418D01*
X002466Y010386D01*
X002456Y010351D01*
X002456Y010223D01*
X002744Y010223D01*
X002744Y010472D01*
X002744Y010343D02*
X002802Y010343D01*
X002802Y010264D02*
X002744Y010264D01*
X002456Y010264D02*
X002245Y010264D01*
X002337Y010343D02*
X002456Y010343D01*
X002429Y010421D02*
X002487Y010421D01*
X002521Y010500D02*
X009529Y010500D01*
X009438Y010578D02*
X002613Y010578D01*
X002716Y010657D02*
X009335Y010657D01*
X009207Y010735D02*
X002844Y010735D01*
X002972Y010814D02*
X009079Y010814D01*
X008950Y010892D02*
X003100Y010892D01*
X003228Y010971D02*
X008822Y010971D01*
X008694Y011049D02*
X003356Y011049D01*
X003506Y011128D02*
X008545Y011128D01*
X008355Y011206D02*
X003695Y011206D01*
X003885Y011285D02*
X008166Y011285D01*
X007976Y011363D02*
X004074Y011363D01*
X004264Y011442D02*
X007787Y011442D01*
X007461Y011520D02*
X004590Y011520D01*
X004917Y011599D02*
X007134Y011599D01*
X006582Y011677D02*
X005469Y011677D01*
X005327Y010421D02*
X006814Y010421D01*
X006815Y010422D02*
X006796Y010390D01*
X006787Y010355D01*
X006787Y010227D01*
X007075Y010227D01*
X007075Y010476D01*
X006908Y010476D01*
X006873Y010467D01*
X006841Y010448D01*
X006815Y010422D01*
X006787Y010343D02*
X005354Y010343D01*
X005354Y010264D02*
X006787Y010264D01*
X006787Y010107D02*
X005354Y010107D01*
X005351Y010029D02*
X006790Y010029D01*
X006839Y009950D02*
X005302Y009950D01*
X005308Y009872D02*
X006833Y009872D01*
X006827Y009555D02*
X006827Y009507D01*
X006885Y009449D01*
X007095Y009449D01*
X007095Y007066D01*
X007066Y007066D01*
X007066Y007412D01*
X006975Y007503D01*
X006847Y007503D01*
X006813Y007469D01*
X006778Y007503D01*
X006650Y007503D01*
X006616Y007469D01*
X006582Y007503D01*
X006453Y007503D01*
X006419Y007469D01*
X006385Y007503D01*
X006256Y007503D01*
X006222Y007469D01*
X006188Y007503D01*
X006059Y007503D01*
X006025Y007469D01*
X005991Y007503D01*
X005863Y007503D01*
X005828Y007469D01*
X005794Y007503D01*
X005666Y007503D01*
X005631Y007469D01*
X005597Y007503D01*
X005469Y007503D01*
X005435Y007469D01*
X005400Y007503D01*
X005272Y007503D01*
X005238Y007469D01*
X005205Y007502D01*
X005205Y007505D01*
X005328Y007505D01*
X005445Y007622D01*
X005445Y007721D01*
X005507Y007783D01*
X005736Y007783D01*
X005794Y007842D01*
X005794Y007851D01*
X005800Y007829D01*
X005819Y007797D01*
X005845Y007771D01*
X005877Y007753D01*
X005912Y007743D01*
X006040Y007743D01*
X006040Y008032D01*
X006097Y008032D01*
X006097Y007743D01*
X006225Y007743D01*
X006260Y007753D01*
X006292Y007771D01*
X006318Y007797D01*
X006337Y007829D01*
X006346Y007865D01*
X006346Y008032D01*
X006097Y008032D01*
X006097Y008090D01*
X006040Y008090D01*
X006040Y008362D01*
X006047Y008362D01*
X006047Y008650D01*
X006105Y008650D01*
X006105Y008378D01*
X006097Y008378D01*
X006097Y008090D01*
X006346Y008090D01*
X006346Y008256D01*
X006337Y008292D01*
X006318Y008324D01*
X006292Y008350D01*
X006260Y008368D01*
X006259Y008369D01*
X006268Y008371D01*
X006300Y008390D01*
X006326Y008416D01*
X006345Y008448D01*
X006354Y008483D01*
X006354Y008650D01*
X006105Y008650D01*
X006105Y008708D01*
X006047Y008708D01*
X006047Y008996D01*
X005920Y008996D01*
X005885Y008986D01*
X005853Y008968D01*
X005827Y008942D01*
X005808Y008910D01*
X005802Y008888D01*
X005802Y008897D01*
X005744Y008956D01*
X005565Y008956D01*
X005565Y009108D01*
X005448Y009225D01*
X005315Y009225D01*
X005315Y009555D01*
X006827Y009555D01*
X006855Y009479D02*
X005315Y009479D01*
X005315Y009401D02*
X007095Y009401D01*
X007095Y009322D02*
X005315Y009322D01*
X005315Y009244D02*
X007095Y009244D01*
X007095Y009165D02*
X005508Y009165D01*
X005565Y009087D02*
X007095Y009087D01*
X007095Y009008D02*
X005565Y009008D01*
X005770Y008930D02*
X005820Y008930D01*
X006047Y008930D02*
X006105Y008930D01*
X006105Y008996D02*
X006105Y008708D01*
X006354Y008708D01*
X006354Y008874D01*
X006345Y008910D01*
X006326Y008942D01*
X006300Y008968D01*
X006268Y008986D01*
X006233Y008996D01*
X006105Y008996D01*
X006105Y008851D02*
X006047Y008851D01*
X006047Y008773D02*
X006105Y008773D01*
X006105Y008694D02*
X007095Y008694D01*
X007095Y008616D02*
X006354Y008616D01*
X006354Y008537D02*
X007095Y008537D01*
X007095Y008459D02*
X006348Y008459D01*
X006284Y008380D02*
X007095Y008380D01*
X007095Y008302D02*
X006331Y008302D01*
X006346Y008223D02*
X007095Y008223D01*
X007095Y008145D02*
X006346Y008145D01*
X006346Y007988D02*
X007095Y007988D01*
X007095Y008066D02*
X006097Y008066D01*
X006097Y007988D02*
X006040Y007988D01*
X006040Y007909D02*
X006097Y007909D01*
X006097Y007831D02*
X006040Y007831D01*
X006040Y007752D02*
X006097Y007752D01*
X006257Y007752D02*
X007095Y007752D01*
X007095Y007674D02*
X005445Y007674D01*
X005418Y007595D02*
X007095Y007595D01*
X007095Y007517D02*
X005340Y007517D01*
X005476Y007752D02*
X005880Y007752D01*
X005800Y007831D02*
X005783Y007831D01*
X006040Y008145D02*
X006097Y008145D01*
X006097Y008223D02*
X006040Y008223D01*
X006040Y008302D02*
X006097Y008302D01*
X006105Y008380D02*
X006047Y008380D01*
X006047Y008459D02*
X006105Y008459D01*
X006105Y008537D02*
X006047Y008537D01*
X006047Y008616D02*
X006105Y008616D01*
X006354Y008773D02*
X007095Y008773D01*
X007095Y008851D02*
X006354Y008851D01*
X006333Y008930D02*
X007095Y008930D01*
X007375Y009872D02*
X007624Y009872D01*
X007640Y009950D02*
X007369Y009950D01*
X007417Y010029D02*
X007587Y010029D01*
X007582Y010107D02*
X007421Y010107D01*
X007582Y010231D02*
X007870Y010231D01*
X007870Y010480D01*
X007704Y010480D01*
X007668Y010471D01*
X007636Y010452D01*
X007610Y010426D01*
X007592Y010394D01*
X007582Y010359D01*
X007582Y010231D01*
X007582Y010264D02*
X007421Y010264D01*
X007421Y010343D02*
X007582Y010343D01*
X007607Y010421D02*
X007394Y010421D01*
X007133Y010421D02*
X007075Y010421D01*
X007075Y010343D02*
X007133Y010343D01*
X007133Y010264D02*
X007075Y010264D01*
X007870Y010264D02*
X007928Y010264D01*
X007928Y010343D02*
X007870Y010343D01*
X007870Y010421D02*
X007928Y010421D01*
X008191Y010421D02*
X008333Y010421D01*
X008310Y010343D02*
X008216Y010343D01*
X008216Y010264D02*
X008310Y010264D01*
X008310Y010107D02*
X008216Y010107D01*
X008599Y010264D02*
X008656Y010264D01*
X008656Y010343D02*
X008599Y010343D01*
X008599Y010421D02*
X008656Y010421D01*
X009695Y008694D02*
X011049Y008694D01*
X011097Y008616D02*
X009695Y008616D01*
X009695Y008537D02*
X011131Y008537D01*
X011163Y008459D02*
X009695Y008459D01*
X009695Y008380D02*
X011196Y008380D01*
X011228Y008302D02*
X009695Y008302D01*
X009695Y008223D02*
X011261Y008223D01*
X011293Y008145D02*
X009695Y008145D01*
X009695Y008066D02*
X011326Y008066D01*
X011358Y007988D02*
X009695Y007988D01*
X009695Y007909D02*
X011391Y007909D01*
X011423Y007831D02*
X009695Y007831D01*
X009695Y007752D02*
X011450Y007752D01*
X011469Y007674D02*
X009695Y007674D01*
X009695Y007595D02*
X011488Y007595D01*
X011507Y007517D02*
X009695Y007517D01*
X009695Y007438D02*
X011526Y007438D01*
X011544Y007360D02*
X009695Y007360D01*
X009695Y007281D02*
X011563Y007281D01*
X011582Y007203D02*
X009695Y007203D01*
X009695Y007124D02*
X011601Y007124D01*
X011620Y007046D02*
X009695Y007046D01*
X009695Y006967D02*
X011223Y006967D01*
X011145Y006889D02*
X009695Y006889D01*
X009695Y006810D02*
X011066Y006810D01*
X010988Y006732D02*
X009695Y006732D01*
X009695Y006653D02*
X010909Y006653D01*
X010831Y006575D02*
X009695Y006575D01*
X009695Y006496D02*
X010815Y006496D01*
X010815Y006418D02*
X009695Y006418D01*
X009695Y006339D02*
X010815Y006339D01*
X010815Y006261D02*
X009695Y006261D01*
X009695Y006182D02*
X010815Y006182D01*
X010815Y006104D02*
X009695Y006104D01*
X009695Y006025D02*
X010815Y006025D01*
X010815Y005947D02*
X009695Y005947D01*
X009695Y005868D02*
X010815Y005868D01*
X010815Y005790D02*
X009695Y005790D01*
X009695Y005711D02*
X010815Y005711D01*
X010815Y005633D02*
X009695Y005633D01*
X009695Y005554D02*
X010815Y005554D01*
X010815Y005476D02*
X009695Y005476D01*
X009695Y005397D02*
X010815Y005397D01*
X010815Y005319D02*
X009695Y005319D01*
X009695Y005240D02*
X010815Y005240D01*
X010815Y005162D02*
X009695Y005162D01*
X009695Y005083D02*
X010815Y005083D01*
X010815Y005005D02*
X009695Y005005D01*
X009695Y004926D02*
X010815Y004926D01*
X010815Y004848D02*
X009695Y004848D01*
X009695Y004769D02*
X010815Y004769D01*
X010815Y004691D02*
X009695Y004691D01*
X009695Y004612D02*
X010815Y004612D01*
X011195Y004612D02*
X011526Y004612D01*
X011507Y004534D02*
X011195Y004534D01*
X011195Y004455D02*
X011488Y004455D01*
X011469Y004377D02*
X011195Y004377D01*
X011195Y004298D02*
X011450Y004298D01*
X011423Y004220D02*
X011184Y004220D01*
X011195Y004691D02*
X011544Y004691D01*
X011563Y004769D02*
X011195Y004769D01*
X011195Y004848D02*
X011582Y004848D01*
X011601Y004926D02*
X011195Y004926D01*
X011195Y005005D02*
X011620Y005005D01*
X011639Y005083D02*
X011195Y005083D01*
X011195Y005162D02*
X011653Y005162D01*
X011659Y005240D02*
X011491Y005240D01*
X011616Y005319D02*
X011665Y005319D01*
X011671Y005397D02*
X011672Y005397D01*
X011315Y005240D02*
X011195Y005240D01*
X007395Y005139D02*
X007395Y005139D01*
X007216Y005139D01*
X007216Y005139D01*
X007281Y005139D01*
X007216Y005139D01*
X006911Y005139D01*
X007216Y005139D02*
X007395Y005139D01*
X006911Y005140D02*
X006879Y005142D01*
X006848Y005147D01*
X006817Y005156D01*
X006787Y005168D01*
X006759Y005184D01*
X006733Y005202D01*
X006709Y005223D01*
X006688Y005247D01*
X006670Y005273D01*
X006654Y005301D01*
X006642Y005331D01*
X006633Y005362D01*
X006628Y005393D01*
X006626Y005425D01*
X006626Y005425D01*
X006626Y005482D01*
X006626Y005838D01*
X006626Y005838D01*
X006626Y005838D01*
X006626Y006195D01*
X006626Y006212D01*
X006626Y006212D01*
X006626Y005838D01*
X006626Y005425D01*
X006626Y005425D01*
X006579Y005425D01*
X006222Y005425D01*
X006222Y005838D01*
X006222Y005838D01*
X006222Y005482D01*
X006222Y005425D01*
X006222Y005425D01*
X006222Y005425D01*
X006185Y005425D01*
X005828Y005425D01*
X005828Y005425D01*
X005781Y005425D01*
X005425Y005425D01*
X005425Y005425D01*
X005425Y005425D01*
X005425Y005781D01*
X005425Y005838D01*
X005425Y005838D01*
X005828Y005838D01*
X005828Y005838D01*
X005828Y005838D01*
X005828Y005425D01*
X005828Y005425D01*
X005425Y005425D01*
X005425Y005838D01*
X005425Y005838D01*
X005472Y005838D01*
X005828Y005838D01*
X005828Y005482D01*
X005828Y005425D01*
X005828Y005425D01*
X006222Y005425D01*
X006222Y005425D01*
X006626Y005425D01*
X006626Y005476D02*
X006626Y005476D01*
X006626Y005554D02*
X006626Y005554D01*
X006626Y005633D02*
X006626Y005633D01*
X006626Y005711D02*
X006626Y005711D01*
X006626Y005790D02*
X006626Y005790D01*
X006626Y005838D02*
X006222Y005838D01*
X005828Y005838D01*
X005828Y006212D01*
X005425Y006212D01*
X005425Y006212D01*
X005425Y005856D01*
X005425Y005838D01*
X005425Y005838D01*
X005425Y006212D01*
X005425Y006212D01*
X005781Y006212D01*
X005828Y006212D01*
X005828Y006212D01*
X005828Y006212D01*
X005828Y006195D01*
X005828Y005838D01*
X005828Y005838D01*
X005828Y005838D01*
X006185Y005838D01*
X006222Y005838D01*
X006222Y005838D01*
X006222Y005838D01*
X006579Y005838D01*
X006626Y005838D01*
X006626Y005838D01*
X006626Y005868D02*
X006626Y005868D01*
X006626Y005947D02*
X006626Y005947D01*
X006626Y006025D02*
X006626Y006025D01*
X006626Y006104D02*
X006626Y006104D01*
X006626Y006182D02*
X006626Y006182D01*
X006626Y006212D02*
X006222Y006212D01*
X006222Y006212D01*
X006222Y005838D01*
X006222Y005838D01*
X006222Y006195D01*
X006222Y006212D01*
X005828Y006212D01*
X005828Y006626D01*
X005828Y006626D01*
X005781Y006626D01*
X005425Y006626D01*
X005425Y006626D01*
X005828Y006626D01*
X005866Y006626D01*
X006222Y006626D01*
X006222Y006626D01*
X006579Y006626D01*
X006626Y006626D01*
X006626Y006269D01*
X006626Y006212D01*
X006626Y006212D01*
X006626Y006212D01*
X006626Y006626D01*
X006626Y006626D01*
X006626Y006626D01*
X006222Y006626D01*
X006222Y006626D01*
X005828Y006626D01*
X005828Y006626D01*
X005828Y006626D01*
X005828Y006569D01*
X005828Y006212D01*
X005828Y006212D01*
X005828Y006212D01*
X006185Y006212D01*
X006222Y006212D01*
X006222Y006212D01*
X006222Y006212D01*
X006579Y006212D01*
X006626Y006212D01*
X006626Y006261D02*
X006626Y006261D01*
X006626Y006339D02*
X006626Y006339D01*
X006626Y006418D02*
X006626Y006418D01*
X006626Y006496D02*
X006626Y006496D01*
X006626Y006575D02*
X006626Y006575D01*
X006222Y006575D02*
X006222Y006575D01*
X006222Y006626D02*
X006222Y006269D01*
X006222Y006212D01*
X006222Y006626D01*
X006222Y006626D01*
X006222Y006496D02*
X006222Y006496D01*
X006222Y006418D02*
X006222Y006418D01*
X006222Y006339D02*
X006222Y006339D01*
X006222Y006261D02*
X006222Y006261D01*
X006222Y006212D02*
X006222Y006212D01*
X006222Y006182D02*
X006222Y006182D01*
X006222Y006104D02*
X006222Y006104D01*
X006222Y006025D02*
X006222Y006025D01*
X006222Y005947D02*
X006222Y005947D01*
X006222Y005868D02*
X006222Y005868D01*
X006222Y005790D02*
X006222Y005790D01*
X006222Y005711D02*
X006222Y005711D01*
X006222Y005633D02*
X006222Y005633D01*
X006222Y005554D02*
X006222Y005554D01*
X006222Y005476D02*
X006222Y005476D01*
X005828Y005476D02*
X005828Y005476D01*
X005828Y005554D02*
X005828Y005554D01*
X005828Y005633D02*
X005828Y005633D01*
X005828Y005711D02*
X005828Y005711D01*
X005828Y005790D02*
X005828Y005790D01*
X005828Y005868D02*
X005828Y005868D01*
X005828Y005947D02*
X005828Y005947D01*
X005828Y006025D02*
X005828Y006025D01*
X005828Y006104D02*
X005828Y006104D01*
X005828Y006182D02*
X005828Y006182D01*
X005828Y006261D02*
X005828Y006261D01*
X005828Y006339D02*
X005828Y006339D01*
X005828Y006418D02*
X005828Y006418D01*
X005828Y006496D02*
X005828Y006496D01*
X005828Y006575D02*
X005828Y006575D01*
X005425Y006575D02*
X005425Y006575D01*
X005425Y006569D02*
X005425Y006626D01*
X005425Y006626D01*
X005425Y006212D01*
X005425Y006212D01*
X005425Y006569D01*
X005425Y006496D02*
X005425Y006496D01*
X005425Y006418D02*
X005425Y006418D01*
X005425Y006339D02*
X005425Y006339D01*
X005425Y006261D02*
X005425Y006261D01*
X005425Y006182D02*
X005425Y006182D01*
X005425Y006104D02*
X005425Y006104D01*
X005425Y006025D02*
X005425Y006025D01*
X005425Y005947D02*
X005425Y005947D01*
X005425Y005868D02*
X005425Y005868D01*
X005425Y005790D02*
X005425Y005790D01*
X005425Y005711D02*
X005425Y005711D01*
X005425Y005633D02*
X005425Y005633D01*
X005425Y005554D02*
X005425Y005554D01*
X005425Y005476D02*
X005425Y005476D01*
X004155Y004612D02*
X000525Y004612D01*
X000544Y004534D02*
X003791Y004534D01*
X003771Y004455D02*
X000563Y004455D01*
X000581Y004377D02*
X003771Y004377D01*
X004020Y004377D02*
X004078Y004377D01*
X004078Y004455D02*
X004020Y004455D01*
X004020Y004534D02*
X004078Y004534D01*
X003076Y006277D02*
X002368Y006277D01*
X001124Y006277D01*
X001124Y006273D01*
X001352Y006104D02*
X002091Y006104D01*
X002122Y006025D02*
X001342Y006025D01*
X002051Y005711D02*
X000354Y005711D01*
X000360Y005633D02*
X002051Y005633D01*
X002368Y006277D02*
X002368Y006277D01*
X002368Y006277D01*
X004235Y007281D02*
X004395Y007281D01*
X004395Y007203D02*
X004312Y007203D01*
X004390Y007124D02*
X004395Y007124D01*
X004395Y007360D02*
X004235Y007360D01*
X004235Y007438D02*
X004395Y007438D01*
X006337Y007831D02*
X007095Y007831D01*
X007095Y007909D02*
X006346Y007909D01*
X007040Y007438D02*
X007095Y007438D01*
X007095Y007360D02*
X007066Y007360D01*
X007066Y007281D02*
X007095Y007281D01*
X007095Y007203D02*
X007066Y007203D01*
X007066Y007124D02*
X007095Y007124D01*
X005066Y010264D02*
X005008Y010264D01*
X005008Y010343D02*
X005066Y010343D01*
X005066Y010421D02*
X005008Y010421D01*
X003546Y010421D02*
X003488Y010421D01*
X003488Y010343D02*
X003546Y010343D01*
D23*
X003616Y010864D03*
X004643Y010797D03*
X004880Y011301D03*
X006021Y010029D03*
X004820Y009222D03*
X005006Y008403D03*
X004328Y007289D03*
X003907Y007277D03*
X002765Y008328D03*
X002521Y008317D03*
X002309Y008305D03*
X002100Y008301D03*
X001899Y008301D03*
X001679Y008301D03*
X001458Y008289D03*
X001513Y005994D03*
X001525Y005785D03*
X001301Y005789D03*
X001096Y005789D03*
X000891Y005793D03*
X000895Y005596D03*
X000647Y005785D03*
X001647Y005222D03*
X001876Y005773D03*
X001876Y005994D03*
X001691Y005994D03*
X002021Y004726D03*
X001427Y004529D03*
X001777Y003935D03*
X002663Y004395D03*
X003002Y004966D03*
X003328Y002261D03*
X008580Y002643D03*
X008789Y003876D03*
X008726Y004738D03*
X008844Y005797D03*
X008667Y006616D03*
X009356Y007135D03*
X009041Y007844D03*
X008289Y008120D03*
X006679Y008809D03*
X007261Y010852D03*
X007490Y011120D03*
X007817Y010923D03*
X009998Y007844D03*
X010868Y007765D03*
X010171Y005561D03*
X009856Y005124D03*
X010037Y003911D03*
X011462Y004824D03*
D24*
X010945Y004405D02*
X010945Y006505D01*
X011305Y006865D01*
X011725Y006865D01*
X011725Y006325D01*
X011425Y006025D01*
X011403Y006025D01*
X011065Y006205D02*
X011365Y006505D01*
X011403Y006525D01*
X011065Y006205D02*
X011065Y004285D01*
X006085Y004285D01*
X005725Y004645D01*
X005725Y004825D01*
X005730Y004834D01*
X005545Y004825D02*
X005533Y004834D01*
X005545Y004825D02*
X005545Y003805D01*
X005725Y003625D01*
X005773Y003608D01*
X005785Y003625D01*
X006205Y003625D01*
X006246Y003608D01*
X006205Y004405D02*
X010945Y004405D01*
X009565Y004525D02*
X009565Y009085D01*
X010045Y009085D01*
X010088Y009076D01*
X009565Y009085D02*
X009385Y009085D01*
X009385Y009625D01*
X009348Y009671D01*
X009325Y009685D01*
X008905Y009685D01*
X008905Y009865D01*
X008845Y009925D01*
X007945Y009925D01*
X007945Y009745D01*
X007899Y009691D01*
X007885Y009685D01*
X007225Y009685D01*
X007104Y009687D01*
X007045Y009685D01*
X005065Y009685D01*
X005037Y009687D01*
X005065Y009685D01*
X005185Y009565D01*
X005185Y008125D01*
X004825Y007765D01*
X004825Y006925D01*
X004834Y006911D01*
X004825Y006745D02*
X004834Y006714D01*
X004825Y006745D02*
X004525Y006745D01*
X004525Y007645D01*
X004765Y007885D01*
X004765Y008965D01*
X004405Y008605D01*
X004403Y008655D01*
X003734Y008104D02*
X003745Y008065D01*
X004105Y007705D01*
X004105Y007225D01*
X004405Y006925D01*
X004405Y006565D01*
X004825Y006565D01*
X004834Y006517D01*
X004825Y006325D02*
X004834Y006320D01*
X004825Y006325D02*
X004345Y006325D01*
X004345Y006445D01*
X004285Y006505D01*
X004285Y006685D01*
X003865Y007105D01*
X003385Y007105D01*
X003385Y006025D01*
X002845Y006025D01*
X002785Y005965D01*
X002785Y004765D01*
X004285Y004765D01*
X004285Y003985D01*
X004345Y003985D01*
X004345Y003145D01*
X004576Y003608D02*
X004585Y003625D01*
X005065Y003625D01*
X005104Y003608D01*
X005125Y003625D01*
X005305Y003805D01*
X005305Y004825D01*
X005336Y004834D01*
X005139Y004834D02*
X005125Y004825D01*
X004945Y004645D01*
X004945Y004225D01*
X004705Y003985D01*
X004345Y003985D01*
X004561Y004285D02*
X004585Y004285D01*
X004825Y004525D01*
X004825Y005125D01*
X004834Y005139D01*
X004834Y005336D02*
X004885Y005365D01*
X004885Y005485D01*
X004834Y005533D01*
X004825Y005485D01*
X004285Y004945D01*
X004285Y004765D01*
X004834Y005533D02*
X004885Y005545D01*
X004885Y005725D01*
X004834Y005730D01*
X005927Y004834D02*
X005965Y004825D01*
X005965Y004645D01*
X006205Y004405D01*
X006745Y004645D02*
X006745Y004825D01*
X006714Y004834D01*
X006745Y004645D02*
X006865Y004525D01*
X009565Y004525D01*
X007525Y005005D02*
X007225Y004705D01*
X006925Y004705D01*
X006925Y004825D01*
X006911Y004834D01*
X007525Y005005D02*
X007525Y008605D01*
X008605Y009685D01*
X008628Y009694D01*
X007225Y009685D02*
X007225Y006925D01*
X007216Y006911D01*
X005545Y008005D02*
X005557Y008061D01*
X005545Y008005D02*
X005245Y007705D01*
X005005Y007525D02*
X005005Y007345D01*
X005125Y007225D01*
X005139Y007216D01*
X005565Y008679D02*
X005545Y008725D01*
X005365Y008905D01*
X005365Y009025D01*
X005037Y009687D02*
X005005Y009685D01*
X004285Y009685D01*
X004269Y009683D01*
X004225Y009685D01*
X003565Y009685D01*
X003517Y009694D01*
X003385Y009685D01*
X003385Y007105D01*
X003385Y009685D02*
X002785Y009685D01*
X002773Y009683D01*
X003385Y009685D02*
X003505Y009685D01*
X003517Y009694D01*
X007104Y009687D02*
X007105Y009685D01*
X007225Y009685D01*
D25*
X005365Y009025D03*
X004765Y008965D03*
X005245Y007705D03*
X005005Y007525D03*
X004105Y007705D03*
X004345Y003145D03*
M02*
