G75*
G70*
%OFA0B0*%
%FSLAX24Y24*%
%IPPOS*%
%LPD*%
%AMOC8*
5,1,8,0,0,1.08239X$1,22.5*
%
%ADD10C,0.0098*%
%ADD11R,0.0266X0.0098*%
%ADD12R,0.0098X0.0266*%
%ADD13R,0.1555X0.1571*%
%ADD14R,0.0354X0.0276*%
%ADD15R,0.0276X0.0354*%
%ADD16R,0.0433X0.0394*%
%ADD17C,0.0020*%
%ADD18R,0.0276X0.0551*%
%ADD19R,0.0138X0.0394*%
%ADD20R,0.0256X0.0394*%
%ADD21R,0.0630X0.0394*%
D10*
X004962Y005139D03*
X005139Y004962D03*
X005336Y004962D03*
X005533Y004962D03*
X005730Y004962D03*
X005927Y004962D03*
X006124Y004962D03*
X006320Y004962D03*
X006517Y004962D03*
X006714Y004962D03*
X006911Y004962D03*
X007088Y005139D03*
X007088Y005336D03*
X007088Y005533D03*
X007088Y005730D03*
X007088Y005927D03*
X007088Y006124D03*
X007088Y006320D03*
X007088Y006517D03*
X007088Y006714D03*
X007088Y006911D03*
X006911Y007088D03*
X006714Y007088D03*
X006517Y007088D03*
X006320Y007088D03*
X006124Y007088D03*
X005927Y007088D03*
X005730Y007088D03*
X005533Y007088D03*
X005336Y007088D03*
X005139Y007088D03*
X004962Y006911D03*
X004962Y006714D03*
X004962Y006517D03*
X004962Y006320D03*
X004962Y006124D03*
X004962Y005927D03*
X004962Y005730D03*
X004962Y005533D03*
X004962Y005336D03*
D11*
X004829Y005336D03*
X004829Y005533D03*
X004829Y005730D03*
X004829Y005927D03*
X004829Y006124D03*
X004829Y006320D03*
X004829Y006517D03*
X004829Y006714D03*
X004829Y006911D03*
X004829Y005139D03*
X007221Y005139D03*
X007221Y005336D03*
X007221Y005533D03*
X007221Y005730D03*
X007221Y005927D03*
X007221Y006124D03*
X007221Y006320D03*
X007221Y006517D03*
X007221Y006714D03*
X007221Y006911D03*
D12*
X006911Y007221D03*
X006714Y007221D03*
X006517Y007221D03*
X006320Y007221D03*
X006124Y007221D03*
X005927Y007221D03*
X005730Y007221D03*
X005533Y007221D03*
X005336Y007221D03*
X005139Y007221D03*
X005139Y004829D03*
X005336Y004829D03*
X005533Y004829D03*
X005730Y004829D03*
X005927Y004829D03*
X006124Y004829D03*
X006320Y004829D03*
X006517Y004829D03*
X006714Y004829D03*
X006911Y004829D03*
D13*
X006025Y006025D03*
D14*
X003076Y006277D03*
X003076Y005765D03*
X002368Y005765D03*
X002368Y006277D03*
X002773Y009683D03*
X002773Y010194D03*
X003517Y010206D03*
X003517Y009694D03*
X004269Y009683D03*
X004269Y010194D03*
X005037Y010198D03*
X005037Y009687D03*
X007104Y009687D03*
X007104Y010198D03*
X007899Y010202D03*
X007899Y009691D03*
X008628Y009694D03*
X008628Y010206D03*
X009348Y010183D03*
X009348Y009671D03*
X010088Y009588D03*
X010088Y009076D03*
D15*
X004065Y003608D03*
X004576Y003608D03*
X004561Y004285D03*
X004049Y004285D03*
X006246Y003608D03*
X006757Y003608D03*
X006069Y008061D03*
X005557Y008061D03*
X005565Y008679D03*
X006076Y008679D03*
D16*
X004403Y008655D03*
X003734Y008655D03*
X003734Y008104D03*
D17*
X004196Y008097D02*
X004610Y008097D01*
X004610Y008079D02*
X004196Y008079D01*
X004196Y008060D02*
X004610Y008060D01*
X004610Y008042D02*
X004196Y008042D01*
X004196Y008023D02*
X004610Y008023D01*
X004610Y008005D02*
X004196Y008005D01*
X004196Y007986D02*
X004610Y007986D01*
X004610Y007968D02*
X004196Y007968D01*
X004196Y007949D02*
X004610Y007949D01*
X004610Y007931D02*
X004196Y007931D01*
X004196Y007917D02*
X004196Y008193D01*
X004295Y008291D01*
X004610Y008291D01*
X004610Y007917D01*
X004196Y007917D01*
X004196Y008116D02*
X004610Y008116D01*
X004610Y008134D02*
X004196Y008134D01*
X004196Y008153D02*
X004610Y008153D01*
X004610Y008171D02*
X004196Y008171D01*
X004196Y008190D02*
X004610Y008190D01*
X004610Y008208D02*
X004212Y008208D01*
X004231Y008227D02*
X004610Y008227D01*
X004610Y008245D02*
X004249Y008245D01*
X004268Y008264D02*
X004610Y008264D01*
X004610Y008282D02*
X004286Y008282D01*
D18*
X005104Y003608D03*
X005773Y003608D03*
D19*
X004116Y005771D03*
X003860Y005771D03*
X003604Y005771D03*
X003604Y006460D03*
X003860Y006460D03*
X004116Y006460D03*
D20*
X001124Y006273D03*
X000730Y006273D03*
D21*
X000946Y007915D03*
M02*
