%
M48
M72
T01C0.0060
T02C0.0080
%
T01
X2249Y2104
X1607Y2807
X2657Y2879
X3205Y3186
X3331Y2814
X3789Y3084
X4138Y3241
X4509Y3084
X4576Y3370
X4878Y3401
X4803Y3671
X5195Y3644
X5183Y3182
X4878Y2971
X4596Y2508
X4103Y2818
X4184Y3581
X3667Y3585
X3142Y4039
X2265Y4533
X1997Y4358
X1446Y4227
X1394Y4533
X988Y4561
X807Y4278
X637Y4568
X551Y4840
X913Y5014
X1208Y5014
X1523Y5014
X1838Y5014
X2122Y5014
X3137Y4974
X3572Y4979
X3549Y5864
X3549Y6065
X3549Y6266
X3549Y6478
X3549Y6698
X3549Y6941
X3549Y7168
X3549Y7403
X3318Y7403
X3075Y7403
X2825Y7403
X2609Y7403
X2389Y7403
X2158Y7403
X1945Y7403
X1733Y7403
X1435Y7596
X1152Y7610
X884Y7632
X1577Y8248
X2290Y8951
X3146Y9542
X4124Y9929
X4216Y9196
X4703Y8817
X5217Y8758
X5306Y8176
X5838Y7546
X5162Y6813
X3972Y7503
X2779Y8166
X6208Y8664
X7312Y8120
X7784Y8723
X8180Y9226
X6825Y9817
X9135Y6901
X10238Y6944
X10866Y6944
X11139Y7354
X10317Y6174
X8823Y5347
X10222Y4838
X10629Y4598
X10999Y4482
X11006Y4823
X11340Y4606
X11362Y4199
X10927Y4104
X10266Y4279
X9787Y3248
X9015Y2094
X8241Y1483
X7466Y1075
X7001Y1307
X7151Y2043
X7935Y3233
X7151Y3277
X6643Y3313
X6243Y3342
X4471Y1890
X3814Y1753
X3248Y2206
X3085Y1380
X3818Y942
X1271Y3551
X2096Y3633
X5096Y5477
X5982Y5295
X6177Y5696
X6387Y6087
X14007Y5742
X14525Y5715
T02
X12563Y5981
X11502Y6407
X7636Y4581
X6873Y6426
M30
