G75*
G70*
%OFA0B0*%
%FSLAX24Y24*%
%IPPOS*%
%LPD*%
%AMOC8*
5,1,8,0,0,1.08239X$1,22.5*
%
%ADD10C,0.0010*%
%ADD11R,0.0394X0.0250*%
%ADD12R,0.0250X0.0394*%
%ADD13R,0.0276X0.0354*%
%ADD14R,0.0299X0.0945*%
%ADD15R,0.0256X0.0394*%
%ADD16R,0.0630X0.0394*%
%ADD17R,0.0354X0.0276*%
%ADD18C,0.0080*%
%ADD19C,0.0060*%
%ADD20C,0.0180*%
%ADD21C,0.0200*%
D10*
X010720Y003509D02*
X010611Y003263D01*
X010490Y003022D01*
X010357Y002788D01*
X010213Y002561D01*
X010059Y002341D01*
X009893Y002128D01*
X009718Y001924D01*
X009533Y001729D01*
X009338Y001543D01*
X009135Y001367D01*
X008924Y001201D01*
X008704Y001045D01*
X008477Y000901D01*
X008244Y000767D01*
X008004Y000645D01*
X007759Y000535D01*
X007508Y000437D01*
X007253Y000351D01*
X006994Y000278D01*
X006732Y000218D01*
X006467Y000170D01*
X006201Y000135D01*
X005932Y000114D01*
X005663Y000105D01*
X005394Y000110D01*
X005126Y000127D01*
X004859Y000158D01*
X004593Y000202D01*
X004330Y000259D01*
X004070Y000328D01*
X003814Y000410D01*
X003562Y000504D01*
X003315Y000611D01*
X003074Y000729D01*
X002838Y000859D01*
X002609Y001001D01*
X002388Y001153D01*
X002174Y001316D01*
X001968Y001489D01*
X001771Y001672D01*
X001583Y001865D01*
X001404Y002066D01*
X001236Y002276D01*
X001078Y002494D01*
X000931Y002719D01*
X000795Y002951D01*
X000670Y003190D01*
X000558Y003434D01*
X000457Y003683D01*
X000369Y003938D01*
X000293Y004196D01*
X000230Y004457D01*
X000179Y004721D01*
X000142Y004988D01*
X000117Y005256D01*
X000106Y005524D01*
X000108Y005793D01*
X000122Y006062D01*
X000150Y006330D01*
X000191Y006596D01*
X000245Y006859D01*
X000312Y007120D01*
X000391Y007377D01*
X000483Y007630D01*
X000587Y007878D01*
X000703Y008121D01*
X000830Y008358D01*
X000969Y008588D01*
X001119Y008811D01*
X001280Y009027D01*
X001451Y009235D01*
X001632Y009434D01*
X001823Y009624D01*
X002022Y009804D01*
X002230Y009975D01*
X002446Y010135D01*
X002670Y010284D01*
X002901Y010423D01*
X003138Y010550D01*
X003381Y010665D01*
X003629Y010768D01*
X003882Y010859D01*
X004140Y010938D01*
X004400Y011004D01*
X004664Y011057D01*
X004930Y011097D01*
X005198Y011125D01*
X005466Y011139D01*
X005735Y011140D01*
X006004Y011128D01*
X006272Y011103D01*
X006538Y011065D01*
X006802Y011013D01*
X007064Y010950D01*
X007322Y010873D01*
X007576Y010784D01*
X007825Y010683D01*
X008069Y010569D01*
X008307Y010444D01*
X008539Y010308D01*
X008764Y010160D01*
X008981Y010002D01*
X009190Y009833D01*
X009391Y009654D01*
X009583Y009465D01*
X009766Y009268D01*
X009939Y009062D01*
X010101Y008847D01*
X010253Y008625D01*
X010394Y008396D01*
X010523Y008160D01*
X010641Y007918D01*
X010637Y007919D02*
X015635Y007919D01*
X015635Y003506D01*
X010718Y003506D01*
D11*
X004089Y005079D03*
X004089Y005473D03*
X004089Y005866D03*
D12*
X006451Y007244D03*
X006845Y007244D03*
X007238Y007244D03*
X007632Y007244D03*
X008026Y007244D03*
X008419Y007244D03*
X008813Y007244D03*
X008813Y004095D03*
X008419Y004095D03*
X008026Y004095D03*
X007632Y004095D03*
X007238Y004095D03*
X006845Y004095D03*
X006451Y004095D03*
D13*
X008692Y002886D03*
X009203Y002886D03*
X009190Y008461D03*
X008679Y008461D03*
D14*
X012062Y006772D03*
X012562Y006772D03*
X013062Y006772D03*
X013562Y006772D03*
X014062Y006772D03*
X014062Y004449D03*
X013562Y004449D03*
X013062Y004449D03*
X012562Y004449D03*
X012062Y004449D03*
D15*
X001333Y005474D03*
X000939Y005474D03*
D16*
X001156Y007116D03*
D17*
X002572Y005479D03*
X002572Y004967D03*
D18*
X002093Y001674D02*
X009091Y001674D01*
X009001Y001596D02*
X002185Y001596D01*
X002277Y001517D02*
X008910Y001517D01*
X008865Y001478D02*
X008426Y001168D01*
X007957Y000905D01*
X007464Y000690D01*
X006952Y000526D01*
X006426Y000414D01*
X005891Y000357D01*
X005353Y000354D01*
X004818Y000405D01*
X004291Y000510D01*
X003777Y000669D01*
X003281Y000878D01*
X002810Y001137D01*
X002367Y001441D01*
X001957Y001790D01*
X001584Y002177D01*
X001253Y002601D01*
X000966Y003056D01*
X000727Y003538D01*
X000538Y004041D01*
X000401Y004561D01*
X000317Y005092D01*
X002254Y005092D01*
X002254Y004996D01*
X002543Y004996D01*
X002543Y004939D01*
X002254Y004939D01*
X002254Y004811D01*
X002264Y004776D01*
X002282Y004744D01*
X002308Y004718D01*
X002340Y004699D01*
X002376Y004690D01*
X002543Y004690D01*
X002543Y004938D01*
X002600Y004938D01*
X002600Y004690D01*
X002767Y004690D01*
X002803Y004699D01*
X002835Y004718D01*
X002861Y004744D01*
X002879Y004776D01*
X002889Y004811D01*
X002889Y004939D01*
X002600Y004939D01*
X002600Y004996D01*
X002889Y004996D01*
X002889Y005092D01*
X004066Y005092D01*
X004066Y005057D01*
X003752Y005057D01*
X003752Y004936D01*
X003761Y004900D01*
X003780Y004868D01*
X003806Y004842D01*
X003838Y004824D01*
X003873Y004814D01*
X004066Y004814D01*
X004066Y005057D01*
X004111Y005057D01*
X004111Y005092D01*
X004431Y005092D01*
X004431Y005719D01*
X004424Y005719D01*
X004425Y005723D01*
X004425Y005844D01*
X004111Y005844D01*
X004111Y005889D01*
X004066Y005889D01*
X004066Y005844D01*
X003752Y005844D01*
X003752Y005723D01*
X003753Y005719D01*
X003383Y005719D01*
X003383Y007198D01*
X001611Y007198D01*
X001611Y007331D01*
X001601Y007367D01*
X001583Y007399D01*
X001557Y007425D01*
X001525Y007443D01*
X001489Y007453D01*
X001196Y007453D01*
X001196Y007198D01*
X001116Y007198D01*
X001116Y007453D01*
X000822Y007453D01*
X000787Y007443D01*
X000755Y007425D01*
X000729Y007399D01*
X000710Y007367D01*
X000701Y007331D01*
X000701Y007198D01*
X000517Y007198D01*
X000699Y007704D01*
X000932Y008189D01*
X001212Y008648D01*
X001538Y009076D01*
X001905Y009469D01*
X002310Y009822D01*
X002749Y010133D01*
X003217Y010398D01*
X003710Y010614D01*
X004222Y010779D01*
X004748Y010892D01*
X005282Y010950D01*
X005820Y010954D01*
X006355Y010904D01*
X006883Y010800D01*
X007397Y010643D01*
X007893Y010434D01*
X008365Y010177D01*
X008809Y009873D01*
X009219Y009526D01*
X009593Y009139D01*
X009925Y008716D01*
X010213Y008261D01*
X010453Y007780D01*
X010643Y007277D01*
X010782Y006757D01*
X010867Y006226D01*
X010893Y005777D01*
X009901Y005777D01*
X009901Y008519D01*
X009819Y008601D01*
X009428Y008601D01*
X009428Y008680D01*
X009370Y008738D01*
X009011Y008738D01*
X008953Y008680D01*
X008953Y008243D01*
X009011Y008184D01*
X009370Y008184D01*
X009428Y008243D01*
X009428Y008321D01*
X009621Y008321D01*
X009621Y005579D01*
X009703Y005497D01*
X010889Y005497D01*
X010884Y005375D01*
X009510Y005375D01*
X009428Y005293D01*
X009428Y003769D01*
X007378Y003769D01*
X007378Y003798D01*
X007405Y003798D01*
X007435Y003828D01*
X007465Y003798D01*
X007798Y003798D01*
X007829Y003828D01*
X007859Y003798D01*
X008192Y003798D01*
X008222Y003828D01*
X008253Y003798D01*
X008586Y003798D01*
X008616Y003828D01*
X008647Y003798D01*
X008979Y003798D01*
X009038Y003857D01*
X009038Y004333D01*
X008979Y004392D01*
X008647Y004392D01*
X008616Y004361D01*
X008586Y004392D01*
X008253Y004392D01*
X008222Y004361D01*
X008192Y004392D01*
X007859Y004392D01*
X007829Y004361D01*
X007798Y004392D01*
X007776Y004392D01*
X007776Y004438D01*
X007836Y004498D01*
X007836Y004664D01*
X007718Y004781D01*
X007553Y004781D01*
X007436Y004664D01*
X007436Y004498D01*
X007496Y004438D01*
X007496Y004392D01*
X007465Y004392D01*
X007435Y004361D01*
X007405Y004392D01*
X007072Y004392D01*
X007041Y004361D01*
X007013Y004390D01*
X007013Y006283D01*
X007073Y006343D01*
X007073Y006509D01*
X006955Y006626D01*
X006790Y006626D01*
X006673Y006509D01*
X006673Y006343D01*
X006733Y006283D01*
X006733Y004392D01*
X006678Y004392D01*
X006676Y004390D01*
X006662Y004404D01*
X006630Y004422D01*
X006594Y004432D01*
X006473Y004432D01*
X006473Y004117D01*
X006428Y004117D01*
X006428Y004072D01*
X006473Y004072D01*
X006473Y003758D01*
X006594Y003758D01*
X006630Y003768D01*
X006662Y003786D01*
X006676Y003800D01*
X006678Y003798D01*
X007011Y003798D01*
X007041Y003828D01*
X007072Y003798D01*
X007098Y003798D01*
X007098Y003571D01*
X007180Y003489D01*
X009626Y003489D01*
X009708Y003571D01*
X009708Y005095D01*
X010866Y005095D01*
X010796Y004620D01*
X010665Y004099D01*
X010481Y003593D01*
X010247Y003109D01*
X009966Y002651D01*
X009639Y002223D01*
X009271Y001831D01*
X008865Y001478D01*
X008809Y001439D02*
X002371Y001439D01*
X002485Y001360D02*
X008698Y001360D01*
X008587Y001282D02*
X002599Y001282D01*
X002713Y001203D02*
X008475Y001203D01*
X008348Y001125D02*
X002831Y001125D01*
X002974Y001046D02*
X008209Y001046D01*
X008070Y000968D02*
X003118Y000968D01*
X003261Y000889D02*
X007922Y000889D01*
X007742Y000811D02*
X003440Y000811D01*
X003626Y000732D02*
X007562Y000732D01*
X007353Y000654D02*
X003825Y000654D01*
X004080Y000575D02*
X007107Y000575D01*
X006816Y000497D02*
X004359Y000497D01*
X004752Y000418D02*
X006445Y000418D01*
X009181Y001753D02*
X002000Y001753D01*
X001917Y001831D02*
X009271Y001831D01*
X009345Y001910D02*
X001841Y001910D01*
X001766Y001988D02*
X009419Y001988D01*
X009493Y002067D02*
X001691Y002067D01*
X001615Y002145D02*
X009566Y002145D01*
X009640Y002224D02*
X001548Y002224D01*
X001487Y002302D02*
X009700Y002302D01*
X009760Y002381D02*
X001425Y002381D01*
X001364Y002459D02*
X009820Y002459D01*
X009880Y002538D02*
X001303Y002538D01*
X001243Y002616D02*
X008505Y002616D01*
X008512Y002609D02*
X008871Y002609D01*
X008929Y002668D01*
X008929Y002677D01*
X008935Y002655D01*
X008954Y002623D01*
X008980Y002597D01*
X009012Y002579D01*
X009047Y002569D01*
X009175Y002569D01*
X009175Y002857D01*
X009232Y002857D01*
X009232Y002569D01*
X009360Y002569D01*
X009395Y002579D01*
X009427Y002597D01*
X009453Y002623D01*
X009472Y002655D01*
X009481Y002691D01*
X009481Y002857D01*
X009232Y002857D01*
X009232Y002915D01*
X009175Y002915D01*
X009175Y003203D01*
X009047Y003203D01*
X009012Y003194D01*
X008980Y003176D01*
X008954Y003149D01*
X008935Y003118D01*
X008929Y003096D01*
X008929Y003105D01*
X008871Y003163D01*
X008512Y003163D01*
X008454Y003105D01*
X008454Y003026D01*
X005762Y003026D01*
X005762Y006552D01*
X006509Y006552D01*
X006591Y006634D01*
X006591Y006948D01*
X006617Y006948D01*
X006648Y006978D01*
X006678Y006948D01*
X007011Y006948D01*
X007041Y006978D01*
X007072Y006948D01*
X007405Y006948D01*
X007435Y006978D01*
X007465Y006948D01*
X007798Y006948D01*
X007829Y006978D01*
X007859Y006948D01*
X008192Y006948D01*
X008222Y006978D01*
X008253Y006948D01*
X008586Y006948D01*
X008616Y006978D01*
X008647Y006948D01*
X008979Y006948D01*
X009038Y007006D01*
X009038Y007483D01*
X008979Y007541D01*
X008647Y007541D01*
X008616Y007511D01*
X008586Y007541D01*
X008253Y007541D01*
X008222Y007511D01*
X008192Y007541D01*
X007859Y007541D01*
X007829Y007511D01*
X007798Y007541D01*
X007465Y007541D01*
X007435Y007511D01*
X007405Y007541D01*
X007072Y007541D01*
X007041Y007511D01*
X007011Y007541D01*
X006678Y007541D01*
X006648Y007511D01*
X006617Y007541D01*
X006590Y007541D01*
X006590Y008298D01*
X008441Y008298D01*
X008441Y008243D01*
X008499Y008184D01*
X008858Y008184D01*
X008916Y008243D01*
X008916Y008680D01*
X008858Y008738D01*
X008499Y008738D01*
X008441Y008680D01*
X008441Y008578D01*
X006392Y008578D01*
X006310Y008496D01*
X006310Y007541D01*
X006284Y007541D01*
X006226Y007483D01*
X006226Y007006D01*
X006284Y006948D01*
X006311Y006948D01*
X006311Y006832D01*
X005564Y006832D01*
X005482Y006750D01*
X005482Y002828D01*
X005564Y002746D01*
X008454Y002746D01*
X008454Y002668D01*
X008512Y002609D01*
X008454Y002695D02*
X001194Y002695D01*
X001144Y002773D02*
X005537Y002773D01*
X005482Y002852D02*
X001095Y002852D01*
X001046Y002930D02*
X005482Y002930D01*
X005482Y003009D02*
X000996Y003009D01*
X000951Y003087D02*
X005482Y003087D01*
X005482Y003166D02*
X000912Y003166D01*
X000873Y003244D02*
X005482Y003244D01*
X005482Y003323D02*
X000834Y003323D01*
X000795Y003401D02*
X005482Y003401D01*
X005482Y003480D02*
X000756Y003480D01*
X000719Y003558D02*
X005482Y003558D01*
X005482Y003637D02*
X000690Y003637D01*
X000660Y003715D02*
X005482Y003715D01*
X005482Y003794D02*
X000631Y003794D01*
X000601Y003872D02*
X005482Y003872D01*
X005482Y003951D02*
X000572Y003951D01*
X000542Y004029D02*
X005482Y004029D01*
X005482Y004108D02*
X000520Y004108D01*
X000499Y004186D02*
X005482Y004186D01*
X005482Y004265D02*
X000479Y004265D01*
X000458Y004343D02*
X005482Y004343D01*
X005482Y004422D02*
X000437Y004422D01*
X000417Y004500D02*
X005482Y004500D01*
X005482Y004579D02*
X000398Y004579D01*
X000385Y004657D02*
X005482Y004657D01*
X005482Y004736D02*
X002853Y004736D01*
X002889Y004814D02*
X003872Y004814D01*
X003765Y004893D02*
X002889Y004893D01*
X002889Y005050D02*
X003752Y005050D01*
X003752Y004971D02*
X002600Y004971D01*
X002543Y004971D02*
X000336Y004971D01*
X000348Y004893D02*
X002254Y004893D01*
X002254Y004814D02*
X000361Y004814D01*
X000373Y004736D02*
X002290Y004736D01*
X002543Y004736D02*
X002600Y004736D01*
X002600Y004814D02*
X002543Y004814D01*
X002543Y004893D02*
X002600Y004893D01*
X002254Y005050D02*
X000323Y005050D01*
X001333Y005474D02*
X002614Y005474D01*
X004089Y005474D01*
X004089Y005473D01*
X004431Y005442D02*
X005482Y005442D01*
X005482Y005364D02*
X004431Y005364D01*
X004431Y005285D02*
X005482Y005285D01*
X005482Y005207D02*
X004431Y005207D01*
X004431Y005128D02*
X005482Y005128D01*
X005482Y005050D02*
X004425Y005050D01*
X004425Y005057D02*
X004111Y005057D01*
X004111Y004814D01*
X004304Y004814D01*
X004339Y004824D01*
X004371Y004842D01*
X004397Y004868D01*
X004416Y004900D01*
X004425Y004936D01*
X004425Y005057D01*
X004425Y004971D02*
X005482Y004971D01*
X005482Y004893D02*
X004412Y004893D01*
X004305Y004814D02*
X005482Y004814D01*
X005762Y004814D02*
X006733Y004814D01*
X006733Y004736D02*
X005762Y004736D01*
X005762Y004657D02*
X006733Y004657D01*
X006733Y004579D02*
X005762Y004579D01*
X005762Y004500D02*
X006733Y004500D01*
X006733Y004422D02*
X006630Y004422D01*
X006473Y004422D02*
X006428Y004422D01*
X006428Y004432D02*
X006307Y004432D01*
X006272Y004422D01*
X006240Y004404D01*
X006214Y004378D01*
X006195Y004346D01*
X006186Y004310D01*
X006186Y004117D01*
X006428Y004117D01*
X006428Y004432D01*
X006428Y004343D02*
X006473Y004343D01*
X006473Y004265D02*
X006428Y004265D01*
X006428Y004186D02*
X006473Y004186D01*
X006428Y004108D02*
X005762Y004108D01*
X005762Y004186D02*
X006186Y004186D01*
X006186Y004265D02*
X005762Y004265D01*
X005762Y004343D02*
X006195Y004343D01*
X006271Y004422D02*
X005762Y004422D01*
X006186Y004072D02*
X006186Y003880D01*
X006195Y003844D01*
X006214Y003812D01*
X006240Y003786D01*
X006272Y003768D01*
X006307Y003758D01*
X006428Y003758D01*
X006428Y004072D01*
X006186Y004072D01*
X006186Y004029D02*
X005762Y004029D01*
X005762Y003951D02*
X006186Y003951D01*
X006188Y003872D02*
X005762Y003872D01*
X005762Y003794D02*
X006232Y003794D01*
X006428Y003794D02*
X006473Y003794D01*
X006473Y003872D02*
X006428Y003872D01*
X006428Y003951D02*
X006473Y003951D01*
X006473Y004029D02*
X006428Y004029D01*
X006670Y003794D02*
X007098Y003794D01*
X007098Y003715D02*
X005762Y003715D01*
X005762Y003637D02*
X007098Y003637D01*
X007111Y003558D02*
X005762Y003558D01*
X005762Y003480D02*
X010426Y003480D01*
X010389Y003401D02*
X005762Y003401D01*
X005762Y003323D02*
X010351Y003323D01*
X010313Y003244D02*
X005762Y003244D01*
X005762Y003166D02*
X008970Y003166D01*
X009175Y003166D02*
X009232Y003166D01*
X009232Y003203D02*
X009232Y002915D01*
X009481Y002915D01*
X009481Y003082D01*
X009472Y003118D01*
X009453Y003149D01*
X009427Y003176D01*
X009395Y003194D01*
X009360Y003203D01*
X009232Y003203D01*
X009232Y003087D02*
X009175Y003087D01*
X009175Y003009D02*
X009232Y003009D01*
X009232Y002930D02*
X009175Y002930D01*
X009175Y002852D02*
X009232Y002852D01*
X009232Y002773D02*
X009175Y002773D01*
X009175Y002695D02*
X009232Y002695D01*
X009232Y002616D02*
X009175Y002616D01*
X008961Y002616D02*
X008878Y002616D01*
X008692Y002886D02*
X005622Y002886D01*
X005622Y006692D01*
X006451Y006692D01*
X006451Y007244D01*
X006450Y007244D01*
X006450Y008438D01*
X008679Y008438D01*
X008679Y008461D01*
X008916Y008425D02*
X008953Y008425D01*
X008953Y008347D02*
X008916Y008347D01*
X008916Y008268D02*
X008953Y008268D01*
X009006Y008190D02*
X008864Y008190D01*
X008916Y008504D02*
X008953Y008504D01*
X008953Y008582D02*
X008916Y008582D01*
X008916Y008661D02*
X008953Y008661D01*
X009190Y008461D02*
X009761Y008461D01*
X009761Y005637D01*
X013562Y005637D01*
X013562Y004449D01*
X013812Y004422D02*
X013812Y004422D01*
X013812Y004500D02*
X013812Y004500D01*
X013812Y004579D02*
X013812Y004579D01*
X013812Y004657D02*
X013812Y004657D01*
X013812Y004736D02*
X013812Y004736D01*
X013812Y004814D02*
X013812Y004814D01*
X013812Y004893D02*
X013812Y004893D01*
X013812Y004963D02*
X013812Y003935D01*
X013871Y003877D01*
X014253Y003877D01*
X014312Y003935D01*
X014312Y004309D01*
X015050Y004309D01*
X015132Y004391D01*
X015132Y007596D01*
X015050Y007678D01*
X012004Y007678D01*
X011922Y007596D01*
X011922Y007345D01*
X011871Y007345D01*
X011812Y007286D01*
X011812Y006547D01*
X011644Y006547D01*
X011584Y006607D01*
X011419Y006607D01*
X011302Y006490D01*
X011302Y006324D01*
X011419Y006207D01*
X011584Y006207D01*
X011644Y006267D01*
X011812Y006267D01*
X011812Y006258D01*
X011871Y006200D01*
X012253Y006200D01*
X012312Y006258D01*
X012371Y006200D01*
X012422Y006200D01*
X012422Y006123D01*
X012363Y006064D01*
X012363Y005898D01*
X012480Y005781D01*
X012645Y005781D01*
X012763Y005898D01*
X012763Y006064D01*
X012702Y006125D01*
X012702Y006200D01*
X012753Y006200D01*
X012812Y006258D01*
X012871Y006200D01*
X013253Y006200D01*
X013312Y006258D01*
X013371Y006200D01*
X013753Y006200D01*
X013812Y006258D01*
X013871Y006200D01*
X014253Y006200D01*
X014312Y006258D01*
X014312Y007286D01*
X014253Y007345D01*
X013871Y007345D01*
X013812Y007286D01*
X013812Y006258D01*
X013812Y007286D01*
X013753Y007345D01*
X013371Y007345D01*
X013312Y007286D01*
X013312Y006258D01*
X013312Y007286D01*
X013253Y007345D01*
X012871Y007345D01*
X012812Y007286D01*
X012812Y006258D01*
X012812Y007286D01*
X012753Y007345D01*
X012371Y007345D01*
X012312Y007286D01*
X012312Y006258D01*
X012312Y007286D01*
X012253Y007345D01*
X012202Y007345D01*
X012202Y007398D01*
X014852Y007398D01*
X014852Y004589D01*
X014312Y004589D01*
X014312Y004963D01*
X014253Y005022D01*
X013871Y005022D01*
X013812Y004963D01*
X013753Y005022D01*
X013702Y005022D01*
X013702Y005695D01*
X013620Y005777D01*
X010494Y005777D01*
X010494Y007704D01*
X015481Y007704D01*
X015481Y003631D01*
X010749Y003631D01*
X010719Y003644D01*
X010690Y003631D01*
X010666Y003631D01*
X010494Y003631D01*
X010494Y005095D01*
X012402Y005095D01*
X012402Y005022D01*
X012371Y005022D01*
X012336Y004987D01*
X012324Y005008D01*
X012298Y005034D01*
X012266Y005052D01*
X012230Y005062D01*
X012097Y005062D01*
X012097Y004484D01*
X012027Y004484D01*
X012027Y004415D01*
X011772Y004415D01*
X011772Y003958D01*
X011782Y003923D01*
X011800Y003891D01*
X011826Y003865D01*
X011858Y003846D01*
X011894Y003837D01*
X012027Y003837D01*
X012027Y004415D01*
X012097Y004415D01*
X012097Y003837D01*
X012230Y003837D01*
X012266Y003846D01*
X012298Y003865D01*
X012324Y003891D01*
X012336Y003912D01*
X012371Y003877D01*
X012753Y003877D01*
X012812Y003935D01*
X012871Y003877D01*
X013253Y003877D01*
X013312Y003935D01*
X013371Y003877D01*
X013753Y003877D01*
X013812Y003935D01*
X013812Y004963D01*
X013820Y004971D02*
X013803Y004971D01*
X013702Y005050D02*
X014852Y005050D01*
X014852Y005128D02*
X013702Y005128D01*
X013702Y005207D02*
X014852Y005207D01*
X014852Y005285D02*
X013702Y005285D01*
X013702Y005364D02*
X014852Y005364D01*
X014852Y005442D02*
X013702Y005442D01*
X013702Y005521D02*
X014852Y005521D01*
X014852Y005599D02*
X013702Y005599D01*
X013702Y005678D02*
X014852Y005678D01*
X014852Y005756D02*
X013641Y005756D01*
X013422Y005497D02*
X013422Y005022D01*
X013371Y005022D01*
X013312Y004963D01*
X013312Y003935D01*
X013312Y004963D01*
X013253Y005022D01*
X012871Y005022D01*
X012812Y004963D01*
X012812Y003935D01*
X012812Y004963D01*
X012753Y005022D01*
X012682Y005022D01*
X012682Y005293D01*
X012600Y005375D01*
X010494Y005375D01*
X010494Y005497D01*
X013422Y005497D01*
X013422Y005442D02*
X010494Y005442D01*
X010887Y005442D02*
X007013Y005442D01*
X007013Y005364D02*
X009498Y005364D01*
X009428Y005285D02*
X007013Y005285D01*
X007013Y005207D02*
X009428Y005207D01*
X009428Y005128D02*
X007013Y005128D01*
X007013Y005050D02*
X009428Y005050D01*
X009428Y004971D02*
X007013Y004971D01*
X007013Y004893D02*
X009428Y004893D01*
X009428Y004814D02*
X007013Y004814D01*
X007013Y004736D02*
X007507Y004736D01*
X007436Y004657D02*
X007013Y004657D01*
X007013Y004579D02*
X007436Y004579D01*
X007436Y004500D02*
X007013Y004500D01*
X007013Y004422D02*
X007496Y004422D01*
X007636Y004581D02*
X007636Y004095D01*
X007632Y004095D01*
X007776Y004422D02*
X009428Y004422D01*
X009428Y004500D02*
X007836Y004500D01*
X007836Y004579D02*
X009428Y004579D01*
X009428Y004657D02*
X007836Y004657D01*
X007764Y004736D02*
X009428Y004736D01*
X009708Y004736D02*
X010813Y004736D01*
X010824Y004814D02*
X009708Y004814D01*
X009708Y004893D02*
X010836Y004893D01*
X010847Y004971D02*
X009708Y004971D01*
X009708Y005050D02*
X010859Y005050D01*
X010494Y005050D02*
X011854Y005050D01*
X011858Y005052D02*
X011826Y005034D01*
X011800Y005008D01*
X011782Y004976D01*
X011772Y004940D01*
X011772Y004484D01*
X012027Y004484D01*
X012027Y005062D01*
X011894Y005062D01*
X011858Y005052D01*
X011781Y004971D02*
X010494Y004971D01*
X010494Y004893D02*
X011772Y004893D01*
X011772Y004814D02*
X010494Y004814D01*
X010494Y004736D02*
X011772Y004736D01*
X011772Y004657D02*
X010494Y004657D01*
X010494Y004579D02*
X011772Y004579D01*
X011772Y004500D02*
X010494Y004500D01*
X010494Y004422D02*
X012027Y004422D01*
X012027Y004500D02*
X012097Y004500D01*
X012097Y004579D02*
X012027Y004579D01*
X012027Y004657D02*
X012097Y004657D01*
X012097Y004736D02*
X012027Y004736D01*
X012027Y004814D02*
X012097Y004814D01*
X012097Y004893D02*
X012027Y004893D01*
X012027Y004971D02*
X012097Y004971D01*
X012097Y005050D02*
X012027Y005050D01*
X012270Y005050D02*
X012402Y005050D01*
X012542Y005235D02*
X009568Y005235D01*
X009568Y003629D01*
X007238Y003629D01*
X007238Y004095D01*
X006873Y004095D02*
X006873Y006426D01*
X007035Y006306D02*
X009621Y006306D01*
X009621Y006384D02*
X007073Y006384D01*
X007073Y006463D02*
X009621Y006463D01*
X009621Y006541D02*
X007040Y006541D01*
X006962Y006620D02*
X009621Y006620D01*
X009621Y006698D02*
X006591Y006698D01*
X006591Y006777D02*
X009621Y006777D01*
X009621Y006855D02*
X006591Y006855D01*
X006591Y006934D02*
X009621Y006934D01*
X009621Y007012D02*
X009038Y007012D01*
X009038Y007091D02*
X009621Y007091D01*
X009621Y007169D02*
X009038Y007169D01*
X009038Y007248D02*
X009621Y007248D01*
X009621Y007326D02*
X009038Y007326D01*
X009038Y007405D02*
X009621Y007405D01*
X009621Y007483D02*
X009037Y007483D01*
X009621Y007562D02*
X006590Y007562D01*
X006590Y007640D02*
X009621Y007640D01*
X009621Y007719D02*
X006590Y007719D01*
X006590Y007797D02*
X009621Y007797D01*
X009621Y007876D02*
X006590Y007876D01*
X006590Y007954D02*
X009621Y007954D01*
X009621Y008033D02*
X006590Y008033D01*
X006590Y008111D02*
X009621Y008111D01*
X009621Y008190D02*
X009375Y008190D01*
X009428Y008268D02*
X009621Y008268D01*
X009901Y008268D02*
X010208Y008268D01*
X010248Y008190D02*
X009901Y008190D01*
X009901Y008111D02*
X010288Y008111D01*
X010327Y008033D02*
X009901Y008033D01*
X009901Y007954D02*
X010366Y007954D01*
X010405Y007876D02*
X009901Y007876D01*
X009901Y007797D02*
X010444Y007797D01*
X010476Y007719D02*
X009901Y007719D01*
X009901Y007640D02*
X010506Y007640D01*
X010494Y007640D02*
X011966Y007640D01*
X011922Y007562D02*
X010494Y007562D01*
X010536Y007562D02*
X009901Y007562D01*
X009901Y007483D02*
X010565Y007483D01*
X010494Y007483D02*
X011922Y007483D01*
X011922Y007405D02*
X010494Y007405D01*
X010494Y007326D02*
X011853Y007326D01*
X011812Y007248D02*
X010494Y007248D01*
X010494Y007169D02*
X011812Y007169D01*
X011812Y007091D02*
X010494Y007091D01*
X010494Y007012D02*
X011812Y007012D01*
X011812Y006934D02*
X010494Y006934D01*
X010494Y006855D02*
X011812Y006855D01*
X011812Y006777D02*
X010494Y006777D01*
X010494Y006698D02*
X011812Y006698D01*
X011812Y006620D02*
X010494Y006620D01*
X010494Y006541D02*
X011353Y006541D01*
X011302Y006463D02*
X010494Y006463D01*
X010494Y006384D02*
X011302Y006384D01*
X011320Y006306D02*
X010494Y006306D01*
X010494Y006227D02*
X011399Y006227D01*
X011604Y006227D02*
X011843Y006227D01*
X012062Y006407D02*
X012062Y006772D01*
X012062Y007538D01*
X014992Y007538D01*
X014992Y004449D01*
X014062Y004449D01*
X013812Y004343D02*
X013812Y004343D01*
X013812Y004265D02*
X013812Y004265D01*
X013812Y004186D02*
X013812Y004186D01*
X013812Y004108D02*
X013812Y004108D01*
X013812Y004029D02*
X013812Y004029D01*
X013812Y003951D02*
X013812Y003951D01*
X014312Y003951D02*
X015481Y003951D01*
X015481Y004029D02*
X014312Y004029D01*
X014312Y004108D02*
X015481Y004108D01*
X015481Y004186D02*
X014312Y004186D01*
X014312Y004265D02*
X015481Y004265D01*
X015481Y004343D02*
X015084Y004343D01*
X015132Y004422D02*
X015481Y004422D01*
X015481Y004500D02*
X015132Y004500D01*
X015132Y004579D02*
X015481Y004579D01*
X015481Y004657D02*
X015132Y004657D01*
X015132Y004736D02*
X015481Y004736D01*
X015481Y004814D02*
X015132Y004814D01*
X015132Y004893D02*
X015481Y004893D01*
X015481Y004971D02*
X015132Y004971D01*
X015132Y005050D02*
X015481Y005050D01*
X015481Y005128D02*
X015132Y005128D01*
X015132Y005207D02*
X015481Y005207D01*
X015481Y005285D02*
X015132Y005285D01*
X015132Y005364D02*
X015481Y005364D01*
X015481Y005442D02*
X015132Y005442D01*
X015132Y005521D02*
X015481Y005521D01*
X015481Y005599D02*
X015132Y005599D01*
X015132Y005678D02*
X015481Y005678D01*
X015481Y005756D02*
X015132Y005756D01*
X015132Y005835D02*
X015481Y005835D01*
X015481Y005913D02*
X015132Y005913D01*
X015132Y005992D02*
X015481Y005992D01*
X015481Y006070D02*
X015132Y006070D01*
X015132Y006149D02*
X015481Y006149D01*
X015481Y006227D02*
X015132Y006227D01*
X015132Y006306D02*
X015481Y006306D01*
X015481Y006384D02*
X015132Y006384D01*
X015132Y006463D02*
X015481Y006463D01*
X015481Y006541D02*
X015132Y006541D01*
X015132Y006620D02*
X015481Y006620D01*
X015481Y006698D02*
X015132Y006698D01*
X015132Y006777D02*
X015481Y006777D01*
X015481Y006855D02*
X015132Y006855D01*
X015132Y006934D02*
X015481Y006934D01*
X015481Y007012D02*
X015132Y007012D01*
X015132Y007091D02*
X015481Y007091D01*
X015481Y007169D02*
X015132Y007169D01*
X015132Y007248D02*
X015481Y007248D01*
X015481Y007326D02*
X015132Y007326D01*
X015132Y007405D02*
X015481Y007405D01*
X015481Y007483D02*
X015132Y007483D01*
X015132Y007562D02*
X015481Y007562D01*
X015481Y007640D02*
X015088Y007640D01*
X014852Y007326D02*
X014271Y007326D01*
X014312Y007248D02*
X014852Y007248D01*
X014852Y007169D02*
X014312Y007169D01*
X014312Y007091D02*
X014852Y007091D01*
X014852Y007012D02*
X014312Y007012D01*
X014312Y006934D02*
X014852Y006934D01*
X014852Y006855D02*
X014312Y006855D01*
X014312Y006777D02*
X014852Y006777D01*
X014852Y006698D02*
X014312Y006698D01*
X014312Y006620D02*
X014852Y006620D01*
X014852Y006541D02*
X014312Y006541D01*
X014312Y006463D02*
X014852Y006463D01*
X014852Y006384D02*
X014312Y006384D01*
X014312Y006306D02*
X014852Y006306D01*
X014852Y006227D02*
X014281Y006227D01*
X013843Y006227D02*
X013781Y006227D01*
X013812Y006306D02*
X013812Y006306D01*
X013812Y006384D02*
X013812Y006384D01*
X013812Y006463D02*
X013812Y006463D01*
X013812Y006541D02*
X013812Y006541D01*
X013812Y006620D02*
X013812Y006620D01*
X013812Y006698D02*
X013812Y006698D01*
X013812Y006777D02*
X013812Y006777D01*
X013812Y006855D02*
X013812Y006855D01*
X013812Y006934D02*
X013812Y006934D01*
X013812Y007012D02*
X013812Y007012D01*
X013812Y007091D02*
X013812Y007091D01*
X013812Y007169D02*
X013812Y007169D01*
X013812Y007248D02*
X013812Y007248D01*
X013771Y007326D02*
X013853Y007326D01*
X013353Y007326D02*
X013271Y007326D01*
X013312Y007248D02*
X013312Y007248D01*
X013312Y007169D02*
X013312Y007169D01*
X013312Y007091D02*
X013312Y007091D01*
X013312Y007012D02*
X013312Y007012D01*
X013312Y006934D02*
X013312Y006934D01*
X013312Y006855D02*
X013312Y006855D01*
X013312Y006777D02*
X013312Y006777D01*
X013312Y006698D02*
X013312Y006698D01*
X013312Y006620D02*
X013312Y006620D01*
X013312Y006541D02*
X013312Y006541D01*
X013312Y006463D02*
X013312Y006463D01*
X013312Y006384D02*
X013312Y006384D01*
X013312Y006306D02*
X013312Y006306D01*
X013281Y006227D02*
X013343Y006227D01*
X012843Y006227D02*
X012781Y006227D01*
X012812Y006306D02*
X012812Y006306D01*
X012812Y006384D02*
X012812Y006384D01*
X012812Y006463D02*
X012812Y006463D01*
X012812Y006541D02*
X012812Y006541D01*
X012812Y006620D02*
X012812Y006620D01*
X012812Y006698D02*
X012812Y006698D01*
X012812Y006777D02*
X012812Y006777D01*
X012812Y006855D02*
X012812Y006855D01*
X012812Y006934D02*
X012812Y006934D01*
X012812Y007012D02*
X012812Y007012D01*
X012812Y007091D02*
X012812Y007091D01*
X012812Y007169D02*
X012812Y007169D01*
X012812Y007248D02*
X012812Y007248D01*
X012771Y007326D02*
X012853Y007326D01*
X012353Y007326D02*
X012271Y007326D01*
X012312Y007248D02*
X012312Y007248D01*
X012312Y007169D02*
X012312Y007169D01*
X012312Y007091D02*
X012312Y007091D01*
X012312Y007012D02*
X012312Y007012D01*
X012312Y006934D02*
X012312Y006934D01*
X012312Y006855D02*
X012312Y006855D01*
X012312Y006777D02*
X012312Y006777D01*
X012312Y006698D02*
X012312Y006698D01*
X012312Y006620D02*
X012312Y006620D01*
X012312Y006541D02*
X012312Y006541D01*
X012312Y006463D02*
X012312Y006463D01*
X012312Y006384D02*
X012312Y006384D01*
X012312Y006306D02*
X012312Y006306D01*
X012281Y006227D02*
X012343Y006227D01*
X012422Y006149D02*
X010494Y006149D01*
X010494Y006070D02*
X012369Y006070D01*
X012363Y005992D02*
X010494Y005992D01*
X010494Y005913D02*
X012363Y005913D01*
X012426Y005835D02*
X010494Y005835D01*
X010889Y005835D02*
X009901Y005835D01*
X009901Y005913D02*
X010885Y005913D01*
X010880Y005992D02*
X009901Y005992D01*
X009901Y006070D02*
X010876Y006070D01*
X010871Y006149D02*
X009901Y006149D01*
X009901Y006227D02*
X010867Y006227D01*
X010854Y006306D02*
X009901Y006306D01*
X009901Y006384D02*
X010841Y006384D01*
X010829Y006463D02*
X009901Y006463D01*
X009901Y006541D02*
X010816Y006541D01*
X010804Y006620D02*
X009901Y006620D01*
X009901Y006698D02*
X010791Y006698D01*
X010776Y006777D02*
X009901Y006777D01*
X009901Y006855D02*
X010756Y006855D01*
X010735Y006934D02*
X009901Y006934D01*
X009901Y007012D02*
X010714Y007012D01*
X010693Y007091D02*
X009901Y007091D01*
X009901Y007169D02*
X010672Y007169D01*
X010651Y007248D02*
X009901Y007248D01*
X009901Y007326D02*
X010625Y007326D01*
X010595Y007405D02*
X009901Y007405D01*
X009901Y008347D02*
X010159Y008347D01*
X010109Y008425D02*
X009901Y008425D01*
X009901Y008504D02*
X010059Y008504D01*
X010009Y008582D02*
X009838Y008582D01*
X009960Y008661D02*
X009428Y008661D01*
X009721Y008975D02*
X001461Y008975D01*
X001521Y009053D02*
X009660Y009053D01*
X009598Y009132D02*
X001590Y009132D01*
X001664Y009210D02*
X009524Y009210D01*
X009448Y009289D02*
X001737Y009289D01*
X001810Y009367D02*
X009372Y009367D01*
X009296Y009446D02*
X001884Y009446D01*
X001969Y009524D02*
X009221Y009524D01*
X009128Y009603D02*
X002059Y009603D01*
X002149Y009681D02*
X009035Y009681D01*
X008943Y009760D02*
X002239Y009760D01*
X002333Y009838D02*
X008850Y009838D01*
X008745Y009917D02*
X002444Y009917D01*
X002555Y009995D02*
X008630Y009995D01*
X008516Y010074D02*
X002665Y010074D01*
X002783Y010152D02*
X008401Y010152D01*
X008266Y010231D02*
X002922Y010231D01*
X003061Y010309D02*
X008122Y010309D01*
X007978Y010388D02*
X003199Y010388D01*
X003373Y010466D02*
X007817Y010466D01*
X007630Y010545D02*
X003552Y010545D01*
X003739Y010623D02*
X007443Y010623D01*
X007204Y010702D02*
X003982Y010702D01*
X004227Y010780D02*
X006947Y010780D01*
X006584Y010859D02*
X004594Y010859D01*
X005165Y010937D02*
X006001Y010937D01*
X008441Y008661D02*
X001222Y008661D01*
X001172Y008582D02*
X008441Y008582D01*
X008441Y008268D02*
X006590Y008268D01*
X006590Y008190D02*
X008494Y008190D01*
X009783Y008896D02*
X001401Y008896D01*
X001342Y008818D02*
X009845Y008818D01*
X009906Y008739D02*
X001282Y008739D01*
X001124Y008504D02*
X006317Y008504D01*
X006310Y008425D02*
X001076Y008425D01*
X001028Y008347D02*
X006310Y008347D01*
X006310Y008268D02*
X000980Y008268D01*
X000932Y008190D02*
X006310Y008190D01*
X006310Y008111D02*
X000894Y008111D01*
X000857Y008033D02*
X006310Y008033D01*
X006310Y007954D02*
X000819Y007954D01*
X000781Y007876D02*
X006310Y007876D01*
X006310Y007797D02*
X000744Y007797D01*
X000706Y007719D02*
X006310Y007719D01*
X006310Y007640D02*
X000676Y007640D01*
X000648Y007562D02*
X006310Y007562D01*
X006226Y007483D02*
X000619Y007483D01*
X000591Y007405D02*
X000735Y007405D01*
X000701Y007326D02*
X000563Y007326D01*
X000534Y007248D02*
X000701Y007248D01*
X001116Y007248D02*
X001196Y007248D01*
X001196Y007326D02*
X001116Y007326D01*
X001116Y007405D02*
X001196Y007405D01*
X001576Y007405D02*
X006226Y007405D01*
X006226Y007326D02*
X001611Y007326D01*
X001611Y007248D02*
X006226Y007248D01*
X006226Y007169D02*
X003383Y007169D01*
X003383Y007091D02*
X006226Y007091D01*
X006226Y007012D02*
X003383Y007012D01*
X003383Y006934D02*
X006311Y006934D01*
X006311Y006855D02*
X003383Y006855D01*
X003383Y006777D02*
X005508Y006777D01*
X005482Y006698D02*
X003383Y006698D01*
X003383Y006620D02*
X005482Y006620D01*
X005482Y006541D02*
X003383Y006541D01*
X003383Y006463D02*
X005482Y006463D01*
X005482Y006384D02*
X003383Y006384D01*
X003383Y006306D02*
X005482Y006306D01*
X005482Y006227D02*
X003383Y006227D01*
X003383Y006149D02*
X005482Y006149D01*
X005482Y006070D02*
X004402Y006070D01*
X004397Y006077D02*
X004371Y006103D01*
X004339Y006122D01*
X004304Y006131D01*
X004111Y006131D01*
X004111Y005889D01*
X004425Y005889D01*
X004425Y006010D01*
X004416Y006046D01*
X004397Y006077D01*
X004425Y005992D02*
X005482Y005992D01*
X005482Y005913D02*
X004425Y005913D01*
X004425Y005835D02*
X005482Y005835D01*
X005482Y005756D02*
X004425Y005756D01*
X004431Y005678D02*
X005482Y005678D01*
X005482Y005599D02*
X004431Y005599D01*
X004431Y005521D02*
X005482Y005521D01*
X005762Y005521D02*
X006733Y005521D01*
X006733Y005599D02*
X005762Y005599D01*
X005762Y005678D02*
X006733Y005678D01*
X006733Y005756D02*
X005762Y005756D01*
X005762Y005835D02*
X006733Y005835D01*
X006733Y005913D02*
X005762Y005913D01*
X005762Y005992D02*
X006733Y005992D01*
X006733Y006070D02*
X005762Y006070D01*
X005762Y006149D02*
X006733Y006149D01*
X006733Y006227D02*
X005762Y006227D01*
X005762Y006306D02*
X006710Y006306D01*
X006673Y006384D02*
X005762Y006384D01*
X005762Y006463D02*
X006673Y006463D01*
X006705Y006541D02*
X005762Y006541D01*
X006576Y006620D02*
X006783Y006620D01*
X007013Y006227D02*
X009621Y006227D01*
X009621Y006149D02*
X007013Y006149D01*
X007013Y006070D02*
X009621Y006070D01*
X009621Y005992D02*
X007013Y005992D01*
X007013Y005913D02*
X009621Y005913D01*
X009621Y005835D02*
X007013Y005835D01*
X007013Y005756D02*
X009621Y005756D01*
X009621Y005678D02*
X007013Y005678D01*
X007013Y005599D02*
X009621Y005599D01*
X009679Y005521D02*
X007013Y005521D01*
X006733Y005442D02*
X005762Y005442D01*
X005762Y005364D02*
X006733Y005364D01*
X006733Y005285D02*
X005762Y005285D01*
X005762Y005207D02*
X006733Y005207D01*
X006733Y005128D02*
X005762Y005128D01*
X005762Y005050D02*
X006733Y005050D01*
X006733Y004971D02*
X005762Y004971D01*
X005762Y004893D02*
X006733Y004893D01*
X006845Y004095D02*
X006873Y004095D01*
X007378Y003794D02*
X009428Y003794D01*
X009428Y003872D02*
X009038Y003872D01*
X009038Y003951D02*
X009428Y003951D01*
X009428Y004029D02*
X009038Y004029D01*
X009038Y004108D02*
X009428Y004108D01*
X009428Y004186D02*
X009038Y004186D01*
X009038Y004265D02*
X009428Y004265D01*
X009428Y004343D02*
X009028Y004343D01*
X009708Y004343D02*
X010726Y004343D01*
X010707Y004265D02*
X009708Y004265D01*
X009708Y004186D02*
X010687Y004186D01*
X010667Y004108D02*
X009708Y004108D01*
X009708Y004029D02*
X010640Y004029D01*
X010611Y003951D02*
X009708Y003951D01*
X009708Y003872D02*
X010583Y003872D01*
X010554Y003794D02*
X009708Y003794D01*
X009708Y003715D02*
X010526Y003715D01*
X010494Y003715D02*
X015481Y003715D01*
X015481Y003637D02*
X010736Y003637D01*
X010703Y003637D02*
X010494Y003637D01*
X010497Y003637D02*
X009708Y003637D01*
X009695Y003558D02*
X010464Y003558D01*
X010666Y003631D02*
X010666Y003631D01*
X010494Y003794D02*
X015481Y003794D01*
X015481Y003872D02*
X012305Y003872D01*
X012097Y003872D02*
X012027Y003872D01*
X012027Y003951D02*
X012097Y003951D01*
X012097Y004029D02*
X012027Y004029D01*
X012027Y004108D02*
X012097Y004108D01*
X012097Y004186D02*
X012027Y004186D01*
X012027Y004265D02*
X012097Y004265D01*
X012097Y004343D02*
X012027Y004343D01*
X011772Y004343D02*
X010494Y004343D01*
X010494Y004265D02*
X011772Y004265D01*
X011772Y004186D02*
X010494Y004186D01*
X010494Y004108D02*
X011772Y004108D01*
X011772Y004029D02*
X010494Y004029D01*
X010494Y003951D02*
X011774Y003951D01*
X011819Y003872D02*
X010494Y003872D01*
X010746Y004422D02*
X009708Y004422D01*
X009708Y004500D02*
X010766Y004500D01*
X010786Y004579D02*
X009708Y004579D01*
X009708Y004657D02*
X010801Y004657D01*
X012542Y004449D02*
X012542Y005235D01*
X012682Y005207D02*
X013422Y005207D01*
X013422Y005285D02*
X012682Y005285D01*
X012611Y005364D02*
X013422Y005364D01*
X013422Y005128D02*
X012682Y005128D01*
X012682Y005050D02*
X013422Y005050D01*
X013320Y004971D02*
X013303Y004971D01*
X013312Y004893D02*
X013312Y004893D01*
X013312Y004814D02*
X013312Y004814D01*
X013312Y004736D02*
X013312Y004736D01*
X013312Y004657D02*
X013312Y004657D01*
X013312Y004579D02*
X013312Y004579D01*
X013312Y004500D02*
X013312Y004500D01*
X013312Y004422D02*
X013312Y004422D01*
X013312Y004343D02*
X013312Y004343D01*
X013312Y004265D02*
X013312Y004265D01*
X013312Y004186D02*
X013312Y004186D01*
X013312Y004108D02*
X013312Y004108D01*
X013312Y004029D02*
X013312Y004029D01*
X013312Y003951D02*
X013312Y003951D01*
X012812Y003951D02*
X012812Y003951D01*
X012812Y004029D02*
X012812Y004029D01*
X012812Y004108D02*
X012812Y004108D01*
X012812Y004186D02*
X012812Y004186D01*
X012812Y004265D02*
X012812Y004265D01*
X012812Y004343D02*
X012812Y004343D01*
X012812Y004422D02*
X012812Y004422D01*
X012812Y004500D02*
X012812Y004500D01*
X012812Y004579D02*
X012812Y004579D01*
X012812Y004657D02*
X012812Y004657D01*
X012812Y004736D02*
X012812Y004736D01*
X012812Y004814D02*
X012812Y004814D01*
X012812Y004893D02*
X012812Y004893D01*
X012803Y004971D02*
X012820Y004971D01*
X012562Y004449D02*
X012542Y004449D01*
X014312Y004657D02*
X014852Y004657D01*
X014852Y004736D02*
X014312Y004736D01*
X014312Y004814D02*
X014852Y004814D01*
X014852Y004893D02*
X014312Y004893D01*
X014303Y004971D02*
X014852Y004971D01*
X014852Y005835D02*
X012699Y005835D01*
X012763Y005913D02*
X014852Y005913D01*
X014852Y005992D02*
X012763Y005992D01*
X012756Y006070D02*
X014852Y006070D01*
X014852Y006149D02*
X012702Y006149D01*
X012563Y005981D02*
X012562Y005981D01*
X012562Y006772D01*
X012062Y006407D02*
X011502Y006407D01*
X010275Y003166D02*
X009437Y003166D01*
X009480Y003087D02*
X010234Y003087D01*
X010186Y003009D02*
X009481Y003009D01*
X009481Y002930D02*
X010138Y002930D01*
X010090Y002852D02*
X009481Y002852D01*
X009481Y002773D02*
X010041Y002773D01*
X009993Y002695D02*
X009481Y002695D01*
X009446Y002616D02*
X009940Y002616D01*
X008454Y003087D02*
X005762Y003087D01*
X004111Y004814D02*
X004066Y004814D01*
X004066Y004893D02*
X004111Y004893D01*
X004111Y004971D02*
X004066Y004971D01*
X004066Y005050D02*
X004111Y005050D01*
X003752Y005756D02*
X003383Y005756D01*
X003383Y005835D02*
X003752Y005835D01*
X003752Y005889D02*
X004066Y005889D01*
X004066Y006131D01*
X003873Y006131D01*
X003838Y006122D01*
X003806Y006103D01*
X003780Y006077D01*
X003761Y006046D01*
X003752Y006010D01*
X003752Y005889D01*
X003752Y005913D02*
X003383Y005913D01*
X003383Y005992D02*
X003752Y005992D01*
X003776Y006070D02*
X003383Y006070D01*
X004066Y006070D02*
X004111Y006070D01*
X004111Y005992D02*
X004066Y005992D01*
X004066Y005913D02*
X004111Y005913D01*
D19*
X002614Y005474D02*
X002614Y005458D01*
X002572Y005479D01*
X000939Y005474D02*
X000934Y005458D01*
X000934Y005218D01*
X000934Y005058D01*
X000913Y005014D01*
X001156Y007116D02*
X001174Y007138D01*
X001174Y007298D01*
X001196Y007325D01*
D20*
X001152Y007610D03*
X000884Y007632D03*
X001435Y007596D03*
X001733Y007403D03*
X001945Y007403D03*
X002158Y007403D03*
X002389Y007403D03*
X002609Y007403D03*
X002825Y007403D03*
X003075Y007403D03*
X003318Y007403D03*
X003549Y007403D03*
X003549Y007168D03*
X003549Y006941D03*
X003549Y006698D03*
X003549Y006478D03*
X003549Y006266D03*
X003549Y006065D03*
X003549Y005864D03*
X003572Y004979D03*
X003137Y004974D03*
X002265Y004533D03*
X001997Y004358D03*
X001446Y004227D03*
X001394Y004533D03*
X000988Y004561D03*
X000807Y004278D03*
X000637Y004568D03*
X000551Y004840D03*
X000913Y005014D03*
X001208Y005014D03*
X001523Y005014D03*
X001838Y005014D03*
X002122Y005014D03*
X003142Y004039D03*
X003667Y003585D03*
X004184Y003581D03*
X004138Y003241D03*
X003789Y003084D03*
X004103Y002818D03*
X004509Y003084D03*
X004576Y003370D03*
X004878Y003401D03*
X004803Y003671D03*
X005195Y003644D03*
X005183Y003182D03*
X004878Y002971D03*
X004596Y002508D03*
X004471Y001890D03*
X003814Y001753D03*
X003248Y002206D03*
X003331Y002814D03*
X003205Y003186D03*
X002657Y002879D03*
X001607Y002807D03*
X002249Y002104D03*
X003085Y001380D03*
X003818Y000942D03*
X007001Y001307D03*
X007466Y001075D03*
X008241Y001483D03*
X009015Y002094D03*
X009787Y003248D03*
X010927Y004104D03*
X010999Y004482D03*
X010629Y004598D03*
X011006Y004823D03*
X011340Y004606D03*
X011362Y004199D03*
X010266Y004279D03*
X010222Y004838D03*
X008823Y005347D03*
X010317Y006174D03*
X010238Y006944D03*
X010866Y006944D03*
X011139Y007354D03*
X009135Y006901D03*
X007312Y008120D03*
X007784Y008723D03*
X008180Y009226D03*
X006825Y009817D03*
X006208Y008664D03*
X005217Y008758D03*
X004703Y008817D03*
X004216Y009196D03*
X004124Y009929D03*
X003146Y009542D03*
X002290Y008951D03*
X001577Y008248D03*
X002779Y008166D03*
X003972Y007503D03*
X005162Y006813D03*
X005838Y007546D03*
X005306Y008176D03*
X006387Y006087D03*
X006177Y005696D03*
X005982Y005295D03*
X005096Y005477D03*
X006243Y003342D03*
X006643Y003313D03*
X007151Y003277D03*
X007935Y003233D03*
X007151Y002043D03*
X002096Y003633D03*
X001271Y003551D03*
X014007Y005742D03*
X014525Y005715D03*
D21*
X012563Y005981D03*
X011502Y006407D03*
X007636Y004581D03*
X006873Y006426D03*
M02*
