G75*
G70*
%OFA0B0*%
%FSLAX24Y24*%
%IPPOS*%
%LPD*%
%AMOC8*
5,1,8,0,0,1.08239X$1,22.5*
%
%ADD10C,0.0260*%
D10*
X002204Y001253D03*
X001956Y001447D03*
X002344Y001622D03*
X002803Y001652D03*
X003275Y001658D03*
X003523Y001568D03*
X003644Y001404D03*
X003438Y001338D03*
X003964Y001447D03*
X003795Y001719D03*
X003656Y002016D03*
X002972Y001937D03*
X002670Y001931D03*
X002337Y001931D03*
X001981Y001931D03*
X001533Y002137D03*
X001219Y002215D03*
X000880Y002215D03*
X000547Y002228D03*
X000505Y002651D03*
X000735Y002645D03*
X000965Y002645D03*
X001231Y002645D03*
X001479Y002627D03*
X002537Y003365D03*
X002525Y003607D03*
X002531Y003868D03*
X002525Y004170D03*
X002525Y004425D03*
X002526Y004664D03*
X002526Y004882D03*
X003881Y004022D03*
X004991Y003973D03*
X005570Y003919D03*
X005635Y004196D03*
X004126Y003425D03*
X005275Y003056D03*
X008395Y001856D03*
X009535Y001376D03*
X008395Y001196D03*
X007735Y001196D03*
X006955Y001196D03*
X006655Y001196D03*
X006415Y001136D03*
X006175Y001196D03*
X005935Y001136D03*
X005419Y001065D03*
X006912Y000696D03*
X008326Y000696D03*
X010571Y000764D03*
X011384Y001035D03*
X012107Y000861D03*
X012899Y000945D03*
X013389Y001430D03*
X011755Y001556D03*
X010571Y002065D03*
X010202Y002023D03*
X009742Y002689D03*
X010615Y002936D03*
X009730Y003064D03*
X009595Y003716D03*
X010105Y003827D03*
X008369Y004336D03*
X008038Y004472D03*
X007666Y004590D03*
X010105Y004785D03*
X011905Y004763D03*
X013152Y004215D03*
X013455Y003688D03*
X013522Y003082D03*
X013528Y002265D03*
X002966Y001253D03*
X002591Y001253D03*
X001563Y001658D03*
M02*
