G75*
G70*
%OFA0B0*%
%FSLAX24Y24*%
%IPPOS*%
%LPD*%
%AMOC8*
5,1,8,0,0,1.08239X$1,22.5*
%
%ADD10C,0.0040*%
%ADD11R,0.0197X0.0197*%
%ADD12C,0.0160*%
%ADD13R,0.0160X0.0280*%
%ADD14C,0.0138*%
%ADD15R,0.0108X0.0138*%
%ADD16C,0.0080*%
D10*
X005670Y001579D02*
X005788Y001579D01*
X005670Y001579D02*
X005670Y001697D01*
X007934Y001579D02*
X008052Y001579D01*
X008052Y001697D01*
X011316Y001458D02*
X012458Y001458D01*
X012337Y001571D02*
X011937Y001571D01*
X011937Y001971D01*
X012337Y001971D01*
X012337Y002071D02*
X011937Y002071D01*
X011937Y002471D01*
X012337Y002471D01*
X012337Y002571D02*
X011937Y002571D01*
X011937Y002971D01*
X012337Y002971D01*
X012337Y003071D02*
X011937Y003071D01*
X011937Y003471D01*
X012337Y003471D01*
X012337Y003571D02*
X011937Y003571D01*
X011937Y003971D01*
X012337Y003971D01*
X012458Y004084D02*
X011316Y004084D01*
X011437Y003971D02*
X011837Y003971D01*
X011837Y003571D01*
X011437Y003571D01*
X011437Y003471D02*
X011837Y003471D01*
X011837Y003071D01*
X011437Y003071D01*
X011437Y002971D02*
X011837Y002971D01*
X011837Y002571D01*
X011437Y002571D01*
X011437Y002471D02*
X011837Y002471D01*
X011837Y002071D01*
X011437Y002071D01*
X011437Y001971D02*
X011837Y001971D01*
X011837Y001571D01*
X011437Y001571D01*
X011737Y001671D02*
X011737Y001871D01*
X012037Y001871D02*
X012037Y001671D01*
X012037Y002171D02*
X012037Y002371D01*
X011737Y002371D02*
X011737Y002171D01*
X011737Y002671D02*
X011737Y002871D01*
X012037Y002871D02*
X012037Y002671D01*
X012037Y003171D02*
X012037Y003371D01*
X011737Y003371D02*
X011737Y003171D01*
X011737Y003671D02*
X011737Y003871D01*
X012037Y003871D02*
X012037Y003671D01*
X008052Y003843D02*
X008052Y003961D01*
X007934Y003961D01*
X005788Y003961D02*
X005670Y003961D01*
X005670Y003843D01*
D11*
X007944Y001687D03*
D12*
X003709Y000801D02*
X003709Y000777D01*
X006199Y000806D02*
X006199Y000782D01*
X007723Y000890D02*
X007723Y000914D01*
X008960Y000762D02*
X008960Y000738D01*
X008956Y001354D02*
X008956Y001378D01*
X008966Y001883D02*
X008966Y001907D01*
X004733Y002169D02*
X004733Y002193D01*
X002863Y002776D02*
X002839Y002776D01*
X001934Y002800D02*
X001910Y002800D01*
X004730Y003209D02*
X004730Y003233D01*
X004730Y003970D02*
X004730Y003994D01*
X004727Y004646D02*
X004727Y004670D01*
X006931Y004588D02*
X006931Y004564D01*
X009006Y004699D02*
X009006Y004723D01*
X009005Y004142D02*
X009005Y004118D01*
X009012Y003637D02*
X009012Y003613D01*
D13*
X005896Y004576D03*
X004724Y001500D03*
D14*
X008972Y002742D03*
D15*
X003367Y002863D03*
D16*
X001131Y003349D02*
X001131Y004449D01*
X000431Y004449D02*
X000431Y003349D01*
M02*
