G75*
G70*
%OFA0B0*%
%FSLAX24Y24*%
%IPPOS*%
%LPD*%
%AMOC8*
5,1,8,0,0,1.08239X$1,22.5*
%
%ADD10R,0.0433X0.0433*%
%ADD11C,0.0060*%
%ADD12C,0.0180*%
D10*
X006261Y002170D03*
X006664Y002170D03*
X007058Y002170D03*
X007461Y002170D03*
X007461Y002583D03*
X007058Y002583D03*
X006664Y002583D03*
X006261Y002583D03*
X006261Y002957D03*
X006664Y002957D03*
X007058Y002957D03*
X007461Y002957D03*
X007461Y003370D03*
X007058Y003370D03*
X006664Y003370D03*
X006261Y003370D03*
D11*
X000405Y002763D02*
X000405Y000526D01*
X014185Y000526D01*
X014185Y004956D01*
X002438Y004956D01*
X002438Y002763D01*
X000405Y002763D01*
X000405Y002756D02*
X005155Y002756D01*
X005155Y002698D02*
X000405Y002698D01*
X000405Y002639D02*
X005155Y002639D01*
X005155Y002581D02*
X000405Y002581D01*
X000405Y002522D02*
X005155Y002522D01*
X005155Y002464D02*
X000405Y002464D01*
X000405Y002405D02*
X005155Y002405D01*
X005155Y002347D02*
X000405Y002347D01*
X000405Y002288D02*
X005155Y002288D01*
X005155Y002230D02*
X000405Y002230D01*
X000405Y002171D02*
X005155Y002171D01*
X005155Y002113D02*
X000405Y002113D01*
X000405Y002054D02*
X005155Y002054D01*
X005155Y001996D02*
X000405Y001996D01*
X000405Y001937D02*
X005155Y001937D01*
X005155Y001879D02*
X000405Y001879D01*
X000405Y001820D02*
X005155Y001820D01*
X005155Y001762D02*
X000405Y001762D01*
X000405Y001703D02*
X005155Y001703D01*
X005155Y001645D02*
X000405Y001645D01*
X000405Y001586D02*
X005155Y001586D01*
X005155Y001528D02*
X000405Y001528D01*
X000405Y001469D02*
X005155Y001469D01*
X005155Y001411D02*
X000405Y001411D01*
X000405Y001352D02*
X005155Y001352D01*
X005155Y001294D02*
X000405Y001294D01*
X000405Y001235D02*
X005155Y001235D01*
X005155Y001206D02*
X005225Y001136D01*
X005755Y001136D01*
X005755Y001061D01*
X005860Y000956D01*
X005945Y000956D01*
X006055Y000846D01*
X006125Y000776D01*
X007485Y000776D01*
X007725Y001016D01*
X007810Y001016D01*
X007870Y001076D01*
X008260Y001076D01*
X008320Y001016D01*
X008470Y001016D01*
X008575Y001121D01*
X008575Y001256D01*
X009400Y001256D01*
X009460Y001196D01*
X009610Y001196D01*
X009715Y001301D01*
X009715Y001436D01*
X011620Y001436D01*
X011680Y001376D01*
X011830Y001376D01*
X011935Y001481D01*
X011935Y001631D01*
X011830Y001736D01*
X011680Y001736D01*
X011620Y001676D01*
X009525Y001676D01*
X010605Y002756D01*
X010690Y002756D01*
X014185Y002756D01*
X014185Y002698D02*
X010546Y002698D01*
X010488Y002639D02*
X014185Y002639D01*
X014185Y002581D02*
X010429Y002581D01*
X010371Y002522D02*
X014185Y002522D01*
X014185Y002464D02*
X010312Y002464D01*
X010254Y002405D02*
X014185Y002405D01*
X014185Y002347D02*
X010195Y002347D01*
X010137Y002288D02*
X014185Y002288D01*
X014185Y002230D02*
X010078Y002230D01*
X010020Y002171D02*
X014185Y002171D01*
X014185Y002113D02*
X009961Y002113D01*
X009903Y002054D02*
X014185Y002054D01*
X014185Y001996D02*
X009844Y001996D01*
X009786Y001937D02*
X014185Y001937D01*
X014185Y001879D02*
X009727Y001879D01*
X009669Y001820D02*
X014185Y001820D01*
X014185Y001762D02*
X009610Y001762D01*
X009552Y001703D02*
X011647Y001703D01*
X011863Y001703D02*
X014185Y001703D01*
X014185Y001645D02*
X011921Y001645D01*
X011935Y001586D02*
X014185Y001586D01*
X014185Y001528D02*
X011935Y001528D01*
X011923Y001469D02*
X014185Y001469D01*
X014185Y001411D02*
X011864Y001411D01*
X011646Y001411D02*
X009715Y001411D01*
X009715Y001352D02*
X014185Y001352D01*
X014185Y001294D02*
X009707Y001294D01*
X009649Y001235D02*
X014185Y001235D01*
X014185Y001177D02*
X008575Y001177D01*
X008575Y001235D02*
X009421Y001235D01*
X009535Y001376D02*
X007615Y001376D01*
X007255Y001016D01*
X006535Y001016D01*
X006415Y001136D01*
X006655Y001196D02*
X007135Y001676D01*
X009355Y001676D01*
X010615Y002936D01*
X010795Y002932D02*
X014185Y002932D01*
X014185Y002990D02*
X010795Y002990D01*
X010795Y003011D02*
X010690Y003116D01*
X010540Y003116D01*
X010435Y003011D01*
X010435Y002926D01*
X009305Y001796D01*
X008575Y001796D01*
X008575Y001931D01*
X008470Y002036D01*
X008320Y002036D01*
X008260Y001976D01*
X007808Y001976D01*
X007808Y002170D01*
X007808Y002583D01*
X007808Y002957D01*
X007808Y003370D01*
X007461Y003370D01*
X007058Y003370D01*
X007058Y003024D01*
X007058Y002957D01*
X007404Y002957D01*
X007461Y002957D01*
X007058Y002957D01*
X007058Y002957D01*
X007058Y002930D01*
X007058Y002583D01*
X007404Y002583D01*
X007461Y002583D01*
X007058Y002583D01*
X007058Y002583D01*
X007058Y002583D01*
X007058Y002236D01*
X007058Y002170D01*
X007058Y002170D01*
X007404Y002170D01*
X007461Y002170D01*
X007461Y002583D01*
X007461Y002583D01*
X007461Y002583D01*
X007461Y002957D01*
X007461Y002957D01*
X007461Y003370D01*
X007461Y003370D01*
X007461Y003370D01*
X007404Y003370D01*
X007058Y003370D01*
X007058Y003370D01*
X007058Y003370D01*
X007058Y002957D01*
X007058Y002957D01*
X007058Y002957D01*
X007058Y002583D01*
X007058Y002583D01*
X007058Y002170D01*
X007058Y002170D01*
X007058Y002170D01*
X007011Y002170D01*
X006664Y002170D01*
X006664Y002583D01*
X006261Y002583D01*
X006318Y002583D01*
X006664Y002583D01*
X006664Y002583D01*
X006664Y002957D01*
X006261Y002957D01*
X006607Y002957D01*
X006664Y002957D01*
X006664Y002957D01*
X006664Y002957D01*
X006664Y003370D01*
X006664Y003370D01*
X006261Y003370D01*
X006261Y003370D01*
X006261Y003304D01*
X006261Y002957D01*
X006261Y002957D01*
X006261Y002957D01*
X006261Y002610D01*
X006261Y002583D01*
X006261Y002583D01*
X006261Y002516D01*
X006261Y002170D01*
X006261Y002170D01*
X006607Y002170D01*
X006664Y002170D01*
X006664Y002170D01*
X006664Y002236D01*
X006664Y002583D01*
X006664Y002583D01*
X006664Y002583D01*
X006664Y002930D01*
X006664Y002957D01*
X006664Y002957D01*
X006664Y003304D01*
X006664Y003370D01*
X006664Y003370D01*
X006664Y003370D01*
X007058Y003370D01*
X007058Y003370D01*
X006711Y003370D01*
X006664Y003370D01*
X006607Y003370D01*
X006261Y003370D01*
X006261Y003370D01*
X006261Y002957D01*
X006261Y002957D01*
X006261Y002583D01*
X006261Y002583D01*
X006261Y002583D01*
X006261Y002170D01*
X006261Y002170D01*
X006664Y002170D01*
X006664Y002170D01*
X006664Y002170D01*
X007058Y002170D01*
X007461Y002170D01*
X007461Y002170D01*
X007461Y002170D01*
X007461Y002236D01*
X007461Y002583D01*
X007461Y002583D01*
X007461Y002930D01*
X007461Y002957D01*
X007461Y002957D01*
X007461Y002957D01*
X007461Y003024D01*
X007461Y003370D01*
X007461Y003370D01*
X007808Y003370D01*
X007808Y003596D01*
X009460Y003596D01*
X009520Y003536D01*
X009670Y003536D01*
X009775Y003641D01*
X009775Y003791D01*
X009670Y003896D01*
X009520Y003896D01*
X009460Y003836D01*
X006165Y003836D01*
X005815Y004186D01*
X005815Y004271D01*
X005710Y004376D01*
X005560Y004376D01*
X005455Y004271D01*
X005455Y004121D01*
X005560Y004016D01*
X005645Y004016D01*
X005968Y003693D01*
X005964Y003691D01*
X005940Y003667D01*
X005923Y003637D01*
X005914Y003604D01*
X005914Y003370D01*
X005914Y002957D01*
X005914Y002583D01*
X006261Y002583D01*
X005914Y002583D01*
X005914Y002170D01*
X006261Y002170D01*
X006261Y001823D01*
X006632Y001823D01*
X006185Y001376D01*
X006100Y001376D01*
X006025Y001301D01*
X006010Y001316D01*
X005925Y001316D01*
X005865Y001376D01*
X005395Y001376D01*
X005395Y002921D01*
X005455Y002981D01*
X005455Y003131D01*
X005350Y003236D01*
X005200Y003236D01*
X005095Y003131D01*
X005095Y002981D01*
X005155Y002921D01*
X005155Y001206D01*
X005185Y001177D02*
X000405Y001177D01*
X000405Y001118D02*
X005755Y001118D01*
X005757Y001060D02*
X000405Y001060D01*
X000405Y001001D02*
X005815Y001001D01*
X005959Y000943D02*
X000405Y000943D01*
X000405Y000884D02*
X006017Y000884D01*
X006076Y000826D02*
X000405Y000826D01*
X000405Y000767D02*
X014185Y000767D01*
X014185Y000709D02*
X000405Y000709D01*
X000405Y000650D02*
X014185Y000650D01*
X014185Y000592D02*
X000405Y000592D01*
X000405Y000533D02*
X014185Y000533D01*
X014185Y000826D02*
X007534Y000826D01*
X007593Y000884D02*
X014185Y000884D01*
X014185Y000943D02*
X007651Y000943D01*
X007710Y001001D02*
X014185Y001001D01*
X014185Y001060D02*
X008513Y001060D01*
X008572Y001118D02*
X014185Y001118D01*
X011755Y001556D02*
X007315Y001556D01*
X006955Y001196D01*
X006835Y001856D02*
X006175Y001196D01*
X005935Y001136D02*
X005815Y001256D01*
X005275Y001256D01*
X005275Y003056D01*
X005455Y003049D02*
X005914Y003049D01*
X005914Y003107D02*
X005455Y003107D01*
X005420Y003166D02*
X005914Y003166D01*
X005914Y003224D02*
X005362Y003224D01*
X005188Y003224D02*
X002438Y003224D01*
X002438Y003166D02*
X005130Y003166D01*
X005095Y003107D02*
X002438Y003107D01*
X002438Y003049D02*
X005095Y003049D01*
X005095Y002990D02*
X002438Y002990D01*
X002438Y002932D02*
X005145Y002932D01*
X005155Y002873D02*
X002438Y002873D01*
X002438Y002815D02*
X005155Y002815D01*
X005395Y002815D02*
X005914Y002815D01*
X005914Y002873D02*
X005395Y002873D01*
X005405Y002932D02*
X005914Y002932D01*
X005914Y002957D02*
X006261Y002957D01*
X006261Y002957D01*
X005914Y002957D01*
X005914Y002990D02*
X005455Y002990D01*
X005395Y002756D02*
X005914Y002756D01*
X005914Y002698D02*
X005395Y002698D01*
X005395Y002639D02*
X005914Y002639D01*
X005914Y002581D02*
X005395Y002581D01*
X005395Y002522D02*
X005914Y002522D01*
X005914Y002464D02*
X005395Y002464D01*
X005395Y002405D02*
X005914Y002405D01*
X005914Y002347D02*
X005395Y002347D01*
X005395Y002288D02*
X005914Y002288D01*
X005914Y002230D02*
X005395Y002230D01*
X005395Y002171D02*
X005914Y002171D01*
X005914Y002170D02*
X005914Y001936D01*
X005923Y001903D01*
X005940Y001873D01*
X005964Y001849D01*
X005994Y001832D01*
X006027Y001823D01*
X006261Y001823D01*
X006261Y002170D01*
X006261Y002170D01*
X006261Y002170D01*
X005914Y002170D01*
X005914Y002113D02*
X005395Y002113D01*
X005395Y002054D02*
X005914Y002054D01*
X005914Y001996D02*
X005395Y001996D01*
X005395Y001937D02*
X005914Y001937D01*
X005937Y001879D02*
X005395Y001879D01*
X005395Y001820D02*
X006629Y001820D01*
X006571Y001762D02*
X005395Y001762D01*
X005395Y001703D02*
X006512Y001703D01*
X006454Y001645D02*
X005395Y001645D01*
X005395Y001586D02*
X006395Y001586D01*
X006337Y001528D02*
X005395Y001528D01*
X005395Y001469D02*
X006278Y001469D01*
X006220Y001411D02*
X005395Y001411D01*
X005889Y001352D02*
X006076Y001352D01*
X005935Y001136D02*
X006175Y000896D01*
X007435Y000896D01*
X007735Y001196D01*
X008395Y001196D01*
X008277Y001060D02*
X007853Y001060D01*
X008395Y001856D02*
X006835Y001856D01*
X006261Y001879D02*
X006261Y001879D01*
X006261Y001937D02*
X006261Y001937D01*
X006261Y001996D02*
X006261Y001996D01*
X006261Y002054D02*
X006261Y002054D01*
X006261Y002113D02*
X006261Y002113D01*
X006261Y002171D02*
X006261Y002171D01*
X006261Y002230D02*
X006261Y002230D01*
X006261Y002288D02*
X006261Y002288D01*
X006261Y002347D02*
X006261Y002347D01*
X006261Y002405D02*
X006261Y002405D01*
X006261Y002464D02*
X006261Y002464D01*
X006261Y002522D02*
X006261Y002522D01*
X006261Y002581D02*
X006261Y002581D01*
X006261Y002583D02*
X006261Y002583D01*
X006261Y002639D02*
X006261Y002639D01*
X006261Y002698D02*
X006261Y002698D01*
X006261Y002756D02*
X006261Y002756D01*
X006261Y002815D02*
X006261Y002815D01*
X006261Y002873D02*
X006261Y002873D01*
X006261Y002932D02*
X006261Y002932D01*
X006261Y002990D02*
X006261Y002990D01*
X006261Y003049D02*
X006261Y003049D01*
X006261Y003107D02*
X006261Y003107D01*
X006261Y003166D02*
X006261Y003166D01*
X006261Y003224D02*
X006261Y003224D01*
X006261Y003283D02*
X006261Y003283D01*
X006261Y003341D02*
X006261Y003341D01*
X006261Y003370D02*
X005914Y003370D01*
X006261Y003370D01*
X006261Y003370D01*
X006664Y003341D02*
X006664Y003341D01*
X006664Y003283D02*
X006664Y003283D01*
X006664Y003224D02*
X006664Y003224D01*
X006664Y003166D02*
X006664Y003166D01*
X006664Y003107D02*
X006664Y003107D01*
X006664Y003049D02*
X006664Y003049D01*
X006664Y002990D02*
X006664Y002990D01*
X006664Y002957D02*
X007011Y002957D01*
X007058Y002957D01*
X006664Y002957D01*
X006664Y002957D01*
X006664Y002932D02*
X006664Y002932D01*
X006664Y002873D02*
X006664Y002873D01*
X006664Y002815D02*
X006664Y002815D01*
X006664Y002756D02*
X006664Y002756D01*
X006664Y002698D02*
X006664Y002698D01*
X006664Y002639D02*
X006664Y002639D01*
X006664Y002583D02*
X007011Y002583D01*
X007058Y002583D01*
X006664Y002583D01*
X006664Y002583D01*
X006664Y002581D02*
X006664Y002581D01*
X006664Y002522D02*
X006664Y002522D01*
X006664Y002464D02*
X006664Y002464D01*
X006664Y002405D02*
X006664Y002405D01*
X006664Y002347D02*
X006664Y002347D01*
X006664Y002288D02*
X006664Y002288D01*
X006664Y002230D02*
X006664Y002230D01*
X006664Y002171D02*
X006664Y002171D01*
X007058Y002171D02*
X007058Y002171D01*
X007058Y002230D02*
X007058Y002230D01*
X007058Y002288D02*
X007058Y002288D01*
X007058Y002347D02*
X007058Y002347D01*
X007058Y002405D02*
X007058Y002405D01*
X007058Y002464D02*
X007058Y002464D01*
X007058Y002522D02*
X007058Y002522D01*
X007058Y002581D02*
X007058Y002581D01*
X007058Y002583D02*
X007058Y002583D01*
X007058Y002639D02*
X007058Y002639D01*
X007058Y002698D02*
X007058Y002698D01*
X007058Y002756D02*
X007058Y002756D01*
X007058Y002815D02*
X007058Y002815D01*
X007058Y002873D02*
X007058Y002873D01*
X007058Y002932D02*
X007058Y002932D01*
X007058Y002957D02*
X007058Y002957D01*
X007058Y002990D02*
X007058Y002990D01*
X007058Y003049D02*
X007058Y003049D01*
X007058Y003107D02*
X007058Y003107D01*
X007058Y003166D02*
X007058Y003166D01*
X007058Y003224D02*
X007058Y003224D01*
X007058Y003283D02*
X007058Y003283D01*
X007058Y003341D02*
X007058Y003341D01*
X007461Y003341D02*
X007461Y003341D01*
X007461Y003283D02*
X007461Y003283D01*
X007461Y003224D02*
X007461Y003224D01*
X007461Y003166D02*
X007461Y003166D01*
X007461Y003107D02*
X007461Y003107D01*
X007461Y003049D02*
X007461Y003049D01*
X007461Y002990D02*
X007461Y002990D01*
X007461Y002957D02*
X007808Y002957D01*
X007461Y002957D01*
X007461Y002957D01*
X007461Y002932D02*
X007461Y002932D01*
X007461Y002873D02*
X007461Y002873D01*
X007461Y002815D02*
X007461Y002815D01*
X007461Y002756D02*
X007461Y002756D01*
X007461Y002698D02*
X007461Y002698D01*
X007461Y002639D02*
X007461Y002639D01*
X007461Y002583D02*
X007808Y002583D01*
X007461Y002583D01*
X007461Y002583D01*
X007461Y002581D02*
X007461Y002581D01*
X007461Y002522D02*
X007461Y002522D01*
X007461Y002464D02*
X007461Y002464D01*
X007461Y002405D02*
X007461Y002405D01*
X007461Y002347D02*
X007461Y002347D01*
X007461Y002288D02*
X007461Y002288D01*
X007461Y002230D02*
X007461Y002230D01*
X007461Y002171D02*
X007461Y002171D01*
X007461Y002170D02*
X007808Y002170D01*
X007461Y002170D01*
X007461Y002170D01*
X007808Y002171D02*
X009680Y002171D01*
X009622Y002113D02*
X007808Y002113D01*
X007808Y002054D02*
X009563Y002054D01*
X009505Y001996D02*
X008510Y001996D01*
X008569Y001937D02*
X009446Y001937D01*
X009388Y001879D02*
X008575Y001879D01*
X008575Y001820D02*
X009329Y001820D01*
X009739Y002230D02*
X007808Y002230D01*
X007808Y002288D02*
X009797Y002288D01*
X009856Y002347D02*
X007808Y002347D01*
X007808Y002405D02*
X009914Y002405D01*
X009973Y002464D02*
X007808Y002464D01*
X007808Y002522D02*
X010031Y002522D01*
X010090Y002581D02*
X007808Y002581D01*
X007808Y002639D02*
X010148Y002639D01*
X010207Y002698D02*
X007808Y002698D01*
X007808Y002756D02*
X010265Y002756D01*
X010324Y002815D02*
X007808Y002815D01*
X007808Y002873D02*
X010382Y002873D01*
X010435Y002932D02*
X007808Y002932D01*
X007808Y002990D02*
X010435Y002990D01*
X010473Y003049D02*
X007808Y003049D01*
X007808Y003107D02*
X010531Y003107D01*
X010699Y003107D02*
X014185Y003107D01*
X014185Y003049D02*
X010757Y003049D01*
X010795Y003011D02*
X010795Y002861D01*
X010690Y002756D01*
X010748Y002815D02*
X014185Y002815D01*
X014185Y002873D02*
X010795Y002873D01*
X009709Y003575D02*
X014185Y003575D01*
X014185Y003517D02*
X007808Y003517D01*
X007808Y003575D02*
X009481Y003575D01*
X009595Y003716D02*
X006115Y003716D01*
X005635Y004196D01*
X005455Y004219D02*
X002438Y004219D01*
X002438Y004277D02*
X005461Y004277D01*
X005520Y004336D02*
X002438Y004336D01*
X002438Y004394D02*
X014185Y004394D01*
X014185Y004336D02*
X005750Y004336D01*
X005809Y004277D02*
X014185Y004277D01*
X014185Y004219D02*
X005815Y004219D01*
X005841Y004160D02*
X014185Y004160D01*
X014185Y004102D02*
X005899Y004102D01*
X005958Y004043D02*
X014185Y004043D01*
X014185Y003985D02*
X006016Y003985D01*
X006075Y003926D02*
X014185Y003926D01*
X014185Y003868D02*
X009698Y003868D01*
X009757Y003809D02*
X014185Y003809D01*
X014185Y003751D02*
X009775Y003751D01*
X009775Y003692D02*
X014185Y003692D01*
X014185Y003634D02*
X009767Y003634D01*
X009492Y003868D02*
X006133Y003868D01*
X005911Y003751D02*
X002438Y003751D01*
X002438Y003809D02*
X005852Y003809D01*
X005794Y003868D02*
X002438Y003868D01*
X002438Y003926D02*
X005735Y003926D01*
X005677Y003985D02*
X002438Y003985D01*
X002438Y004043D02*
X005533Y004043D01*
X005475Y004102D02*
X002438Y004102D01*
X002438Y004160D02*
X005455Y004160D01*
X005966Y003692D02*
X002438Y003692D01*
X002438Y003634D02*
X005922Y003634D01*
X005914Y003575D02*
X002438Y003575D01*
X002438Y003517D02*
X005914Y003517D01*
X005914Y003458D02*
X002438Y003458D01*
X002438Y003400D02*
X005914Y003400D01*
X005914Y003341D02*
X002438Y003341D01*
X002438Y003283D02*
X005914Y003283D01*
X007808Y003283D02*
X014185Y003283D01*
X014185Y003341D02*
X007808Y003341D01*
X007808Y003400D02*
X014185Y003400D01*
X014185Y003458D02*
X007808Y003458D01*
X007808Y003224D02*
X014185Y003224D01*
X014185Y003166D02*
X007808Y003166D01*
X007808Y001996D02*
X008280Y001996D01*
X002438Y004453D02*
X014185Y004453D01*
X014185Y004511D02*
X002438Y004511D01*
X002438Y004570D02*
X014185Y004570D01*
X014185Y004628D02*
X002438Y004628D01*
X002438Y004687D02*
X014185Y004687D01*
X014185Y004745D02*
X002438Y004745D01*
X002438Y004804D02*
X014185Y004804D01*
X014185Y004862D02*
X002438Y004862D01*
X002438Y004921D02*
X014185Y004921D01*
D12*
X013152Y004215D03*
X013455Y003688D03*
X013522Y003082D03*
X013528Y002265D03*
X011755Y001556D03*
X011384Y001035D03*
X012107Y000861D03*
X012899Y000945D03*
X013389Y001430D03*
X010571Y002065D03*
X010202Y002023D03*
X009535Y001376D03*
X008395Y001196D03*
X007735Y001196D03*
X006955Y001196D03*
X006655Y001196D03*
X006415Y001136D03*
X006175Y001196D03*
X005935Y001136D03*
X005419Y001065D03*
X003964Y001447D03*
X003644Y001404D03*
X003438Y001338D03*
X003523Y001568D03*
X003275Y001658D03*
X003795Y001719D03*
X003656Y002016D03*
X002972Y001937D03*
X002670Y001931D03*
X002337Y001931D03*
X001981Y001931D03*
X001533Y002137D03*
X001219Y002215D03*
X000880Y002215D03*
X000547Y002228D03*
X000505Y002651D03*
X000735Y002645D03*
X000965Y002645D03*
X001231Y002645D03*
X001479Y002627D03*
X002537Y003365D03*
X002525Y003607D03*
X002531Y003868D03*
X002525Y004170D03*
X002525Y004425D03*
X002526Y004664D03*
X002526Y004882D03*
X003881Y004022D03*
X004991Y003973D03*
X005570Y003919D03*
X005635Y004196D03*
X004126Y003425D03*
X005275Y003056D03*
X008395Y001856D03*
X009742Y002689D03*
X010615Y002936D03*
X009730Y003064D03*
X009595Y003716D03*
X010105Y003827D03*
X008369Y004336D03*
X008038Y004472D03*
X007666Y004590D03*
X010105Y004785D03*
X011905Y004763D03*
X002966Y001253D03*
X002591Y001253D03*
X002204Y001253D03*
X001956Y001447D03*
X002344Y001622D03*
X002803Y001652D03*
X001563Y001658D03*
X006912Y000696D03*
X008326Y000696D03*
X010571Y000764D03*
M02*
