%
M48
M72
T01C0.0060
T02C0.0118
%
T01
X2204Y1253
X1956Y1447
X2344Y1622
X2803Y1652
X3275Y1658
X3523Y1568
X3644Y1404
X3438Y1338
X3964Y1447
X3795Y1719
X3656Y2016
X2972Y1937
X2670Y1931
X2337Y1931
X1981Y1931
X1533Y2137
X1219Y2215
X880Y2215
X547Y2228
X505Y2651
X735Y2645
X965Y2645
X1231Y2645
X1479Y2627
X2537Y3365
X2525Y3607
X2531Y3868
X2525Y4170
X2525Y4425
X2526Y4664
X2526Y4882
X3881Y4022
X4991Y3973
X5570Y3919
X5635Y4196
X4126Y3425
X5275Y3056
X8395Y1856
X9535Y1376
X8395Y1196
X7735Y1196
X6955Y1196
X6655Y1196
X6415Y1136
X6175Y1196
X5935Y1136
X5419Y1065
X6912Y696
X8326Y696
X10571Y764
X11384Y1035
X12107Y861
X12899Y945
X13389Y1430
X11755Y1556
X10571Y2065
X10202Y2023
X9742Y2689
X10615Y2936
X9730Y3064
X9595Y3716
X10105Y3827
X8369Y4336
X8038Y4472
X7666Y4590
X10105Y4785
X11905Y4763
X13152Y4215
X13455Y3688
X13522Y3082
X13528Y2265
X2966Y1253
X2591Y1253
X1563Y1658
T02
X6261Y2170
X6664Y2170
X7058Y2170
X7461Y2170
X7461Y2583
X7058Y2583
X6664Y2583
X6261Y2583
X6261Y2957
X6664Y2957
X7058Y2957
X7461Y2957
X7461Y3370
X7058Y3370
X6664Y3370
X6261Y3370
M30
